<svg width="166" height="40" viewBox="0 0 166 40" fill="none" xmlns="http://www.w3.org/2000/svg">
<path d="M3.33203 9.9987C3.33203 6.3168 6.3168 3.33203 9.9987 3.33203H29.9987C33.6806 3.33203 36.6654 6.3168 36.6654 9.9987V11.1098C36.6654 12.9508 35.173 14.4431 33.332 14.4431H6.66536C4.82441 14.4431 3.33203 12.9508 3.33203 11.1098V9.9987Z" fill="white"/>
<path d="M3.33203 28.8324C3.33203 26.9914 4.82442 25.499 6.66536 25.499H33.332C35.173 25.499 36.6654 26.9914 36.6654 28.8324V29.9435C36.6654 33.6254 33.6806 36.6101 29.9987 36.6101H9.9987C6.3168 36.6101 3.33203 33.6254 3.33203 29.9435V28.8324Z" fill="white"/>
<rect x="2.46484" y="18.9604" width="33.3333" height="11.1111" transform="rotate(-15 2.46484 18.9604)" fill="#FF7CC0"/>
<path d="M48 30.8318V12.9118H53.504L53.44 15.0878C53.44 15.4718 53.44 15.5358 53.376 16.1438L53.344 16.3998L53.312 16.9758H53.504C54.496 13.6158 56.096 12.2718 59.104 12.2718C61.088 12.2718 62.624 13.0718 63.456 14.5758C63.872 15.2798 64.032 15.8878 64.256 17.2958C64.736 15.7598 65.024 15.1198 65.568 14.3518C66.464 13.0078 68.032 12.2718 69.92 12.2718C72.064 12.2718 73.76 13.1998 74.496 14.7678C75.104 16.0158 75.168 16.5278 75.168 19.7918V30.8318H69.152V21.0398C69.152 19.6958 69.12 19.2478 68.96 18.7678C68.736 18.0318 68.032 17.6158 67.104 17.6158C66.176 17.6158 65.376 18.0958 64.96 18.8958C64.704 19.3758 64.608 19.9518 64.608 21.0398V30.8318H58.592V21.0398C58.592 19.5678 58.528 19.0238 58.272 18.4798C58.016 17.9038 57.376 17.5518 56.576 17.5518C55.648 17.5518 54.848 17.9998 54.4 18.7998C54.112 19.3438 54.016 19.9518 54.016 21.0398V30.8318H48Z" fill="white"/>
<path d="M92.2362 30.8318H87.3083L87.3402 29.9678C87.3402 29.3598 87.3722 29.1678 87.5002 27.9838H87.3083C86.8283 29.0718 86.4762 29.6158 85.8042 30.1278C84.7162 30.9918 83.2442 31.4718 81.7402 31.4718C78.5722 31.4718 76.3322 29.4238 76.3322 26.5438C76.3322 24.7518 77.2282 23.1198 78.6682 22.2878C79.9162 21.5518 81.7402 20.9758 84.1082 20.5918C86.2202 20.2718 87.0522 19.7278 87.0522 18.7678C87.0522 17.7758 85.8042 17.0398 84.0762 17.0398C82.7642 17.0398 81.2923 17.3918 79.9482 17.9998C78.7642 18.5438 78.1242 19.0238 77.1962 20.0478V14.9918C79.5002 13.1038 81.8683 12.2718 85.0363 12.2718C87.5963 12.2718 89.7402 13.0398 90.9562 14.3838C91.9162 15.4398 92.2362 16.6558 92.2362 19.1518V30.8318ZM87.0522 22.7998C86.5723 23.1518 85.9643 23.3758 84.3003 23.8878C82.4443 24.4638 81.7723 25.0078 81.7723 26.0638C81.7723 27.0878 82.5402 27.7918 83.6602 27.7918C85.8363 27.7918 87.0522 25.9998 87.0522 22.7998Z" fill="white"/>
<path d="M93.94 30.8318V8.52783H99.956V21.0398L105.108 13.1358H112.212L105.428 21.9038L112.564 30.8318H105.108L99.956 22.9278V30.8318H93.94Z" fill="white"/>
<path d="M112.848 30.8318V12.9118H118.352L117.968 18.4478H118.128C118.512 16.0798 118.864 15.0558 119.728 13.9358C120.56 12.8478 121.616 12.2718 122.832 12.2718C123.824 12.2718 124.656 12.5598 125.552 13.1998L125.264 19.5358H125.04C124.208 18.6718 123.632 18.3838 122.608 18.3838C121.52 18.3838 120.464 18.8958 119.888 19.7278C118.992 21.0078 118.64 22.9598 118.64 26.7998C118.64 27.9838 118.672 29.1678 118.736 30.8318H112.848Z" fill="white"/>
<path d="M134.356 12.2718C140.116 12.2718 143.028 15.3758 143.028 21.5838C143.028 24.5278 142.132 27.3438 140.692 28.9758C139.252 30.6078 136.916 31.4718 134.004 31.4718C131.188 31.4718 129.108 30.7038 127.764 29.1998C126.26 27.5358 125.364 24.7198 125.364 21.5518C125.364 15.4078 128.404 12.2718 134.356 12.2718ZM134.292 17.9358C132.02 17.9358 130.836 19.4078 130.836 22.1918C130.836 25.1998 132.052 26.8958 134.196 26.8958C136.34 26.8958 137.588 25.1038 137.588 22.0318C137.588 19.3118 136.5 17.9358 134.292 17.9358Z" fill="white"/>
<path d="M144.131 30.8318V12.9118H149.731V15.3438C149.731 16.0798 149.699 16.5598 149.507 17.7758H149.731C150.083 15.9198 150.467 15.0878 151.395 14.1278C152.547 12.9118 154.083 12.2718 155.907 12.2718C157.955 12.2718 159.683 13.1038 160.579 14.5118C161.411 15.8238 161.507 16.3038 161.507 19.8878V30.8318H155.491V22.0958C155.491 20.0158 155.427 19.4718 155.139 18.9278C154.819 18.3518 154.019 17.9358 153.187 17.9358C152.035 17.9358 151.011 18.6078 150.531 19.6318C150.243 20.2718 150.147 20.9758 150.147 22.4158V30.8318H144.131Z" fill="white"/>
</svg>
