<svg width="57" height="24" viewBox="0 0 57 24" fill="none" xmlns="http://www.w3.org/2000/svg">
<g clip-path="url(#clip0_848_1025)">
<path d="M37.0318 11.987C36.9933 11.7225 36.8455 11.5741 36.5757 11.5741C36.3059 11.5741 36.1132 11.7096 36.0361 11.987H37.0318Z" fill="black"/>
<path d="M45.498 0L39.0679 7.55483V0H31.5457L25.1542 7.50322V0H17.632L11.1441 7.61935V0H-0.000976562V7.55483H3.62198V24H11.1441L17.5357 16.4968V24H25.0578L31.4879 16.4452V24H39.0101L53.0201 7.55483H56.399V0H45.498ZM14.6643 13.7613H13.4759L12.3839 10.0387H13.4245L13.8099 11.6645C13.9127 12.0581 13.9834 12.4452 14.0862 12.8452H14.1119C14.2146 12.4452 14.2853 12.0581 14.3881 11.6645L14.7671 10.0387H15.7692L14.6771 13.7613H14.6643ZM18.0432 13.7613H17.0603V11.6645H15.9747V10.8968H18.0367V13.7613H18.0432ZM17.5164 10.5097C17.1503 10.5097 16.8869 10.2774 16.8869 9.93548C16.8869 9.59354 17.1503 9.34838 17.5164 9.34838C17.8826 9.34838 18.1459 9.58709 18.1459 9.93548C18.1459 10.2839 17.8826 10.5097 17.5164 10.5097ZM21.7175 13.7613H20.7347V12.1226C20.7347 11.8 20.6576 11.6645 20.4007 11.6645C20.2208 11.6645 20.0923 11.7419 19.9446 11.8839V13.7613H18.9617V10.8968H19.7583L19.8289 11.2387H19.8546C20.0859 11.0193 20.3878 10.8258 20.8053 10.8258C21.4413 10.8258 21.7111 11.2839 21.7111 11.9935V13.7548L21.7175 13.7613ZM24.0878 13.8322C23.15 13.8322 22.8095 13.3161 22.8095 12.5484V11.6645H22.1222V10.929L22.8545 10.8968L22.983 10.0387H23.7924V10.8968H24.9229V11.6645H23.7924V12.529C23.7924 12.9355 23.9786 13.0645 24.3448 13.0645C24.5375 13.0645 24.7109 13.0258 24.8651 12.9742L25.0386 13.6839C24.788 13.7548 24.4797 13.8322 24.0943 13.8322H24.0878ZM28.2889 13.7613H27.274L27.107 12.7419C27.0684 12.5032 27.0299 12.2387 27.0235 12.0129H27.0042C26.9849 12.2387 26.9592 12.4968 26.9207 12.7419L26.7665 13.7613H25.7773L25.3148 10.0387H26.3169L26.3618 11.8839V12.8452H26.3875C26.4325 12.5226 26.516 12.2 26.5674 11.8839L26.7729 10.9806H27.3447L27.5309 11.8839C27.5823 12.1871 27.6594 12.5161 27.7108 12.8452H27.7365V11.8839L27.7815 10.0387H28.7193L28.2889 13.7613ZM31.1539 13.7613H30.1711V11.6645H29.0855V10.8968H31.1475V13.7613H31.1539ZM30.6272 10.5097C30.261 10.5097 29.9976 10.2774 29.9976 9.93548C29.9976 9.59354 30.261 9.34838 30.6272 9.34838C30.9933 9.34838 31.2567 9.58709 31.2567 9.93548C31.2567 10.2839 30.9933 10.5097 30.6272 10.5097ZM34.5135 11.7677C34.34 11.7161 34.2244 11.6903 34.0189 11.6903C33.6913 11.6903 33.3444 11.8645 33.1324 12.3419V13.7613H32.1496V10.8968H32.9525L33.0296 11.5032H33.0553C33.3315 11.0323 33.7426 10.8258 34.1666 10.8258C34.43 10.8258 34.5456 10.871 34.7062 10.9419L34.5135 11.7677ZM37.8602 12.6258H36.0359C36.1258 12.9484 36.3699 13.0839 36.7875 13.0839C37.0123 13.0839 37.2179 13.0258 37.4748 12.9097L37.796 13.4968C37.4555 13.7161 37.0059 13.8258 36.6526 13.8258C35.7533 13.8258 35.0531 13.2774 35.0531 12.3226C35.0531 11.3677 35.7854 10.8193 36.5498 10.8193C37.4491 10.8193 37.9052 11.4387 37.9052 12.2064C37.9052 12.3806 37.8795 12.5484 37.8666 12.6193L37.8602 12.6258Z" fill="black"/>
</g>
<defs>
<clipPath id="clip0_848_1025">
<rect width="56.4" height="24" fill="white"/>
</clipPath>
</defs>
</svg>
