<svg width="57" height="24" viewBox="0 0 57 24" fill="none" xmlns="http://www.w3.org/2000/svg">
<g clip-path="url(#clip0_328_5238)">
<path d="M37.0328 11.9871C36.9942 11.7225 36.8465 11.5742 36.5767 11.5742C36.3069 11.5742 36.1142 11.7096 36.0371 11.9871H37.0328Z" fill="white"/>
<path d="M45.499 0L39.0689 7.55483V0H31.5467L25.1552 7.50322V0H17.633L11.1451 7.61935V0H0V7.55483H3.62296V24H11.1451L17.5367 16.4968V24H25.0588L31.4889 16.4452V24H39.011L53.0211 7.55483H56.4V0H45.499ZM14.6653 13.7613H13.4769L12.3849 10.0387H13.4255L13.8109 11.6645C13.9137 12.0581 13.9844 12.4452 14.0871 12.8452H14.1128C14.2156 12.4452 14.2863 12.0581 14.3891 11.6645L14.7681 10.0387H15.7701L14.6781 13.7613H14.6653ZM18.0441 13.7613H17.0613V11.6645H15.9757V10.8968H18.0377V13.7613H18.0441ZM17.5174 10.5097C17.1512 10.5097 16.8879 10.2774 16.8879 9.93548C16.8879 9.59354 17.1512 9.34838 17.5174 9.34838C17.8835 9.34838 18.1469 9.58709 18.1469 9.93548C18.1469 10.2839 17.8835 10.5097 17.5174 10.5097ZM21.7185 13.7613H20.7357V12.1226C20.7357 11.8 20.6586 11.6645 20.4016 11.6645C20.2218 11.6645 20.0933 11.7419 19.9455 11.8839V13.7613H18.9627V10.8968H19.7593L19.8299 11.2387H19.8556C20.0869 11.0193 20.3888 10.8258 20.8063 10.8258C21.4423 10.8258 21.7121 11.2839 21.7121 11.9935V13.7548L21.7185 13.7613ZM24.0888 13.8322C23.151 13.8322 22.8105 13.3161 22.8105 12.5484V11.6645H22.1232V10.929L22.8555 10.8968L22.9839 10.0387H23.7933V10.8968H24.9239V11.6645H23.7933V12.529C23.7933 12.9355 23.9796 13.0645 24.3458 13.0645C24.5385 13.0645 24.7119 13.0258 24.8661 12.9742L25.0395 13.6839C24.789 13.7548 24.4807 13.8322 24.0952 13.8322H24.0888ZM28.2899 13.7613H27.275L27.108 12.7419C27.0694 12.5032 27.0309 12.2387 27.0244 12.0129H27.0052C26.9859 12.2387 26.9602 12.4968 26.9217 12.7419L26.7675 13.7613H25.7783L25.3157 10.0387H26.3178L26.3628 11.8839V12.8452H26.3885C26.4335 12.5226 26.517 12.2 26.5684 11.8839L26.7739 10.9806H27.3456L27.5319 11.8839C27.5833 12.1871 27.6604 12.5161 27.7118 12.8452H27.7375V11.8839L27.7824 10.0387H28.7203L28.2899 13.7613ZM31.1549 13.7613H30.1721V11.6645H29.0864V10.8968H31.1485V13.7613H31.1549ZM30.6281 10.5097C30.262 10.5097 29.9986 10.2774 29.9986 9.93548C29.9986 9.59354 30.262 9.34838 30.6281 9.34838C30.9943 9.34838 31.2577 9.58709 31.2577 9.93548C31.2577 10.2839 30.9943 10.5097 30.6281 10.5097ZM34.5145 11.7677C34.341 11.7161 34.2254 11.6903 34.0198 11.6903C33.6922 11.6903 33.3454 11.8645 33.1334 12.3419V13.7613H32.1505V10.8968H32.9535L33.0306 11.5032H33.0563C33.3325 11.0323 33.7436 10.8258 34.1676 10.8258C34.431 10.8258 34.5466 10.871 34.7072 10.9419L34.5145 11.7677ZM37.8612 12.6258H36.0369C36.1268 12.9484 36.3709 13.0839 36.7884 13.0839C37.0133 13.0839 37.2188 13.0258 37.4758 12.9097L37.797 13.4968C37.4565 13.7161 37.0069 13.8258 36.6535 13.8258C35.7542 13.8258 35.0541 13.2774 35.0541 12.3226C35.0541 11.3677 35.7864 10.8193 36.5508 10.8193C37.4501 10.8193 37.9062 11.4387 37.9062 12.2064C37.9062 12.3806 37.8805 12.5484 37.8676 12.6193L37.8612 12.6258Z" fill="white"/>
</g>
<defs>
<clipPath id="clip0_328_5238">
<rect width="56.4" height="24" fill="white"/>
</clipPath>
</defs>
</svg>
