<svg width="403" height="97" viewBox="0 0 403 97" fill="none" xmlns="http://www.w3.org/2000/svg">
<rect x="178.816" y="43.2554" width="216.744" height="54.186" rx="18.062" transform="rotate(-11.5117 178.816 43.2554)" fill="#E1F48B"/>
<path d="M246.91 48.2293L253.997 46.786C256.028 46.3722 256.405 46.3212 257.09 46.3883C258.95 46.5255 260.064 47.563 260.463 49.5205C260.751 50.9329 260.497 52.2231 259.727 53.1284C259.139 53.7901 258.565 54.1392 257.208 54.5705C259.002 54.3857 259.841 54.4472 260.596 54.8611C261.441 55.3342 262.009 56.2248 262.267 57.4885C262.61 59.1734 262.169 60.8115 261.151 61.7673C260.325 62.5289 259.444 62.8891 257.189 63.3483L250.276 64.7563L246.91 48.2293ZM251.83 51.0982L252.435 54.0716L254.566 53.6376C255.979 53.3499 256.566 52.6883 256.349 51.6228C256.143 50.6069 255.522 50.3463 254.085 50.639L251.83 51.0982ZM253.081 57.2432L253.717 60.3652L255.873 59.9262C256.715 59.7546 257.097 59.5995 257.408 59.3554C257.784 59.0466 257.931 58.5006 257.815 57.9307C257.679 57.2617 257.275 56.8019 256.715 56.7097C256.337 56.6316 256.005 56.6477 255.212 56.8092L253.081 57.2432ZM260.728 45.4151L265.114 44.5219L266.966 53.6154C267.314 55.3251 267.489 55.8055 267.982 56.3245C268.415 56.804 269.204 57.0046 269.972 56.8481C270.939 56.6513 271.626 55.9695 271.766 55.1408C271.849 54.5306 271.808 54.2034 271.5 52.6919L269.648 43.5983L274.034 42.7051L275.886 51.7987C276.431 54.4747 276.487 54.8762 276.395 55.6948C276.142 58.3786 274.091 60.3447 270.845 61.0058C268.367 61.5105 266.099 61.0176 264.745 59.6933C263.686 58.6705 263.201 57.5564 262.63 54.7564L260.728 45.4151ZM274.53 42.6041L287.885 39.884L288.758 44.1707L284.298 45.079L286.791 57.3194L282.405 58.2127L279.912 45.9722L275.403 46.8907L274.53 42.6041ZM288.057 39.849L301.413 37.129L302.286 41.4156L297.826 42.324L300.318 54.5644L295.933 55.4576L293.44 43.2172L288.93 44.1357L288.057 39.849ZM308.888 35.1678C313.992 34.1283 316.746 36.1221 317.877 41.6724C318.523 44.844 318.265 47.632 317.121 49.4907C316.169 51.0265 314.457 52.1235 312.227 52.5777C307.42 53.5567 304.173 50.915 302.992 45.1169C302.421 42.317 302.606 39.9309 303.543 38.3209C304.42 36.8003 306.261 35.7028 308.888 35.1678ZM309.757 39.6876C307.626 40.1216 306.863 41.8252 307.469 44.7986C308.105 47.9207 309.468 49.2945 311.55 48.8706C312.739 48.6284 313.461 47.9911 313.754 46.899C314.014 45.8914 314.009 44.4731 313.736 43.1351C313.176 40.3847 311.888 39.2536 309.757 39.6876ZM331.333 31.0353L334.699 47.5623L329.52 48.6171L325.264 42.8C323.983 40.9449 322.931 39.198 321.932 37.2079L321.808 37.2331C322.45 39.2443 322.797 40.5672 323.507 43.6741L324.713 49.5961L320.55 50.4439L317.184 33.9168L323.205 32.6906L326.411 37.4054C327.727 39.434 329.055 41.899 330.124 44.236L330.273 44.2057C329.15 40.7184 328.542 38.6228 328.124 36.5662L327.17 31.8831L331.333 31.0353Z" fill="#46CE7A"/>
<rect y="28.8989" width="198.682" height="54.186" rx="18.062" fill="#46CE7A"/>
<path d="M55.4518 47.0949H62.6839C64.7574 47.0949 65.1367 47.1202 65.7942 47.3225C67.5895 47.8282 68.4746 49.0672 68.4746 51.0649C68.4746 52.5063 67.9688 53.72 67.0332 54.4533C66.3252 54.9844 65.693 55.2119 64.2769 55.3637C66.0723 55.5407 66.8815 55.7683 67.5389 56.3246C68.2723 56.9567 68.6516 57.9429 68.6516 59.2325C68.6516 60.952 67.893 62.4693 66.7045 63.2026C65.7436 63.7842 64.808 63.9612 62.5069 63.9612H55.4518V47.0949ZM59.7 50.8879V53.9223H61.8747C63.316 53.9223 64.0241 53.3913 64.0241 52.304C64.0241 51.2672 63.4678 50.8879 62.0011 50.8879H59.7ZM59.7 57.159V60.3452H61.9C62.7597 60.3452 63.1643 60.2693 63.5183 60.0923C63.9482 59.8647 64.2011 59.359 64.2011 58.7774C64.2011 58.0946 63.8976 57.5636 63.3666 57.3613C63.0126 57.2096 62.6839 57.159 61.8747 57.159H59.7ZM69.5532 47.0949H74.029V56.3751C74.029 58.1199 74.1048 58.6257 74.4841 59.2325C74.8129 59.7889 75.5462 60.1429 76.3301 60.1429C77.3163 60.1429 78.1254 59.6118 78.4289 58.828C78.6312 58.2464 78.6565 57.9176 78.6565 56.3751V47.0949H83.1322V56.3751C83.1322 59.1061 83.1069 59.5107 82.8541 60.2946C82.0702 62.8738 79.6679 64.3911 76.3554 64.3911C73.8267 64.3911 71.7026 63.4554 70.6405 61.8877C69.8061 60.6739 69.5532 59.4854 69.5532 56.628V47.0949ZM83.6386 47.0949H97.2681V51.4695H92.7165V63.9612H88.2408V51.4695H83.6386V47.0949ZM97.4436 47.0949H111.073V51.4695H106.522V63.9612H102.046V51.4695H97.4436V47.0949ZM118.789 46.665C123.998 46.665 126.3 49.1684 126.3 54.8326C126.3 58.0694 125.49 60.7498 123.998 62.3428C122.759 63.6577 120.863 64.3911 118.587 64.3911C113.681 64.3911 111.026 61.1543 111.026 55.2372C111.026 52.3798 111.684 50.0787 112.923 48.6879C114.086 47.373 116.109 46.665 118.789 46.665ZM118.739 51.2672C116.564 51.2672 115.477 52.7844 115.477 55.8188C115.477 59.005 116.539 60.6233 118.663 60.6233C119.877 60.6233 120.711 60.1429 121.217 59.1314C121.672 58.1958 121.95 56.805 121.95 55.4395C121.95 52.6327 120.914 51.2672 118.739 51.2672ZM141.607 47.0949V63.9612H136.322L133.313 57.4119C132.428 55.3384 131.746 53.4166 131.164 51.2672H131.038C131.265 53.366 131.341 54.7315 131.417 57.9176V63.9612H127.169V47.0949H133.313L135.513 52.3545C136.398 54.6051 137.207 57.2855 137.789 59.7889H137.941C137.536 56.1476 137.359 53.9729 137.359 51.8741V47.0949H141.607Z" fill="#E1F48B"/>
</svg>
