<svg width="437" height="157" viewBox="0 0 437 157" fill="none" xmlns="http://www.w3.org/2000/svg">
<g clip-path="url(#clip0_4049_605)">
<rect x="11.8555" width="427.167" height="111.984" rx="9.03101" transform="rotate(6.07794 11.8555 0)" fill="white" fill-opacity="0.6"/>
<rect x="50.6406" y="19.5693" width="344.984" height="20.7713" rx="3.6124" transform="rotate(6.07794 50.6406 19.5693)" fill="#F1E4D3"/>
<rect x="48.0547" y="43.8164" width="170.686" height="56.8953" rx="3.6124" transform="rotate(6.07794 48.0547 43.8164)" fill="#F1E4D3"/>
<rect x="221.375" y="62.2712" width="170.686" height="56.8953" rx="3.6124" transform="rotate(6.07794 221.375 62.2712)" fill="#F1E4D3"/>
<g clip-path="url(#clip1_4049_605)">
<rect x="4" y="26.6992" width="72.2481" height="72.2481" rx="36.124" transform="rotate(-15 4 26.6992)" fill="#FF7CC0"/>
<g clip-path="url(#clip2_4049_605)">
<path d="M62.7279 34.7793C61.4178 34.0225 59.9714 33.5312 58.4714 33.3335C56.9713 33.1359 55.4471 33.2357 53.9856 33.6273C52.5242 34.0189 51.1542 34.6946 49.954 35.6158C48.7537 36.5369 47.7468 37.6856 46.9906 38.9961L45.4209 41.7147L42.7023 40.1451C40.0562 38.6174 36.9116 38.2034 33.9603 38.9942C31.009 39.785 28.4927 41.7158 26.965 44.3619C25.4372 47.008 25.0232 50.1526 25.814 53.1039C26.6049 56.0552 28.5357 58.5715 31.1818 60.0992L33.9004 61.6689L53.8545 73.1894L65.375 53.2353L66.9447 50.5166C67.7015 49.2065 68.1927 47.7601 68.3904 46.26C68.5881 44.76 68.4883 43.2357 68.0967 41.7743C67.7051 40.3129 67.0294 38.9429 66.1082 37.7427C65.187 36.5424 64.0383 35.5355 62.7279 34.7793Z" fill="white"/>
</g>
</g>
</g>
<defs>
<clipPath id="clip0_4049_605">
<rect x="11.8555" width="427.167" height="111.984" rx="9.03101" transform="rotate(6.07794 11.8555 0)" fill="white"/>
</clipPath>
<clipPath id="clip1_4049_605">
<rect x="4" y="26.6992" width="72.2481" height="72.2481" rx="36.124" transform="rotate(-15 4 26.6992)" fill="white"/>
</clipPath>
<clipPath id="clip2_4049_605">
<rect width="50.2595" height="50.2595" fill="white" transform="translate(18.0742 36.7485) rotate(-15)"/>
</clipPath>
</defs>
</svg>
