<svg width="437" height="158" viewBox="0 0 437 158" fill="none" xmlns="http://www.w3.org/2000/svg">
<g clip-path="url(#clip0_4049_610)">
<rect y="45.8193" width="427" height="111.984" rx="9.03101" transform="rotate(-6.16 0 45.8193)" fill="white" fill-opacity="0.6"/>
<rect x="29.0664" y="62.6643" width="72.2481" height="72.2481" rx="36.124" transform="rotate(-6.16 29.0664 62.6643)" fill="#F1E4D3"/>
<path d="M85.6409 109.924L85.2371 106.182C85.0229 104.198 84.0292 102.38 82.4745 101.128C80.9199 99.8762 78.9316 99.2933 76.9472 99.5075L61.9824 101.123C59.9979 101.337 58.1798 102.331 56.9281 103.885C55.6763 105.44 55.0934 107.428 55.3076 109.413L55.7113 113.154" fill="#46CE7A"/>
<path d="M85.6409 109.924L85.2371 106.182C85.0229 104.198 84.0292 102.38 82.4745 101.128C80.9199 99.8762 78.9316 99.2933 76.9472 99.5075L61.9824 101.123C59.9979 101.337 58.1798 102.331 56.9281 103.885C55.6763 105.44 55.0934 107.428 55.3076 109.413L55.7113 113.154L85.6409 109.924Z" stroke="#46CE7A" stroke-width="3.38663" stroke-linecap="round" stroke-linejoin="round"/>
<path d="M68.6522 92.833C72.7846 92.387 75.773 88.6755 75.327 84.543C74.881 80.4106 71.1695 77.4222 67.0371 77.8682C62.9047 78.3142 59.9162 82.0258 60.3622 86.1582C60.8083 90.2906 64.5198 93.279 68.6522 92.833Z" fill="#46CE7A" stroke="#46CE7A" stroke-width="3.38663" stroke-linecap="round" stroke-linejoin="round"/>
<rect x="128.73" y="51.9075" width="72.2481" height="72.2481" rx="36.124" transform="rotate(-6.16 128.73 51.9075)" fill="#F1E4D3"/>
<path d="M180.937 67.5056L152.878 70.534C150.812 70.757 149.317 72.6127 149.54 74.6789L152.165 98.9966C152.388 101.063 154.244 102.557 156.31 102.334L184.369 99.3057C186.435 99.0827 187.929 97.227 187.706 95.1607L185.082 70.843C184.859 68.7768 183.003 67.2826 180.937 67.5056Z" fill="#46CE7A"/>
<path d="M160.124 67.8599L158.291 68.0577C157.774 68.1135 157.401 68.5774 157.456 69.094L157.86 72.8352C157.916 73.3517 158.38 73.7253 158.896 73.6695L160.73 73.4717C161.246 73.4159 161.62 72.952 161.564 72.4354L161.16 68.6942C161.104 68.1777 160.641 67.8041 160.124 67.8599Z" fill="#198A56"/>
<path d="M161.921 79.9295L159.115 80.2323C158.598 80.2881 158.225 80.752 158.281 81.2686L158.583 84.0744C158.639 84.5909 159.103 84.9645 159.62 84.9088L162.426 84.606C162.942 84.5502 163.316 84.0862 163.26 83.5697L162.957 80.7638C162.901 80.2473 162.437 79.8737 161.921 79.9295Z" fill="#198A56"/>
<path d="M169.417 79.1201L166.611 79.423C166.095 79.4787 165.721 79.9427 165.777 80.4592L166.08 83.2651C166.135 83.7816 166.599 84.1552 167.116 84.0995L169.922 83.7966C170.438 83.7409 170.812 83.2769 170.756 82.7604L170.453 79.9545C170.397 79.438 169.933 79.0644 169.417 79.1201Z" fill="#198A56"/>
<path d="M176.921 78.3103L174.115 78.6132C173.598 78.6689 173.225 79.1329 173.281 79.6494L173.583 82.4553C173.639 82.9718 174.103 83.3454 174.62 83.2897L177.426 82.9868C177.942 82.9311 178.316 82.467 178.26 81.9506L177.957 79.1447C177.901 78.6281 177.437 78.2546 176.921 78.3103Z" fill="#198A56"/>
<path d="M175.126 66.2404L173.256 66.4423C172.739 66.498 172.366 66.962 172.421 67.4785L172.825 71.2197C172.881 71.7363 173.345 72.1098 173.861 72.0541L175.732 71.8522C176.248 71.7964 176.622 71.3325 176.566 70.8159L176.162 67.0747C176.107 66.5582 175.643 66.1846 175.126 66.2404Z" fill="#198A56"/>
<path d="M162.831 88.347L160.025 88.6498C159.509 88.7055 159.135 89.1696 159.191 89.686L159.494 92.4919C159.549 93.0084 160.013 93.382 160.53 93.3263L163.336 93.0234C163.852 92.9677 164.226 92.5037 164.17 91.9872L163.867 89.1813C163.812 88.6648 163.348 88.2912 162.831 88.347Z" fill="#198A56"/>
<path d="M170.327 87.5379L167.521 87.8407C167.005 87.8964 166.631 88.3605 166.687 88.8769L166.99 91.6828C167.045 92.1993 167.509 92.5729 168.026 92.5172L170.832 92.2144C171.348 92.1586 171.722 91.6946 171.666 91.1781L171.363 88.3722C171.308 87.8558 170.844 87.4821 170.327 87.5379Z" fill="#198A56"/>
<path d="M177.831 86.7281L175.025 87.0309C174.508 87.0867 174.135 87.5507 174.191 88.0671L174.494 90.873C174.549 91.3895 175.013 91.7631 175.53 91.7074L178.336 91.4045C178.852 91.3488 179.226 90.8848 179.17 90.3683L178.867 87.5624C178.812 87.0459 178.348 86.6723 177.831 86.7281Z" fill="#198A56"/>
<rect x="228.398" y="41.1509" width="72.2481" height="72.2481" rx="36.124" transform="rotate(-6.16 228.398 41.1509)" fill="#F1E4D3"/>
<path d="M263.688 55.1692L248.748 71.9208C248.583 72.1069 248.457 72.3237 248.376 72.5589C248.296 72.7944 248.263 73.0432 248.279 73.2912C248.295 73.5395 248.361 73.7818 248.471 74.0046C248.582 74.2275 248.735 74.4261 248.923 74.5892L249.236 74.8582C249.61 75.1856 250.1 75.3514 250.596 75.319C251.093 75.2868 251.556 75.0591 251.885 74.6858L265.376 59.4152C265.687 59.0679 266.115 58.848 266.578 58.798C267.041 58.748 267.506 58.8715 267.883 59.1447L284.321 71.185C284.723 71.4795 285.224 71.603 285.716 71.5285C286.208 71.4542 286.651 71.1879 286.947 70.7881L287.195 70.4585C287.343 70.2579 287.449 70.0303 287.508 69.7886C287.566 69.5468 287.576 69.2959 287.538 69.0501C287.499 68.8045 287.412 68.5689 287.281 68.3572C287.151 68.1453 286.98 67.9615 286.778 67.8164L268.608 54.6382C267.862 54.1171 266.953 53.8837 266.048 53.9813C265.144 54.079 264.305 54.501 263.688 55.1692Z" fill="#198A56"/>
<path d="M285.024 71.3753L287.043 90.0811L275.818 91.2926L274.607 80.0687C274.495 79.0357 273.568 78.2892 272.535 78.4005L265.052 79.2081C264.019 79.3198 263.272 80.247 263.384 81.28L264.595 92.5038L253.372 93.7151L251.353 75.0093L266.573 58.2275L285.024 71.3753Z" fill="#46CE7A"/>
<rect x="328.062" y="30.394" width="72.2481" height="72.2481" rx="36.124" transform="rotate(-6.16 328.062 30.394)" fill="#F1E4D3"/>
<path d="M362.093 44.1311L369.576 43.3236C370.072 43.27 370.569 43.4157 370.957 43.7287C371.346 44.0416 371.595 44.4961 371.648 44.9923L372.052 48.7335L360.828 49.9448L360.425 46.2036C360.371 45.7075 360.517 45.2104 360.83 44.8218C361.143 44.4331 361.597 44.1847 362.093 44.1311Z" fill="#46CE7A"/>
<path d="M349.125 58.2844L352.167 51.4007C352.369 50.9443 352.743 50.5867 353.209 50.4066C353.674 50.2264 354.192 50.2386 354.648 50.4403L358.09 51.9612L353.527 62.2868L350.086 60.7659C349.629 60.5641 349.272 60.1894 349.091 59.724C348.911 59.2587 348.923 58.7409 349.125 58.2844Z" fill="#46CE7A"/>
<path d="M354.888 76.5882L350.447 70.5121C350.153 70.1093 350.03 69.6059 350.107 69.1128C350.184 68.6197 350.453 68.1773 350.856 67.8829L353.894 65.6627L360.555 74.777L357.517 76.9973C357.114 77.2917 356.611 77.4139 356.118 77.3371C355.624 77.2605 355.182 76.9911 354.888 76.5882Z" fill="#46CE7A"/>
<path d="M373.595 80.7374L366.113 81.5449C365.617 81.5985 365.12 81.4526 364.731 81.1398C364.343 80.8269 364.094 80.3723 364.04 79.8762L363.637 76.135L374.86 74.9237L375.264 78.6649C375.318 79.1609 375.172 79.6581 374.859 80.0467C374.546 80.4353 374.092 80.6838 373.595 80.7374Z" fill="#46CE7A"/>
<path d="M386.577 66.6126L383.535 73.4964C383.333 73.9528 382.958 74.3104 382.493 74.4904C382.028 74.6707 381.51 74.6584 381.053 74.4568L377.612 72.9359L382.174 62.6104L385.616 64.1313C386.073 64.333 386.43 64.7077 386.61 65.1731C386.79 65.6383 386.778 66.1562 386.577 66.6126Z" fill="#46CE7A"/>
<path d="M380.814 48.3088L385.255 54.385C385.549 54.7879 385.671 55.2912 385.595 55.7843C385.518 56.2774 385.249 56.7197 384.846 57.0141L381.808 59.2344L375.147 50.1202L378.185 47.8999C378.588 47.6055 379.091 47.4832 379.584 47.5599C380.077 47.6366 380.52 47.9059 380.814 48.3088Z" fill="#46CE7A"/>
<path d="M366.294 47.9359C374.3 47.0717 381.492 52.8616 382.356 60.868C383.22 68.8745 377.43 76.0655 369.423 76.9296C361.417 77.7935 354.226 72.0037 353.361 63.9974C352.498 55.991 358.287 48.8002 366.294 47.9359ZM367.355 57.7567C364.772 58.0354 362.904 60.3548 363.182 62.9374C363.461 65.5201 365.781 67.3883 368.364 67.1096C370.947 66.8306 372.814 64.5105 372.535 61.928C372.256 59.3455 369.937 57.4782 367.355 57.7567Z" fill="#46CE7A"/>
</g>
<defs>
<clipPath id="clip0_4049_610">
<rect y="45.8193" width="427" height="111.984" rx="9.03101" transform="rotate(-6.16 0 45.8193)" fill="white"/>
</clipPath>
</defs>
</svg>
