<svg width="427" height="54" viewBox="0 0 427 54" fill="none" xmlns="http://www.w3.org/2000/svg">
<g clip-path="url(#clip0_4049_838)">
<rect width="427" height="54" rx="9.03101" fill="white"/>
<path d="M-2.58924 37.9684L-4.88492 46.0312H-14.6836L-3.87706 8.68442H10.9609L21.7114 46.0312H11.6328L9.39311 37.9684H-2.58924ZM7.32139 29.2896L3.34594 15.2355L-0.573515 29.2896H7.32139ZM22.4962 8.68442H38.51C43.1013 8.68442 43.9412 8.74041 45.397 9.18835C49.3724 10.3082 51.3322 13.0518 51.3322 17.4752C51.3322 20.6668 50.2123 23.3544 48.1406 24.9782C46.5728 26.154 45.173 26.6579 42.0375 26.9939C46.0129 27.3858 47.8047 27.8898 49.2605 29.1216C50.8842 30.5214 51.7241 32.7051 51.7241 35.5607C51.7241 39.3682 50.0444 42.7277 47.4127 44.3515C45.285 45.6393 43.2133 46.0312 38.118 46.0312H22.4962V8.68442ZM31.9029 17.0833V23.8023H36.7182C39.9098 23.8023 41.4775 22.6265 41.4775 20.2188C41.4775 17.9231 40.2457 17.0833 36.9982 17.0833H31.9029ZM31.9029 30.9693V38.0244H36.7742C38.6779 38.0244 39.5738 37.8564 40.3577 37.4644C41.3096 36.9605 41.8695 35.8407 41.8695 34.5528C41.8695 33.041 41.1976 31.8652 40.0217 31.4173C39.2379 31.0813 38.51 30.9693 36.7182 30.9693H31.9029ZM80.3195 12.4919V23.5224H79.8716C78.2478 20.1068 74.6643 17.9231 70.5769 17.9231C68.2252 17.9231 66.0975 18.763 64.5297 20.3308C62.794 22.0666 61.9541 24.5862 61.9541 28.0577C61.9541 34.8328 65.0337 38.6403 70.5209 38.6403C74.7763 38.6403 77.7999 36.6246 79.8716 32.3131H80.3195V41.9438C76.3441 45.5833 73.0405 46.9831 68.1692 46.9831C58.1466 46.9831 52.0435 39.2562 52.0435 26.5459C52.0435 19.8269 53.7232 14.8996 56.9708 11.82C59.8824 9.13236 63.8578 7.73255 68.5052 7.73255C73.4325 7.73255 76.68 9.02037 80.3195 12.4919ZM82.7031 8.68442H96.8692C101.013 8.68442 101.013 8.68442 102.524 8.90839C106.948 9.5243 109.803 11.3161 111.763 14.4516C113.499 17.3072 114.451 21.2827 114.451 25.5941C114.451 33.8249 111.371 40.768 106.332 43.6236C103.42 45.3034 100.117 46.0312 95.2454 46.0312H82.7031V8.68442ZM92.6138 18.0351V37.3525H95.3014C98.6609 37.3525 100.341 36.9045 101.908 35.5607C103.644 34.0489 104.596 30.8573 104.596 26.6579C104.596 20.6108 102.412 18.0351 97.2051 18.0351H92.6138ZM116.169 8.68442H141.59V18.0351H125.576V23.2424H141.422V31.9212H125.576V37.3525H141.59V46.0312H116.169V8.68442ZM144.715 8.68442H170.079V18.0351H154.625V23.9143H169.911V32.5931H154.625V46.0312H144.715V8.68442ZM201.229 27.0499V39.2002C201.005 39.3682 200.949 39.4802 200.781 39.6481C200.669 39.7601 200.669 39.8161 200.109 40.768C197.925 44.5195 192.83 46.9831 187.231 46.9831C177.096 46.9831 170.545 39.0322 170.545 26.6579C170.545 14.8436 177.04 7.73255 187.959 7.73255C192.998 7.73255 195.965 8.8524 199.941 12.3799V23.0744H199.493C197.029 19.267 193.782 17.4752 189.302 17.4752C183.367 17.4752 179.952 21.3387 179.952 28.0017C179.952 34.9448 182.863 38.9762 187.903 38.9762C189.694 38.9762 190.814 38.5843 191.822 37.6324V27.0499H201.229ZM213.41 21.8426H224.497V8.68442H234.408V46.0312H224.497V31.7532H213.41V46.0312H203.5V8.68442H213.41V21.8426ZM237.786 8.68442H247.697V46.0312H237.786V8.68442ZM259.821 8.68442H269.732V29.6255C269.732 36.4006 269.732 36.6246 269.452 38.1363C268.892 41.6079 267.436 43.7916 264.804 45.3034C262.957 46.3672 260.437 46.9831 257.917 46.9831C253.942 46.9831 251.366 46.1432 248.567 43.9595C248.623 42.5597 248.679 41.2159 248.679 40.712C248.679 39.4242 248.623 38.3043 248.567 36.3446C250.526 38.4163 252.262 39.2562 254.502 39.2562C256.518 39.2562 258.309 38.3603 259.093 36.9605C259.765 35.8967 259.821 35.1128 259.821 30.0735V8.68442ZM273.005 8.68442H282.915V24.5302C283.587 23.1864 283.867 22.6265 284.315 21.9546L292.266 8.68442H304.192L291.818 27.3858L304.584 46.0312H292.658L283.811 31.4733C283.531 30.9693 283.251 30.4654 282.635 29.0656L282.915 46.0312H273.005V8.68442ZM315.179 36.6805H327.945V46.0312H305.268V8.68442H315.179V36.6805ZM369.262 8.68442V46.0312H359.856V26.8819C359.912 23.9703 360.024 20.6668 360.192 16.9713H359.856C358.008 28.3377 357.952 28.7856 356.888 33.097L353.528 46.0312H344.178L340.93 33.433C339.922 29.5695 339.642 27.8338 339.194 24.5302L338.243 16.6353H337.851C338.075 19.9949 338.299 24.8102 338.299 27.2738V46.0312H328.892V8.68442H343.786L347.033 23.8583C347.985 28.8416 348.489 32.8171 348.881 38.3603H349.217C349.665 32.5371 350.169 28.5057 351.065 23.6344L354.144 8.68442H369.262ZM404.61 8.68442V46.0312H392.907L386.244 31.5293C384.284 26.9379 382.773 22.6825 381.485 17.9231H381.205C381.709 22.5705 381.877 25.5941 382.045 32.6491V46.0312H372.638V8.68442H386.244L391.115 20.3308C393.075 25.3141 394.867 31.2493 396.155 36.7925H396.491C395.595 28.7296 395.203 23.9143 395.203 19.267V8.68442H404.61ZM423.641 7.73255C435.176 7.73255 440.271 13.2758 440.271 25.818C440.271 32.9851 438.479 38.9202 435.176 42.4477C432.432 45.3593 428.233 46.9831 423.193 46.9831C412.331 46.9831 406.452 39.8161 406.452 26.7139C406.452 20.3868 407.907 15.2915 410.651 12.2119C413.227 9.30033 417.706 7.73255 423.641 7.73255ZM423.529 17.9231C418.714 17.9231 416.306 21.2827 416.306 28.0017C416.306 35.0568 418.658 38.6403 423.361 38.6403C426.049 38.6403 427.897 37.5764 429.017 35.3367C430.024 33.265 430.64 30.1854 430.64 27.1619C430.64 20.9467 428.345 17.9231 423.529 17.9231Z" fill="#D5C7E3"/>
</g>
<defs>
<clipPath id="clip0_4049_838">
<rect width="427" height="54" rx="9.03101" fill="white"/>
</clipPath>
</defs>
</svg>
