<svg width="1445" height="165" viewBox="0 0 1445 165" fill="none" xmlns="http://www.w3.org/2000/svg">
<g clip-path="url(#clip0_4049_813)">
<rect x="515.855" y="4" width="427.167" height="111.984" rx="9.03101" transform="rotate(6.07794 515.855 4)" fill="white" fill-opacity="0.6"/>
<rect x="554.641" y="23.5693" width="344.984" height="20.7713" rx="3.6124" transform="rotate(6.07794 554.641 23.5693)" fill="#F1E4D3"/>
<rect x="552.055" y="47.8164" width="170.686" height="56.8953" rx="3.6124" transform="rotate(6.07794 552.055 47.8164)" fill="#F1E4D3"/>
<rect x="725.375" y="66.2712" width="170.686" height="56.8953" rx="3.6124" transform="rotate(6.07794 725.375 66.2712)" fill="#F1E4D3"/>
<g clip-path="url(#clip1_4049_813)">
<rect x="508" y="30.6992" width="72.2481" height="72.2481" rx="36.124" transform="rotate(-15 508 30.6992)" fill="#FF7CC0"/>
<g clip-path="url(#clip2_4049_813)">
<path d="M566.728 38.7793C565.418 38.0225 563.971 37.5312 562.471 37.3335C560.971 37.1359 559.447 37.2357 557.986 37.6273C556.524 38.0189 555.154 38.6946 553.954 39.6158C552.754 40.5369 551.747 41.6856 550.991 42.9961L549.421 45.7147L546.702 44.1451C544.056 42.6174 540.912 42.2034 537.96 42.9942C535.009 43.785 532.493 45.7158 530.965 48.3619C529.437 51.008 529.023 54.1526 529.814 57.1039C530.605 60.0552 532.536 62.5715 535.182 64.0992L537.9 65.6689L557.855 77.1894L569.375 57.2353L570.945 54.5166C571.701 53.2065 572.193 51.7601 572.39 50.26C572.588 48.76 572.488 47.2357 572.097 45.7743C571.705 44.3129 571.029 42.9429 570.108 41.7427C569.187 40.5424 568.038 39.5355 566.728 38.7793Z" fill="white"/>
</g>
</g>
</g>
<g clip-path="url(#clip3_4049_813)">
<rect x="1008" y="49.8193" width="427" height="111.984" rx="9.03101" transform="rotate(-6.16 1008 49.8193)" fill="white" fill-opacity="0.6"/>
<rect x="1037.07" y="66.6643" width="72.2481" height="72.2481" rx="36.124" transform="rotate(-6.16 1037.07 66.6643)" fill="#F1E4D3"/>
<path d="M1093.64 113.924L1093.24 110.182C1093.02 108.198 1092.03 106.38 1090.47 105.128C1088.92 103.876 1086.93 103.293 1084.95 103.507L1069.98 105.123C1068 105.337 1066.18 106.331 1064.93 107.885C1063.68 109.44 1063.09 111.428 1063.31 113.413L1063.71 117.154" fill="#46CE7A" stroke="#46CE7A" stroke-width="3.38663" stroke-linecap="round" stroke-linejoin="round"/>
<path d="M1076.65 96.833C1080.78 96.387 1083.77 92.6755 1083.33 88.543C1082.88 84.4106 1079.17 81.4222 1075.04 81.8682C1070.9 82.3142 1067.92 86.0258 1068.36 90.1582C1068.81 94.2906 1072.52 97.279 1076.65 96.833Z" fill="#46CE7A" stroke="#46CE7A" stroke-width="3.38663" stroke-linecap="round" stroke-linejoin="round"/>
<rect x="1136.73" y="55.9075" width="72.2481" height="72.2481" rx="36.124" transform="rotate(-6.16 1136.73 55.9075)" fill="#F1E4D3"/>
<path d="M1188.94 71.5056L1160.88 74.534C1158.81 74.757 1157.32 76.6127 1157.54 78.6789L1160.17 102.997C1160.39 105.063 1162.24 106.557 1164.31 106.334L1192.37 103.306C1194.44 103.083 1195.93 101.227 1195.71 99.1607L1193.08 74.843C1192.86 72.7768 1191 71.2826 1188.94 71.5056Z" fill="#46CE7A"/>
<path d="M1168.12 71.8599L1166.29 72.0577C1165.77 72.1135 1165.4 72.5774 1165.46 73.094L1165.86 76.8352C1165.92 77.3517 1166.38 77.7253 1166.9 77.6695L1168.73 77.4717C1169.25 77.4159 1169.62 76.952 1169.56 76.4354L1169.16 72.6942C1169.1 72.1777 1168.64 71.8041 1168.12 71.8599Z" fill="#198A56"/>
<path d="M1169.92 83.9295L1167.11 84.2323C1166.6 84.2881 1166.22 84.752 1166.28 85.2686L1166.58 88.0744C1166.64 88.5909 1167.1 88.9645 1167.62 88.9088L1170.43 88.606C1170.94 88.5502 1171.32 88.0862 1171.26 87.5697L1170.96 84.7638C1170.9 84.2473 1170.44 83.8737 1169.92 83.9295Z" fill="#198A56"/>
<path d="M1177.42 83.1201L1174.61 83.423C1174.09 83.4787 1173.72 83.9427 1173.78 84.4592L1174.08 87.2651C1174.14 87.7816 1174.6 88.1552 1175.12 88.0995L1177.92 87.7966C1178.44 87.7409 1178.81 87.2769 1178.76 86.7604L1178.45 83.9545C1178.4 83.438 1177.93 83.0644 1177.42 83.1201Z" fill="#198A56"/>
<path d="M1184.92 82.3103L1182.11 82.6132C1181.6 82.6689 1181.22 83.1329 1181.28 83.6494L1181.58 86.4553C1181.64 86.9718 1182.1 87.3454 1182.62 87.2897L1185.43 86.9868C1185.94 86.9311 1186.32 86.467 1186.26 85.9506L1185.96 83.1447C1185.9 82.6281 1185.44 82.2546 1184.92 82.3103Z" fill="#198A56"/>
<path d="M1183.13 70.2404L1181.26 70.4423C1180.74 70.498 1180.37 70.962 1180.42 71.4785L1180.83 75.2197C1180.88 75.7363 1181.34 76.1098 1181.86 76.0541L1183.73 75.8522C1184.25 75.7964 1184.62 75.3325 1184.57 74.8159L1184.16 71.0747C1184.11 70.5582 1183.64 70.1846 1183.13 70.2404Z" fill="#198A56"/>
<path d="M1170.83 92.347L1168.03 92.6498C1167.51 92.7055 1167.14 93.1696 1167.19 93.686L1167.49 96.4919C1167.55 97.0084 1168.01 97.382 1168.53 97.3263L1171.34 97.0234C1171.85 96.9677 1172.23 96.5037 1172.17 95.9872L1171.87 93.1813C1171.81 92.6648 1171.35 92.2912 1170.83 92.347Z" fill="#198A56"/>
<path d="M1178.33 91.5379L1175.52 91.8407C1175 91.8964 1174.63 92.3605 1174.69 92.8769L1174.99 95.6828C1175.05 96.1993 1175.51 96.5729 1176.03 96.5172L1178.83 96.2144C1179.35 96.1586 1179.72 95.6946 1179.67 95.1781L1179.36 92.3722C1179.31 91.8558 1178.84 91.4821 1178.33 91.5379Z" fill="#198A56"/>
<path d="M1185.83 90.7281L1183.03 91.0309C1182.51 91.0867 1182.14 91.5507 1182.19 92.0671L1182.49 94.873C1182.55 95.3895 1183.01 95.7631 1183.53 95.7074L1186.34 95.4045C1186.85 95.3488 1187.23 94.8848 1187.17 94.3683L1186.87 91.5624C1186.81 91.0459 1186.35 90.6723 1185.83 90.7281Z" fill="#198A56"/>
<rect x="1236.4" y="45.1509" width="72.2481" height="72.2481" rx="36.124" transform="rotate(-6.16 1236.4 45.1509)" fill="#F1E4D3"/>
<path d="M1271.69 59.1692L1256.75 75.9208C1256.58 76.1069 1256.46 76.3237 1256.38 76.5589C1256.3 76.7944 1256.26 77.0432 1256.28 77.2912C1256.3 77.5395 1256.36 77.7818 1256.47 78.0046C1256.58 78.2275 1256.74 78.4261 1256.92 78.5892L1257.24 78.8582C1257.61 79.1856 1258.1 79.3514 1258.6 79.319C1259.09 79.2868 1259.56 79.0591 1259.89 78.6858L1273.38 63.4152C1273.69 63.0679 1274.11 62.848 1274.58 62.798C1275.04 62.748 1275.51 62.8715 1275.88 63.1447L1292.32 75.185C1292.72 75.4795 1293.22 75.603 1293.72 75.5285C1294.21 75.4542 1294.65 75.1879 1294.95 74.7881L1295.2 74.4585C1295.34 74.2579 1295.45 74.0303 1295.51 73.7886C1295.57 73.5468 1295.58 73.2959 1295.54 73.0501C1295.5 72.8045 1295.41 72.5689 1295.28 72.3572C1295.15 72.1453 1294.98 71.9615 1294.78 71.8164L1276.61 58.6382C1275.86 58.1171 1274.95 57.8837 1274.05 57.9813C1273.14 58.079 1272.31 58.501 1271.69 59.1692Z" fill="#198A56"/>
<path d="M1293.02 75.3753L1295.04 94.0811L1283.82 95.2926L1282.61 84.0687C1282.5 83.0357 1281.57 82.2892 1280.53 82.4005L1273.05 83.2081C1272.02 83.3198 1271.27 84.247 1271.38 85.28L1272.6 96.5038L1261.37 97.7151L1259.35 79.0093L1274.57 62.2275L1293.02 75.3753Z" fill="#46CE7A"/>
<rect x="1336.06" y="34.394" width="72.2481" height="72.2481" rx="36.124" transform="rotate(-6.16 1336.06 34.394)" fill="#F1E4D3"/>
<path d="M1370.09 48.1311L1377.58 47.3236C1378.07 47.27 1378.57 47.4157 1378.96 47.7287C1379.35 48.0416 1379.59 48.4961 1379.65 48.9923L1380.05 52.7335L1368.83 53.9448L1368.42 50.2036C1368.37 49.7075 1368.52 49.2104 1368.83 48.8218C1369.14 48.4331 1369.6 48.1847 1370.09 48.1311Z" fill="#46CE7A"/>
<path d="M1357.13 62.2844L1360.17 55.4007C1360.37 54.9443 1360.74 54.5867 1361.21 54.4066C1361.67 54.2264 1362.19 54.2386 1362.65 54.4403L1366.09 55.9612L1361.53 66.2868L1358.09 64.7659C1357.63 64.5641 1357.27 64.1894 1357.09 63.724C1356.91 63.2587 1356.92 62.7409 1357.13 62.2844Z" fill="#46CE7A"/>
<path d="M1362.89 80.5882L1358.45 74.5121C1358.15 74.1093 1358.03 73.6059 1358.11 73.1128C1358.18 72.6197 1358.45 72.1773 1358.86 71.8829L1361.89 69.6627L1368.55 78.777L1365.52 80.9973C1365.11 81.2917 1364.61 81.4139 1364.12 81.3371C1363.62 81.2605 1363.18 80.9911 1362.89 80.5882Z" fill="#46CE7A"/>
<path d="M1381.6 84.7374L1374.11 85.5449C1373.62 85.5985 1373.12 85.4526 1372.73 85.1398C1372.34 84.8269 1372.09 84.3723 1372.04 83.8762L1371.64 80.135L1382.86 78.9237L1383.26 82.6649C1383.32 83.1609 1383.17 83.6581 1382.86 84.0467C1382.55 84.4353 1382.09 84.6838 1381.6 84.7374Z" fill="#46CE7A"/>
<path d="M1394.58 70.6126L1391.53 77.4964C1391.33 77.9528 1390.96 78.3104 1390.49 78.4904C1390.03 78.6707 1389.51 78.6584 1389.05 78.4568L1385.61 76.9359L1390.17 66.6104L1393.62 68.1313C1394.07 68.333 1394.43 68.7077 1394.61 69.1731C1394.79 69.6383 1394.78 70.1562 1394.58 70.6126Z" fill="#46CE7A"/>
<path d="M1388.81 52.3088L1393.25 58.385C1393.55 58.7879 1393.67 59.2912 1393.59 59.7843C1393.52 60.2774 1393.25 60.7197 1392.85 61.0141L1389.81 63.2344L1383.15 54.1202L1386.19 51.8999C1386.59 51.6055 1387.09 51.4832 1387.58 51.5599C1388.08 51.6366 1388.52 51.9059 1388.81 52.3088Z" fill="#46CE7A"/>
<path d="M1374.29 51.9359C1382.3 51.0717 1389.49 56.8616 1390.36 64.868C1391.22 72.8745 1385.43 80.0655 1377.42 80.9296C1369.42 81.7935 1362.23 76.0037 1361.36 67.9974C1360.5 59.991 1366.29 52.8002 1374.29 51.9359ZM1375.35 61.7567C1372.77 62.0354 1370.9 64.3548 1371.18 66.9374C1371.46 69.5201 1373.78 71.3883 1376.36 71.1096C1378.95 70.8306 1380.81 68.5105 1380.54 65.928C1380.26 63.3455 1377.94 61.4782 1375.35 61.7567Z" fill="#46CE7A"/>
</g>
<g clip-path="url(#clip4_4049_813)">
<path d="M1.13501 62.6454C0.508163 57.6973 4.01126 53.1779 8.9594 52.551L414.82 1.13494C419.768 0.508086 424.288 4.01118 424.915 8.95933L436.719 102.137C437.346 107.085 433.843 111.605 428.894 112.231L23.0336 163.648C18.0854 164.274 13.566 160.771 12.9391 155.823L1.13501 62.6454Z" fill="white" fill-opacity="0.6"/>
<g clip-path="url(#clip5_4049_813)">
<rect width="164.29" height="127.337" transform="translate(-4.93359 50.6699) rotate(-7.22)" fill="#EAE3F1"/>
<circle cx="6.70631" cy="19.476" r="13.3038" transform="rotate(-7.22 6.70631 19.476)" fill="#D5C7E3"/>
<circle cx="11.1712" cy="54.7165" r="13.3038" transform="rotate(-7.22 11.1712 54.7165)" fill="#D5C7E3"/>
<circle cx="46.4133" cy="50.2519" r="13.3038" transform="rotate(-7.22 46.4133 50.2519)" fill="#D5C7E3"/>
<circle cx="81.6516" cy="45.7876" r="13.3038" transform="rotate(-7.22 81.6516 45.7876)" fill="#D5C7E3"/>
<circle cx="116.894" cy="41.3232" r="13.3038" transform="rotate(-7.22 116.894 41.3232)" fill="#D5C7E3"/>
<circle cx="152.132" cy="36.8589" r="13.3038" transform="rotate(-7.22 152.132 36.8589)" fill="#D5C7E3"/>
<circle cx="187.374" cy="32.3945" r="13.3038" transform="rotate(-7.22 187.374 32.3945)" fill="#D5C7E3"/>
<circle cx="15.636" cy="89.957" r="13.3038" transform="rotate(-7.22 15.636 89.957)" fill="#D5C7E3"/>
<circle cx="50.8743" cy="85.4926" r="13.3038" transform="rotate(-7.22 50.8743 85.4926)" fill="#D5C7E3"/>
<circle cx="86.1165" cy="81.028" r="13.3038" transform="rotate(-7.22 86.1165 81.028)" fill="#D5C7E3"/>
<circle cx="121.359" cy="76.5637" r="13.3038" transform="rotate(-7.22 121.359 76.5637)" fill="#D5C7E3"/>
<circle cx="156.597" cy="72.0993" r="13.3038" transform="rotate(-7.22 156.597 72.0993)" fill="#D5C7E3"/>
<circle cx="20.1008" cy="125.197" r="13.3038" transform="rotate(-7.22 20.1008 125.197)" fill="#D5C7E3"/>
<circle cx="55.3391" cy="120.733" r="13.3038" transform="rotate(-7.22 55.3391 120.733)" fill="#D5C7E3"/>
<circle cx="90.5813" cy="116.269" r="13.3038" transform="rotate(-7.22 90.5813 116.269)" fill="#D5C7E3"/>
<circle cx="125.824" cy="111.804" r="13.3038" transform="rotate(-7.22 125.824 111.804)" fill="#D5C7E3"/>
<circle cx="161.062" cy="107.34" r="13.3038" transform="rotate(-7.22 161.062 107.34)" fill="#D5C7E3"/>
<circle cx="-10.6765" cy="164.902" r="13.3038" transform="rotate(-7.22 -10.6765 164.902)" fill="#D5C7E3"/>
<circle cx="24.5657" cy="160.438" r="13.3038" transform="rotate(-7.22 24.5657 160.438)" fill="#D5C7E3"/>
<circle cx="59.804" cy="155.974" r="13.3038" transform="rotate(-7.22 59.804 155.974)" fill="#D5C7E3"/>
<circle cx="95.0462" cy="151.509" r="13.3038" transform="rotate(-7.22 95.0462 151.509)" fill="#D5C7E3"/>
<circle cx="130.284" cy="147.045" r="13.3038" transform="rotate(-7.22 130.284 147.045)" fill="#D5C7E3"/>
<circle cx="165.527" cy="142.58" r="13.3038" transform="rotate(-7.22 165.527 142.58)" fill="#D5C7E3"/>
<circle cx="169.991" cy="177.821" r="13.3038" transform="rotate(-7.22 169.991 177.821)" fill="#D5C7E3"/>
</g>
<rect x="184.422" y="79.4802" width="221.976" height="14.4496" rx="3.6124" transform="rotate(-7.22 184.422 79.4802)" fill="#F1E4D3"/>
<rect x="181.703" y="57.9775" width="80.6455" height="14.4496" rx="3.6124" transform="rotate(-7.22 181.703 57.9775)" fill="#F1E4D3"/>
<rect x="187.148" y="100.982" width="223.066" height="14.4496" rx="3.6124" transform="rotate(-7.22 187.148 100.982)" fill="#F1E4D3"/>
</g>
<defs>
<clipPath id="clip0_4049_813">
<rect x="515.855" y="4" width="427.167" height="111.984" rx="9.03101" transform="rotate(6.07794 515.855 4)" fill="white"/>
</clipPath>
<clipPath id="clip1_4049_813">
<rect x="508" y="30.6992" width="72.2481" height="72.2481" rx="36.124" transform="rotate(-15 508 30.6992)" fill="white"/>
</clipPath>
<clipPath id="clip2_4049_813">
<rect width="50.2595" height="50.2595" fill="white" transform="translate(522.074 40.7485) rotate(-15)"/>
</clipPath>
<clipPath id="clip3_4049_813">
<rect x="1008" y="49.8193" width="427" height="111.984" rx="9.03101" transform="rotate(-6.16 1008 49.8193)" fill="white"/>
</clipPath>
<clipPath id="clip4_4049_813">
<path d="M1.13501 62.6454C0.508163 57.6973 4.01126 53.1779 8.9594 52.551L414.82 1.13494C419.768 0.508086 424.288 4.01118 424.915 8.95933L436.719 102.137C437.346 107.085 433.843 111.605 428.894 112.231L23.0336 163.648C18.0854 164.274 13.566 160.771 12.9391 155.823L1.13501 62.6454Z" fill="white"/>
</clipPath>
<clipPath id="clip5_4049_813">
<rect width="164.29" height="127.337" fill="white" transform="translate(-4.93359 50.6699) rotate(-7.22)"/>
</clipPath>
</defs>
</svg>
