<svg width="1423" height="97" viewBox="0 0 1423 97" fill="none" xmlns="http://www.w3.org/2000/svg">
<rect x="1198.82" y="43.2554" width="216.744" height="54.186" rx="18.062" transform="rotate(-11.5117 1198.82 43.2554)" fill="#E1F48B"/>
<path d="M1266.91 48.2293L1274 46.786C1276.03 46.3722 1276.41 46.3212 1277.09 46.3883C1278.95 46.5255 1280.06 47.563 1280.46 49.5205C1280.75 50.9329 1280.5 52.2231 1279.73 53.1284C1279.14 53.7901 1278.57 54.1392 1277.21 54.5705C1279 54.3857 1279.84 54.4472 1280.6 54.8611C1281.44 55.3342 1282.01 56.2248 1282.27 57.4885C1282.61 59.1734 1282.17 60.8115 1281.15 61.7673C1280.33 62.5289 1279.44 62.8891 1277.19 63.3483L1270.28 64.7563L1266.91 48.2293ZM1271.83 51.0982L1272.44 54.0716L1274.57 53.6376C1275.98 53.3499 1276.57 52.6883 1276.35 51.6228C1276.14 50.6069 1275.52 50.3463 1274.08 50.639L1271.83 51.0982ZM1273.08 57.2432L1273.72 60.3652L1275.87 59.9262C1276.72 59.7546 1277.1 59.5995 1277.41 59.3554C1277.78 59.0466 1277.93 58.5006 1277.81 57.9307C1277.68 57.2617 1277.28 56.8019 1276.71 56.7097C1276.34 56.6316 1276.01 56.6477 1275.21 56.8092L1273.08 57.2432ZM1280.73 45.4151L1285.11 44.5219L1286.97 53.6154C1287.31 55.3251 1287.49 55.8055 1287.98 56.3245C1288.41 56.804 1289.2 57.0046 1289.97 56.8481C1290.94 56.6513 1291.63 55.9695 1291.77 55.1408C1291.85 54.5306 1291.81 54.2034 1291.5 52.6919L1289.65 43.5983L1294.03 42.7051L1295.89 51.7987C1296.43 54.4747 1296.49 54.8762 1296.4 55.6948C1296.14 58.3786 1294.09 60.3447 1290.84 61.0058C1288.37 61.5105 1286.1 61.0176 1284.75 59.6933C1283.69 58.6705 1283.2 57.5564 1282.63 54.7564L1280.73 45.4151ZM1294.53 42.6041L1307.89 39.884L1308.76 44.1707L1304.3 45.079L1306.79 57.3194L1302.41 58.2127L1299.91 45.9722L1295.4 46.8907L1294.53 42.6041ZM1308.06 39.849L1321.41 37.129L1322.29 41.4156L1317.83 42.324L1320.32 54.5644L1315.93 55.4576L1313.44 43.2172L1308.93 44.1357L1308.06 39.849ZM1328.89 35.1678C1333.99 34.1283 1336.75 36.1221 1337.88 41.6724C1338.52 44.844 1338.26 47.632 1337.12 49.4907C1336.17 51.0265 1334.46 52.1235 1332.23 52.5777C1327.42 53.5567 1324.17 50.915 1322.99 45.1169C1322.42 42.317 1322.61 39.9309 1323.54 38.3209C1324.42 36.8003 1326.26 35.7028 1328.89 35.1678ZM1329.76 39.6876C1327.63 40.1216 1326.86 41.8252 1327.47 44.7986C1328.1 47.9207 1329.47 49.2945 1331.55 48.8706C1332.74 48.6284 1333.46 47.9911 1333.75 46.899C1334.01 45.8914 1334.01 44.4731 1333.74 43.1351C1333.18 40.3847 1331.89 39.2536 1329.76 39.6876ZM1351.33 31.0353L1354.7 47.5623L1349.52 48.6171L1345.26 42.8C1343.98 40.9449 1342.93 39.198 1341.93 37.2079L1341.81 37.2331C1342.45 39.2443 1342.8 40.5672 1343.51 43.6741L1344.71 49.5961L1340.55 50.4439L1337.18 33.9168L1343.21 32.6906L1346.41 37.4054C1347.73 39.434 1349.05 41.899 1350.12 44.236L1350.27 44.2057C1349.15 40.7184 1348.54 38.6228 1348.12 36.5662L1347.17 31.8831L1351.33 31.0353Z" fill="#46CE7A"/>
<rect x="1020" y="28.8989" width="198.682" height="54.186" rx="18.062" fill="#46CE7A"/>
<path d="M1075.45 47.0949H1082.68C1084.76 47.0949 1085.14 47.1202 1085.79 47.3225C1087.59 47.8282 1088.47 49.0672 1088.47 51.0649C1088.47 52.5063 1087.97 53.72 1087.03 54.4533C1086.33 54.9844 1085.69 55.2119 1084.28 55.3637C1086.07 55.5407 1086.88 55.7683 1087.54 56.3246C1088.27 56.9567 1088.65 57.9429 1088.65 59.2325C1088.65 60.952 1087.89 62.4693 1086.7 63.2026C1085.74 63.7842 1084.81 63.9612 1082.51 63.9612H1075.45V47.0949ZM1079.7 50.8879V53.9223H1081.87C1083.32 53.9223 1084.02 53.3913 1084.02 52.304C1084.02 51.2672 1083.47 50.8879 1082 50.8879H1079.7ZM1079.7 57.159V60.3452H1081.9C1082.76 60.3452 1083.16 60.2693 1083.52 60.0923C1083.95 59.8647 1084.2 59.359 1084.2 58.7774C1084.2 58.0946 1083.9 57.5636 1083.37 57.3613C1083.01 57.2096 1082.68 57.159 1081.87 57.159H1079.7ZM1089.55 47.0949H1094.03V56.3751C1094.03 58.1199 1094.1 58.6257 1094.48 59.2325C1094.81 59.7889 1095.55 60.1429 1096.33 60.1429C1097.32 60.1429 1098.13 59.6118 1098.43 58.828C1098.63 58.2464 1098.66 57.9176 1098.66 56.3751V47.0949H1103.13V56.3751C1103.13 59.1061 1103.11 59.5107 1102.85 60.2946C1102.07 62.8738 1099.67 64.3911 1096.36 64.3911C1093.83 64.3911 1091.7 63.4554 1090.64 61.8877C1089.81 60.6739 1089.55 59.4854 1089.55 56.628V47.0949ZM1103.64 47.0949H1117.27V51.4695H1112.72V63.9612H1108.24V51.4695H1103.64V47.0949ZM1117.44 47.0949H1131.07V51.4695H1126.52V63.9612H1122.05V51.4695H1117.44V47.0949ZM1138.79 46.665C1144 46.665 1146.3 49.1684 1146.3 54.8326C1146.3 58.0694 1145.49 60.7498 1144 62.3428C1142.76 63.6577 1140.86 64.3911 1138.59 64.3911C1133.68 64.3911 1131.03 61.1543 1131.03 55.2372C1131.03 52.3798 1131.68 50.0787 1132.92 48.6879C1134.09 47.373 1136.11 46.665 1138.79 46.665ZM1138.74 51.2672C1136.56 51.2672 1135.48 52.7844 1135.48 55.8188C1135.48 59.005 1136.54 60.6233 1138.66 60.6233C1139.88 60.6233 1140.71 60.1429 1141.22 59.1314C1141.67 58.1958 1141.95 56.805 1141.95 55.4395C1141.95 52.6327 1140.91 51.2672 1138.74 51.2672ZM1161.61 47.0949V63.9612H1156.32L1153.31 57.4119C1152.43 55.3384 1151.75 53.4166 1151.16 51.2672H1151.04C1151.27 53.366 1151.34 54.7315 1151.42 57.9176V63.9612H1147.17V47.0949H1153.31L1155.51 52.3545C1156.4 54.6051 1157.21 57.2855 1157.79 59.7889H1157.94C1157.54 56.1476 1157.36 53.9729 1157.36 51.8741V47.0949H1161.61Z" fill="#E1F48B"/>
<g clip-path="url(#clip0_4049_859)">
<rect x="505" y="29" width="427" height="55" rx="9.03101" fill="white"/>
<rect x="546.543" y="21.7754" width="41.5426" height="112.888" fill="#DEDEDE"/>
<rect x="597.117" y="21.7754" width="41.5426" height="112.888" fill="#DEDEDE"/>
<rect x="647.691" y="21.7754" width="41.5426" height="112.888" fill="#DEDEDE"/>
<rect x="698.266" y="21.7754" width="41.5426" height="112.888" fill="#DEDEDE"/>
<rect x="748.836" y="21.7754" width="41.5426" height="112.888" fill="#DEDEDE"/>
<rect x="799.41" y="21.7754" width="41.5426" height="112.888" fill="#DEDEDE"/>
<rect x="849.984" y="21.7754" width="41.5426" height="112.888" fill="#DEDEDE"/>
</g>
<g clip-path="url(#clip1_4049_859)">
<rect y="29" width="427" height="54" rx="9.03101" fill="white"/>
<path d="M-2.58924 66.9684L-4.88492 75.0312H-14.6836L-3.87706 37.6844H10.9609L21.7114 75.0312H11.6328L9.39311 66.9684H-2.58924ZM7.32139 58.2896L3.34594 44.2355L-0.573515 58.2896H7.32139ZM22.4962 37.6844H38.51C43.1013 37.6844 43.9412 37.7404 45.397 38.1883C49.3724 39.3082 51.3322 42.0518 51.3322 46.4752C51.3322 49.6668 50.2123 52.3544 48.1406 53.9782C46.5728 55.154 45.173 55.6579 42.0375 55.9939C46.0129 56.3858 47.8047 56.8898 49.2605 58.1216C50.8842 59.5214 51.7241 61.7051 51.7241 64.5607C51.7241 68.3682 50.0444 71.7277 47.4127 73.3515C45.285 74.6393 43.2133 75.0312 38.118 75.0312H22.4962V37.6844ZM31.9029 46.0833V52.8023H36.7182C39.9098 52.8023 41.4775 51.6265 41.4775 49.2188C41.4775 46.9231 40.2457 46.0833 36.9982 46.0833H31.9029ZM31.9029 59.9693V67.0244H36.7742C38.6779 67.0244 39.5738 66.8564 40.3577 66.4644C41.3096 65.9605 41.8695 64.8407 41.8695 63.5528C41.8695 62.041 41.1976 60.8652 40.0217 60.4173C39.2379 60.0813 38.51 59.9693 36.7182 59.9693H31.9029ZM80.3195 41.4919V52.5224H79.8716C78.2478 49.1068 74.6643 46.9231 70.5769 46.9231C68.2252 46.9231 66.0975 47.763 64.5297 49.3308C62.794 51.0666 61.9541 53.5862 61.9541 57.0577C61.9541 63.8328 65.0337 67.6403 70.5209 67.6403C74.7763 67.6403 77.7999 65.6246 79.8716 61.3131H80.3195V70.9438C76.3441 74.5833 73.0405 75.9831 68.1692 75.9831C58.1466 75.9831 52.0435 68.2562 52.0435 55.5459C52.0435 48.8269 53.7232 43.8996 56.9708 40.82C59.8824 38.1324 63.8578 36.7326 68.5052 36.7326C73.4325 36.7326 76.68 38.0204 80.3195 41.4919ZM82.7031 37.6844H96.8692C101.013 37.6844 101.013 37.6844 102.524 37.9084C106.948 38.5243 109.803 40.3161 111.763 43.4516C113.499 46.3072 114.451 50.2827 114.451 54.5941C114.451 62.8249 111.371 69.768 106.332 72.6236C103.42 74.3034 100.117 75.0312 95.2454 75.0312H82.7031V37.6844ZM92.6138 47.0351V66.3525H95.3014C98.6609 66.3525 100.341 65.9045 101.908 64.5607C103.644 63.0489 104.596 59.8573 104.596 55.6579C104.596 49.6108 102.412 47.0351 97.2051 47.0351H92.6138ZM116.169 37.6844H141.59V47.0351H125.576V52.2424H141.422V60.9212H125.576V66.3525H141.59V75.0312H116.169V37.6844ZM144.715 37.6844H170.079V47.0351H154.625V52.9143H169.911V61.5931H154.625V75.0312H144.715V37.6844ZM201.229 56.0499V68.2002C201.005 68.3682 200.949 68.4802 200.781 68.6481C200.669 68.7601 200.669 68.8161 200.109 69.768C197.925 73.5195 192.83 75.9831 187.231 75.9831C177.096 75.9831 170.545 68.0322 170.545 55.6579C170.545 43.8436 177.04 36.7326 187.959 36.7326C192.998 36.7326 195.965 37.8524 199.941 41.3799V52.0744H199.493C197.029 48.267 193.782 46.4752 189.302 46.4752C183.367 46.4752 179.952 50.3387 179.952 57.0017C179.952 63.9448 182.863 67.9762 187.903 67.9762C189.694 67.9762 190.814 67.5843 191.822 66.6324V56.0499H201.229ZM213.41 50.8426H224.497V37.6844H234.408V75.0312H224.497V60.7532H213.41V75.0312H203.5V37.6844H213.41V50.8426ZM237.786 37.6844H247.697V75.0312H237.786V37.6844ZM259.821 37.6844H269.732V58.6255C269.732 65.4006 269.732 65.6246 269.452 67.1363C268.892 70.6079 267.436 72.7916 264.804 74.3034C262.957 75.3672 260.437 75.9831 257.917 75.9831C253.942 75.9831 251.366 75.1432 248.567 72.9595C248.623 71.5597 248.679 70.2159 248.679 69.712C248.679 68.4242 248.623 67.3043 248.567 65.3446C250.526 67.4163 252.262 68.2562 254.502 68.2562C256.518 68.2562 258.309 67.3603 259.093 65.9605C259.765 64.8967 259.821 64.1128 259.821 59.0735V37.6844ZM273.005 37.6844H282.915V53.5302C283.587 52.1864 283.867 51.6265 284.315 50.9546L292.266 37.6844H304.192L291.818 56.3858L304.584 75.0312H292.658L283.811 60.4733C283.531 59.9693 283.251 59.4654 282.635 58.0656L282.915 75.0312H273.005V37.6844ZM315.179 65.6805H327.945V75.0312H305.268V37.6844H315.179V65.6805ZM369.262 37.6844V75.0312H359.856V55.8819C359.912 52.9703 360.024 49.6668 360.192 45.9713H359.856C358.008 57.3377 357.952 57.7856 356.888 62.097L353.528 75.0312H344.178L340.93 62.433C339.922 58.5695 339.642 56.8338 339.194 53.5302L338.243 45.6353H337.851C338.075 48.9949 338.299 53.8102 338.299 56.2738V75.0312H328.892V37.6844H343.786L347.033 52.8583C347.985 57.8416 348.489 61.8171 348.881 67.3603H349.217C349.665 61.5371 350.169 57.5057 351.065 52.6344L354.144 37.6844H369.262ZM404.61 37.6844V75.0312H392.907L386.244 60.5293C384.284 55.9379 382.773 51.6825 381.485 46.9231H381.205C381.709 51.5705 381.877 54.5941 382.045 61.6491V75.0312H372.638V37.6844H386.244L391.115 49.3308C393.075 54.3141 394.867 60.2493 396.155 65.7925H396.491C395.595 57.7296 395.203 52.9143 395.203 48.267V37.6844H404.61ZM423.641 36.7326C435.176 36.7326 440.271 42.2758 440.271 54.818C440.271 61.9851 438.479 67.9202 435.176 71.4477C432.432 74.3593 428.233 75.9831 423.193 75.9831C412.331 75.9831 406.452 68.8161 406.452 55.7139C406.452 49.3868 407.907 44.2915 410.651 41.2119C413.227 38.3003 417.706 36.7326 423.641 36.7326ZM423.529 46.9231C418.714 46.9231 416.306 50.2827 416.306 57.0017C416.306 64.0568 418.658 67.6403 423.361 67.6403C426.049 67.6403 427.897 66.5764 429.017 64.3367C430.024 62.265 430.64 59.1854 430.64 56.1619C430.64 49.9467 428.345 46.9231 423.529 46.9231Z" fill="#D5C7E3"/>
</g>
<defs>
<clipPath id="clip0_4049_859">
<rect x="505" y="29" width="427" height="55" rx="9.03101" fill="white"/>
</clipPath>
<clipPath id="clip1_4049_859">
<rect y="29" width="427" height="54" rx="9.03101" fill="white"/>
</clipPath>
</defs>
</svg>
