<svg width="400" height="380" viewBox="0 0 400 380" fill="none" xmlns="http://www.w3.org/2000/svg">
<g clip-path="url(#clip0_4489_2050)">
<g clip-path="url(#clip1_4489_2050)">
<g filter="url(#filter0_f_4489_2050)">
<ellipse cx="221.782" cy="212.974" rx="116.219" ry="46.3959" fill="#DF4B8F"/>
</g>
</g>
<rect x="-1.83746" y="1.83746" width="198.646" height="117.129" rx="7.98397" transform="matrix(-1 0 0 1 274.809 253.68)" fill="white"/>
<rect x="-1.83746" y="1.83746" width="198.646" height="117.129" rx="7.98397" transform="matrix(-1 0 0 1 274.809 253.68)" stroke="#222222" stroke-width="3.67492"/>
<rect width="163.036" height="19.6429" rx="3.92857" transform="matrix(-1 0 0 1 258.832 269.395)" fill="#222222"/>
<rect width="79.5536" height="66.7857" rx="3.92857" transform="matrix(-1 0 0 1 258.832 292.965)" fill="#222222"/>
<rect width="79.5536" height="19.6429" rx="3.92857" transform="matrix(-1 0 0 1 175.352 292.965)" fill="#222222"/>
<rect width="79.5536" height="19.6429" rx="3.92857" transform="matrix(-1 0 0 1 175.352 316.537)" fill="#222222"/>
<rect width="79.5536" height="19.6429" rx="3.92857" transform="matrix(-1 0 0 1 175.352 340.108)" fill="#222222"/>
<path d="M87.6484 217.108H354.08" stroke="#DB4489" stroke-width="3.67492" stroke-linecap="round"/>
<path d="M243.333 92.2969H267.395V105.155H243.333V92.2969Z" fill="white"/>
<path d="M243.336 108.366H267.397C268.422 108.366 269.254 107.534 269.254 106.509V92.2969C269.254 91.2721 268.422 90.4404 267.397 90.4404H243.336C242.311 90.4404 241.48 91.2721 241.48 92.2969V106.509C241.48 107.534 242.311 108.366 243.336 108.366ZM265.541 104.653H245.193V94.1521H265.541V104.653Z" fill="#222222"/>
<path d="M232.997 87.8635C220.896 75.7616 220.896 56.1407 232.997 44.0389C245.099 31.937 264.72 31.937 276.822 44.0389C288.924 56.1407 288.924 75.7616 276.822 87.8635C264.72 99.9653 245.099 99.9653 232.997 87.8635Z" fill="white"/>
<path d="M254.908 98.7952C256.555 98.7952 258.213 98.6712 259.835 98.4274C260.848 98.2754 261.548 97.3292 261.394 96.315C261.241 95.3008 260.287 94.6011 259.282 94.7557C257.844 94.9729 256.371 95.0822 254.908 95.0822C238.843 95.0822 225.775 82.0134 225.775 65.9487C225.775 49.8839 238.843 36.8165 254.908 36.8165C263.158 36.8165 271.055 40.3376 276.576 46.4748C277.262 47.2385 278.435 47.3011 279.197 46.6147C279.959 45.9297 280.022 44.7556 279.337 43.9933C273.113 37.0724 264.209 33.1035 254.908 33.1035C236.796 33.1035 222.062 47.8369 222.062 65.9487C222.062 84.0605 236.796 98.7952 254.908 98.7952Z" fill="#222222"/>
<path d="M239.193 74.4482C239.561 74.4482 239.934 74.339 240.258 74.1111C243.347 71.9427 245.191 68.3963 245.191 64.626C245.191 58.2409 239.996 53.0459 233.61 53.0459C228.132 53.0459 223.361 56.9348 222.264 62.2937C222.059 63.2986 222.706 64.2782 223.71 64.4847C224.723 64.6926 225.696 64.0423 225.901 63.0387C226.646 59.399 229.889 56.7576 233.61 56.7576C237.949 56.7576 241.478 60.2866 241.478 64.6247C241.478 67.1862 240.224 69.5971 238.124 71.0711C237.286 71.6602 237.083 72.8183 237.672 73.6566C238.033 74.171 238.609 74.4456 239.193 74.4456V74.4482Z" fill="#222222"/>
<path d="M235.517 65.5279C234.044 65.5279 232.85 64.334 232.85 62.8611C232.85 61.3883 234.044 60.1943 235.517 60.1943C236.99 60.1943 238.184 61.3883 238.184 62.8611C238.184 64.334 236.99 65.5279 235.517 65.5279Z" fill="#222222"/>
<path d="M249.579 64.4752C248.106 64.4752 246.913 63.2812 246.913 61.8084C246.913 60.3356 248.106 59.1416 249.579 59.1416C251.052 59.1416 252.246 60.3356 252.246 61.8084C252.246 63.2812 251.052 64.4752 249.579 64.4752Z" fill="#222222"/>
<path d="M241.147 84.5277C243.866 84.5277 246.586 83.5548 248.589 81.633C249.329 80.924 249.353 79.7485 248.644 79.0075C247.933 78.2678 246.758 78.2438 246.018 78.9529C243.578 81.2958 239.312 81.4504 236.708 79.2887C235.918 78.6357 234.749 78.7436 234.094 79.5313C233.44 80.3202 233.549 81.4904 234.337 82.1448C236.257 83.7374 238.702 84.525 241.147 84.525V84.5277Z" fill="#222222"/>
<path d="M229.299 52.6414C222.767 52.4864 217.597 47.0654 217.752 40.5333C217.907 34.0013 223.328 28.8317 229.86 28.9868C236.392 29.1419 241.562 34.5629 241.407 41.0949C241.252 47.627 235.831 52.7965 229.299 52.6414Z" fill="#222222"/>
<path d="M234.671 31.5045C233.276 22.5249 239.425 14.1148 248.404 12.7199C257.384 11.3249 265.794 17.4735 267.189 26.453C268.584 35.4326 262.435 43.8427 253.456 45.2376C244.476 46.6326 236.066 40.484 234.671 31.5045Z" fill="#222222"/>
<path d="M262.458 47.05C257.213 41.8043 257.213 33.2992 262.458 28.0535C267.704 22.8077 276.209 22.8077 281.455 28.0535C286.701 33.2992 286.701 41.8043 281.455 47.05C276.209 52.2958 267.704 52.2958 262.458 47.05Z" fill="#222222"/>
<path d="M272.324 57.2018C270.611 49.9443 275.106 42.6724 282.363 40.9595C289.621 39.2465 296.893 43.7413 298.606 50.9988C300.318 58.2563 295.824 65.5282 288.566 67.2412C281.309 68.9541 274.037 64.4593 272.324 57.2018Z" fill="#222222"/>
<path d="M254.437 55.1247C252.724 47.8672 257.219 40.5952 264.476 38.8823C271.734 37.1694 279.006 41.6642 280.719 48.9216C282.432 56.1791 277.937 63.4511 270.679 65.164C263.422 66.8769 256.15 62.3822 254.437 55.1247Z" fill="#222222"/>
<path d="M285.39 90.6324C277.616 90.6324 271.315 84.3308 271.315 76.5574C271.315 68.784 277.616 62.4824 285.39 62.4824C293.163 62.4824 299.465 68.784 299.465 76.5574C299.465 84.3308 293.163 90.6324 285.39 90.6324Z" fill="#222222"/>
<path d="M261.037 89.4833C259.703 83.8319 263.203 78.1692 268.855 76.8354C274.506 75.5015 280.169 79.0016 281.503 84.653C282.837 90.3044 279.337 95.967 273.685 97.3009C268.034 98.6347 262.371 95.1347 261.037 89.4833Z" fill="#222222"/>
<path d="M271.268 77.489C265.97 77.489 261.676 73.1947 261.676 67.8973C261.676 62.6 265.97 58.3057 271.268 58.3057C276.565 58.3057 280.859 62.6 280.859 67.8973C280.859 73.1947 276.565 77.489 271.268 77.489Z" fill="white"/>
<path d="M268.921 73.0671C272.907 73.0671 276.848 70.3483 278.041 66.5021C278.345 65.5225 277.797 64.483 276.819 64.1791C275.842 63.8739 274.8 64.423 274.496 65.4012C273.684 68.012 270.62 69.8112 267.954 69.2568C266.946 69.0476 265.967 69.6926 265.759 70.6962C265.551 71.6997 266.194 72.6833 267.198 72.8912C267.768 73.0098 268.345 73.0671 268.923 73.0671H268.921Z" fill="#222222"/>
<path d="M306.213 103.702H213.141C194.277 103.702 178.986 118.994 178.986 137.857L178.987 215.271H340.371L340.37 137.857C340.37 118.994 325.078 103.702 306.215 103.702H306.213Z" fill="#C7C7C7"/>
<path d="M207.86 153.725C194.046 153.725 182.848 142.527 182.848 128.714C182.848 114.9 194.046 103.702 207.86 103.702C221.673 103.702 232.871 114.9 232.871 128.714C232.871 142.527 221.673 153.725 207.86 153.725Z" fill="#C7C7C7"/>
<path d="M186.827 115.159L229.117 141.884L153.381 261.733L111.091 235.008L186.827 115.159Z" fill="#C7C7C7"/>
<path d="M147.777 177.779L122.428 218.358C132.601 225.002 148.381 234.666 158.552 241.309C160.426 242.533 164.419 244.589 164.419 244.589C171.927 233.977 190.211 204.287 190.211 204.287L147.775 177.779H147.777Z" fill="white"/>
<path d="M161.632 231.173L169.229 254.982C170.267 258.237 173.747 260.033 177.001 258.995C180.256 257.957 182.053 254.477 181.014 251.222L173.418 227.413L161.634 231.173H161.632Z" fill="white"/>
<path d="M123.513 239.992L132.93 224.916L122.432 218.359L113.015 233.435C111.203 236.334 112.086 240.152 114.984 241.963C117.883 243.775 121.701 242.892 123.513 239.994V239.992Z" fill="white"/>
<path d="M132.471 249.011L143.426 231.473L132.928 224.915L121.973 242.452C120.162 245.351 121.044 249.169 123.943 250.981C126.841 252.792 130.66 251.91 132.471 249.011Z" fill="white"/>
<path d="M156.194 164.315L198.629 190.821L179.725 221.086L137.289 194.58L156.194 164.315Z" fill="#C7C7C7"/>
<path d="M141.524 257.873L153.918 238.032L143.42 231.475L131.026 251.316C129.214 254.215 130.097 258.033 132.995 259.844C135.894 261.656 139.712 260.773 141.524 257.875V257.873Z" fill="white"/>
<path d="M143.246 278.487L164.422 244.589L153.924 238.03L135.088 268.183C130.289 275.867 131.819 278.645 134.719 280.456C137.618 282.268 141.436 281.385 143.247 278.487H143.246Z" fill="white"/>
<path d="M138.051 283.267C139.637 283.267 141.693 282.806 143.608 280.972C143.675 280.91 144.296 280.307 144.82 279.472L164.895 247.493L167.443 255.478C167.925 257.452 170.094 261.057 175.043 261.144C175.098 261.144 175.153 261.144 175.206 261.144C180.144 261.144 182.419 257.15 182.936 255.016C182.98 254.861 183.496 252.882 182.785 250.657L176.243 230.151L214.523 168.871C215.065 168.002 214.801 166.856 213.932 166.313C213.063 165.77 211.919 166.035 211.375 166.904L172.64 228.913C172.351 229.376 172.281 229.942 172.446 230.462L179.249 251.785C179.625 252.962 179.343 254.084 179.34 254.096C179.243 254.47 178.382 257.431 175.202 257.431C175.171 257.431 175.141 257.431 175.11 257.431C171.843 257.374 171.113 254.841 171.04 254.554C171.029 254.516 171.013 254.455 171.001 254.419L167.216 242.556C166.996 241.867 166.398 241.369 165.681 241.278C164.967 241.184 164.26 241.522 163.875 242.132L141.672 277.5C141.393 277.947 141.041 278.291 141.037 278.295C139.077 280.173 136.952 279.442 136.717 279.353C136.642 279.325 136.542 279.292 136.465 279.274C136.439 279.266 134.969 278.827 133.967 276.817C133.038 274.954 134.248 273.027 134.3 272.947L143.102 258.858C143.644 257.989 143.38 256.843 142.511 256.301C141.642 255.758 140.498 256.022 139.954 256.891C138.525 259.179 136.351 258.916 136.327 258.91C136.205 258.894 136.084 258.889 135.961 258.897C135.748 258.925 133.639 258.909 132.429 256.585C131.187 254.196 132.465 252.494 132.477 252.478C132.524 252.421 132.565 252.362 132.604 252.3L134.044 249.994C134.587 249.125 134.323 247.979 133.454 247.437C132.585 246.894 131.439 247.158 130.897 248.027L130.89 248.039C130.113 249.273 129.039 249.676 128.992 249.693C128.96 249.705 128.897 249.729 128.865 249.742C128.575 249.86 125.846 250.879 123.842 248.447C121.866 246.045 123.32 243.772 123.492 243.52C123.507 243.499 123.533 243.459 123.547 243.436L124.853 241.345C124.943 241.209 125.033 241.068 125.118 240.92C125.623 240.043 125.334 238.922 124.466 238.399C123.597 237.878 122.471 238.149 121.935 239.007L121.745 239.312C120.969 240.444 119.851 240.757 119.8 240.772C119.748 240.785 119.666 240.81 119.615 240.829C119.339 240.924 116.704 241.743 114.816 239.34C112.879 236.879 114.508 234.536 114.524 234.513C114.545 234.483 114.568 234.451 114.588 234.419L177.136 134.29C177.678 133.422 177.414 132.275 176.545 131.733C175.676 131.191 174.532 131.454 173.988 132.325L111.467 232.41C110.338 234.035 109.02 237.978 111.898 241.638C114.092 244.426 117.071 244.921 119.194 244.694C118.934 246.509 119.252 248.711 120.98 250.807C123.177 253.478 126.06 253.943 128.218 253.693C128.071 254.987 128.236 256.562 129.14 258.298C131.246 262.346 135.041 262.609 135.99 262.609H136.02C136.11 262.615 136.232 262.622 136.378 262.625L131.178 270.949C131.106 271.055 128.751 274.668 130.65 278.476C132.275 281.735 134.808 282.659 135.475 282.853C135.825 282.977 136.791 283.271 138.057 283.271L138.051 283.267Z" fill="#222222"/>
<path d="M135.547 269.306C136.167 269.306 136.771 268.997 137.124 268.433L154.363 240.838C154.905 239.969 154.641 238.823 153.772 238.28C152.903 237.735 151.759 238.002 151.215 238.871L133.976 266.466C133.433 267.335 133.697 268.481 134.566 269.024C134.871 269.214 135.213 269.306 135.549 269.306H135.547Z" fill="#222222"/>
<path d="M132.47 250.868C133.089 250.868 133.694 250.559 134.046 249.995L142.542 236.392C143.085 235.523 142.821 234.377 141.952 233.834C141.083 233.29 139.936 233.556 139.394 234.425L130.898 248.028C130.356 248.897 130.62 250.043 131.489 250.585C131.794 250.777 132.135 250.868 132.471 250.868H132.47Z" fill="#222222"/>
<path d="M123.509 241.849C124.129 241.849 124.732 241.54 125.086 240.976L129.886 233.293C130.429 232.424 130.165 231.278 129.296 230.735C128.425 230.191 127.282 230.458 126.738 231.327L121.938 239.01C121.395 239.879 121.659 241.025 122.528 241.568C122.833 241.76 123.174 241.85 123.51 241.85L123.509 241.849Z" fill="#222222"/>
<path d="M308.399 153.725C294.585 153.725 283.387 142.527 283.387 128.714C283.387 114.9 294.585 103.702 308.399 103.702C322.212 103.702 333.41 114.9 333.41 128.714C333.41 142.527 322.212 153.725 308.399 153.725Z" fill="#C7C7C7"/>
<path d="M287.358 115.164L329.648 141.889L253.912 261.738L211.622 235.013L287.358 115.164Z" fill="#C7C7C7"/>
<path d="M286.465 209.816L260.706 250.137C250.337 243.803 234.833 233.704 224.464 227.371C222.554 226.205 218.982 223.481 218.982 223.481C225.34 212.142 244.3 182.879 244.3 182.879L286.464 209.815L286.465 209.816Z" fill="white"/>
<path d="M232.293 220.231L207.528 223.597C204.143 224.057 201.027 221.686 200.566 218.302C200.106 214.917 202.477 211.801 205.861 211.34L230.626 207.974L232.292 220.231H232.293Z" fill="white"/>
<path d="M240.705 258.451L250.276 243.471L260.707 250.134L251.137 265.114C249.296 267.994 245.47 268.838 242.59 266.997C239.71 265.157 238.866 261.331 240.707 258.451H240.705Z" fill="white"/>
<path d="M228.714 254.234L239.846 236.809L250.277 243.472L239.145 260.898C237.305 263.778 233.478 264.621 230.598 262.781C227.718 260.94 226.875 257.114 228.715 254.234H228.714Z" fill="white"/>
<path d="M252.859 169.498L295.023 196.433L275.814 226.505L233.649 199.57L252.859 169.498Z" fill="#C7C7C7"/>
<path d="M216.821 249.858L229.416 230.143L239.848 236.806L227.252 256.521C225.412 259.401 221.585 260.245 218.705 258.404C215.825 256.564 214.982 252.738 216.822 249.858H216.821Z" fill="white"/>
<path d="M197.466 257.163L218.983 223.48L229.414 230.144L210.275 260.104C205.398 267.738 202.23 267.549 199.35 265.709C196.47 263.869 195.627 260.043 197.467 257.163H197.466Z" fill="white"/>
<path d="M246.088 269.863C249.577 269.863 251.886 267.542 252.727 266.074L316.259 166.627C316.811 165.762 316.557 164.614 315.694 164.062C314.827 163.512 313.68 163.765 313.13 164.627L249.572 264.117C249.55 264.149 249.532 264.183 249.513 264.216C249.373 264.456 247.97 266.685 245.03 266.026C242.046 265.35 241.656 262.622 241.622 262.313C241.615 262.251 241.603 262.171 241.59 262.111C241.586 262.085 241.387 260.941 242.076 259.755L242.27 259.453C242.815 258.598 242.575 257.467 241.732 256.907C240.886 256.346 239.751 256.566 239.178 257.4C239.08 257.54 238.991 257.68 238.907 257.821L237.578 259.9C237.557 259.934 237.537 259.968 237.517 260.004C237.373 260.25 235.942 262.542 232.926 261.785C229.871 261.021 229.618 258.119 229.601 257.789C229.598 257.745 229.593 257.684 229.587 257.64C229.587 257.62 229.487 256.471 230.276 255.236C230.828 254.371 230.575 253.223 229.711 252.672C228.848 252.121 227.7 252.375 227.148 253.237C227.148 253.238 227.147 253.239 227.147 253.241L225.686 255.529C225.648 255.59 225.612 255.654 225.58 255.721C225.489 255.893 224.502 257.64 221.893 257.527C219.275 257.435 218.372 255.525 218.279 255.308C218.238 255.212 218.176 255.093 218.119 255.005C218.012 254.831 216.996 253.038 218.384 250.865C218.936 250.001 218.683 248.853 217.819 248.302C216.956 247.75 215.808 248.003 215.256 248.867C215.256 248.867 215.256 248.868 215.255 248.868L206.335 262.834C206.264 262.946 205.069 264.829 203.026 264.829C203.005 264.829 202.985 264.829 202.963 264.829C200.716 264.788 199.689 263.648 199.646 263.6C199.601 263.548 199.525 263.467 199.473 263.42C199.309 263.262 197.738 261.657 198.592 259.076C198.592 259.076 198.752 258.609 199.033 258.169L221.438 222.924C221.825 222.313 221.824 221.534 221.434 220.926C221.044 220.32 220.346 219.989 219.621 220.089L207.283 221.766C207.229 221.772 207.176 221.782 207.123 221.795C206.853 221.847 204.251 222.275 202.798 219.351C201.348 216.436 203.695 214.349 203.967 214.121C204.003 214.092 204.894 213.355 206.119 213.188L228.298 210.174C228.838 210.1 229.319 209.792 229.613 209.334L268.973 147.72C269.525 146.855 269.272 145.708 268.408 145.156C267.541 144.605 266.396 144.858 265.844 145.721L226.946 206.61L205.618 209.51C203.303 209.824 201.737 211.141 201.567 211.289C199.893 212.644 197.225 216.484 199.474 221.005C201.68 225.437 205.867 225.844 207.856 225.436L216.163 224.307L195.904 256.175C195.375 257.003 195.097 257.823 195.067 257.915C193.569 262.438 196.278 265.474 196.87 266.068C197.33 266.587 199.253 268.475 202.894 268.543C207.145 268.625 209.399 264.946 209.492 264.789L214.747 256.563C214.813 256.695 214.87 256.801 214.915 256.881C215.295 257.691 217.153 261.077 221.763 261.241C223.698 261.3 225.213 260.784 226.318 260.095C227.016 262.149 228.677 264.554 232.031 265.393C234.666 266.051 236.791 265.393 238.321 264.38C239.03 266.388 240.753 268.871 244.213 269.655C244.871 269.804 245.499 269.872 246.092 269.872L246.088 269.863Z" fill="#222222"/>
<path d="M210.743 261.231C211.356 261.231 211.955 260.929 212.309 260.374L229.825 232.955C230.377 232.09 230.124 230.942 229.26 230.391C228.394 229.84 227.248 230.093 226.696 230.956L209.18 258.375C208.628 259.24 208.881 260.388 209.745 260.94C210.055 261.137 210.401 261.231 210.743 261.231Z" fill="#222222"/>
<path d="M228.71 256.09C229.323 256.09 229.922 255.787 230.276 255.233L238.911 241.718C239.463 240.853 239.21 239.705 238.346 239.153C237.478 238.603 236.332 238.856 235.782 239.718L227.147 253.234C226.595 254.099 226.849 255.246 227.712 255.798C228.023 255.995 228.368 256.09 228.71 256.09Z" fill="#222222"/>
<path d="M240.706 260.308C241.319 260.308 241.917 260.005 242.272 259.451L247.149 251.816C247.701 250.951 247.448 249.803 246.584 249.251C245.718 248.701 244.572 248.953 244.02 249.816L239.142 257.452C238.591 258.317 238.844 259.464 239.707 260.016C240.018 260.213 240.363 260.308 240.706 260.308Z" fill="#222222"/>
</g>
<defs>
<filter id="filter0_f_4489_2050" x="55.951" y="116.967" width="331.66" height="192.015" filterUnits="userSpaceOnUse" color-interpolation-filters="sRGB">
<feFlood flood-opacity="0" result="BackgroundImageFix"/>
<feBlend mode="normal" in="SourceGraphic" in2="BackgroundImageFix" result="shape"/>
<feGaussianBlur stdDeviation="24.8057" result="effect1_foregroundBlur_4489_2050"/>
</filter>
<clipPath id="clip0_4489_2050">
<rect width="400" height="380" fill="white" transform="matrix(-1 0 0 1 400 0)"/>
</clipPath>
<clipPath id="clip1_4489_2050">
<rect width="333.499" height="173.64" fill="white" transform="translate(47.6836 215.271)"/>
</clipPath>
</defs>
</svg>
