<svg width="405" height="391" viewBox="0 0 405 391" fill="none" xmlns="http://www.w3.org/2000/svg">
<path d="M281.617 69.5898H311.043V98.936H281.617V69.5898Z" fill="white"/>
<path d="M311.035 99.9788C311.308 99.9788 311.571 99.8709 311.761 99.6808C311.957 99.4856 312.065 99.2287 312.065 98.9564L312.086 75.0356C312.086 74.4705 311.627 74.0081 311.056 74.0081L281.63 73.9824C281.063 73.9824 280.6 74.4397 280.6 75.0099L280.579 98.9307C280.579 99.203 280.687 99.4651 280.883 99.6551C281.074 99.8504 281.336 99.9583 281.609 99.9583L311.035 99.984V99.9788ZM310.02 76.058L310 97.9238L282.635 97.8981L282.655 76.0323L310.02 76.058Z" fill="#222222" stroke="#222222" stroke-width="1.62618"/>
<path d="M273.414 75.8977C262.888 65.4004 262.888 48.3809 273.414 37.8835C283.94 27.3862 301.006 27.3862 311.531 37.8835C322.057 48.3809 322.057 65.4004 311.531 75.8977C301.006 86.395 283.94 86.395 273.414 75.8977Z" fill="white"/>
<path d="M292.458 84.7974C292.938 84.7974 293.417 84.7871 293.901 84.7614C295.307 84.6895 296.714 84.5148 298.079 84.2374C298.635 84.1244 298.996 83.5798 298.882 83.0249C298.769 82.47 298.228 82.1104 297.667 82.2234C296.399 82.4803 295.096 82.6447 293.793 82.7115C279.518 83.4359 267.314 72.4465 266.582 58.2102C266.232 51.3155 268.591 44.6931 273.233 39.5708C277.874 34.4435 284.237 31.4277 291.15 31.0783C298.496 30.7033 305.657 33.4673 310.844 38.6563C311.246 39.0571 311.9 39.0571 312.302 38.6563C312.704 38.2556 312.709 37.6031 312.302 37.2024C306.708 31.6024 298.955 28.6174 291.047 29.0182C283.582 29.3983 276.71 32.6556 271.703 38.1888C266.696 43.722 264.146 50.8685 264.527 58.3129C265.289 73.1966 277.679 84.7974 292.458 84.7974Z" fill="#222222" stroke="#222222" stroke-width="1.62618"/>
<path d="M279.111 64.3656C279.332 64.3656 279.554 64.2936 279.744 64.1498C282.181 62.254 283.541 59.2793 283.387 56.207C283.119 50.9975 278.657 46.9747 273.429 47.2367C268.947 47.4628 265.207 50.8382 264.532 55.2566C264.444 55.8166 264.831 56.3406 265.397 56.4279C265.954 56.5101 266.484 56.13 266.572 55.5648C267.097 52.1072 270.029 49.4664 273.537 49.2918C277.632 49.0811 281.125 52.2356 281.331 56.3149C281.455 58.7245 280.388 61.0467 278.477 62.5366C278.029 62.8859 277.952 63.5333 278.302 63.9803C278.503 64.2371 278.807 64.3758 279.116 64.3758L279.111 64.3656Z" fill="#222222" stroke="#222222" stroke-width="1.62618"/>
<path d="M273.181 55.1887C273.248 56.4629 274.335 57.4441 275.618 57.3825C276.895 57.3157 277.879 56.2317 277.818 54.9524C277.756 53.6731 276.664 52.697 275.381 52.7586C274.103 52.8254 273.119 53.9095 273.181 55.1887Z" fill="#222222"/>
<path d="M285.345 53.6526C285.412 54.9267 286.499 55.908 287.782 55.8463C289.065 55.7847 290.043 54.6955 289.982 53.4162C289.915 52.1421 288.828 51.1608 287.545 51.2225C286.267 51.2893 285.283 52.3733 285.345 53.6526Z" fill="#222222"/>
<path d="M280.836 73.0271C283.211 73.0271 285.586 72.1177 287.25 70.3555C287.642 69.9445 287.621 69.292 287.209 68.9015C286.792 68.5111 286.142 68.5316 285.751 68.9426C283.541 71.2854 279.487 71.6399 276.901 69.7133C276.442 69.3742 275.798 69.4667 275.458 69.9239C275.118 70.376 275.211 71.0234 275.669 71.3625C277.168 72.4825 279.002 73.0271 280.842 73.0271H280.836Z" fill="#222222" stroke="#222222" stroke-width="1.62618"/>
<path d="M305.206 49.2936C299.898 45.1225 298.986 37.4504 303.169 32.1575C307.351 26.8646 315.044 25.9552 320.351 30.1263C325.659 34.2974 326.57 41.9695 322.388 47.2624C318.206 52.5553 310.513 53.4647 305.206 49.2936Z" fill="#222222"/>
<path d="M286.701 38.1137C283.15 32.3808 284.93 24.8619 290.679 21.3198C296.427 17.7777 303.967 19.5537 307.518 25.2866C311.07 31.0195 309.289 38.5384 303.541 42.0805C297.792 45.6226 290.253 43.8466 286.701 38.1137Z" fill="#222222"/>
<path d="M309.673 69.8498C302.495 64.2087 301.262 53.8328 306.918 46.6746C312.575 39.5164 322.978 38.2865 330.156 43.9275C337.334 49.5686 338.567 59.9445 332.911 67.1027C327.254 74.261 316.85 75.4909 309.673 69.8498Z" fill="#222222"/>
<path d="M299.409 50.1851C294.204 47.817 291.909 41.6888 294.283 36.4973C296.658 31.3058 302.803 29.017 308.008 31.3851C313.214 33.7531 315.509 39.8814 313.134 45.0729C310.76 50.2644 304.615 52.5532 299.409 50.1851Z" fill="#222222"/>
<path d="M261.949 31.1897C261.047 23.4959 266.569 16.5295 274.284 15.6298C281.999 14.7301 288.984 20.2378 289.886 27.9315C290.788 35.6253 285.266 42.5917 277.551 43.4914C269.836 44.3911 262.851 38.8835 261.949 31.1897Z" fill="#222222"/>
<path d="M255.784 42.3118C254.345 38.0136 256.673 33.366 260.982 31.9312C265.292 30.4964 269.952 32.8176 271.391 37.1158C272.83 41.414 270.502 46.0616 266.192 47.4964C261.883 48.9313 257.222 46.61 255.784 42.3118Z" fill="#222222"/>
<path d="M307.213 84.0302C303.325 79.8441 303.575 73.3072 307.773 69.4295C311.97 65.5519 318.525 65.8018 322.413 69.9879C326.301 74.1739 326.05 80.7109 321.853 84.5885C317.656 88.4662 311.101 88.2162 307.213 84.0302Z" fill="#222222"/>
<path d="M224.753 218.274H346.793V122.072C346.793 108.144 335.47 96.8516 321.504 96.8516H224.753V218.274Z" fill="#C7C7C7"/>
<rect x="130.916" y="26.5708" width="109.268" height="179.862" rx="3.47439" fill="white"/>
<rect x="130.916" y="26.5708" width="109.268" height="179.862" rx="3.47439" stroke="#222222" stroke-width="4.06544"/>
<rect x="139.789" y="102.326" width="91.418" height="11.0142" rx="2.20284" fill="#222222"/>
<rect x="139.789" y="32.7812" width="91.418" height="11.0142" rx="2.20284" fill="#222222"/>
<rect x="139.699" y="46.6904" width="91.6974" height="43.7881" rx="2.20284" fill="#222222"/>
<rect x="139.789" y="115.543" width="44.6076" height="37.4483" rx="2.20284" fill="#222222"/>
<rect x="186.598" y="115.543" width="44.6076" height="11.0142" rx="2.20284" fill="#222222"/>
<rect x="186.598" y="128.76" width="44.6076" height="11.0142" rx="2.20284" fill="#222222"/>
<rect x="186.598" y="141.978" width="44.6076" height="11.0142" rx="2.20284" fill="#222222"/>
<path d="M322.39 146.717C308.913 146.717 297.987 135.821 297.987 122.38C297.987 108.939 308.913 98.043 322.39 98.043C335.867 98.043 346.793 108.939 346.793 122.38C346.793 135.821 335.867 146.717 322.39 146.717Z" fill="#C7C7C7"/>
<path d="M203.482 155.296L177.276 116.867C186.925 110.034 201.916 100.062 211.565 93.2285C213.342 91.9698 217.149 89.8223 217.149 89.8223C224.856 99.8406 243.777 127.964 243.777 127.964L203.482 155.296Z" fill="white"/>
<path d="M252.48 206.935C239.003 206.935 228.077 196.039 228.077 182.598C228.077 169.157 239.003 158.261 252.48 158.261C265.957 158.261 276.883 169.157 276.883 182.598C276.883 196.039 265.957 206.935 252.48 206.935Z" fill="#C7C7C7"/>
<path d="M306.314 104.143L338.168 140.946L267.556 201.732L235.703 164.929L306.314 104.143Z" fill="#C7C7C7"/>
<path d="M233.37 197.707L258.098 145.648L250.324 135.855L209.488 164.231L233.37 197.707Z" fill="#C7C7C7"/>
<path d="M212.181 168.053L188.18 132.86L230.129 107.881L252.477 138.568L212.181 168.053Z" fill="#C7C7C7"/>
<path d="M258.097 146.675C258.344 146.675 258.581 146.588 258.771 146.424L292.153 117.689C292.586 117.319 292.633 116.672 292.262 116.24C291.891 115.809 291.242 115.762 290.809 116.132L258.241 144.168L244.826 127.26C244.471 126.813 243.822 126.741 243.379 127.091C242.931 127.445 242.858 128.087 243.209 128.534L257.293 146.285C257.468 146.506 257.726 146.645 258.004 146.67C258.035 146.67 258.071 146.67 258.102 146.67L258.097 146.675Z" fill="#222222" stroke="#222222" stroke-width="1.62618"/>
<path d="M214.944 102.95L221.435 79.5532C222.321 76.3576 225.639 74.4824 228.848 75.3661C232.052 76.2497 233.933 79.5584 233.046 82.7591L226.555 106.156L214.944 102.95Z" fill="white"/>
<path d="M177.506 95.8286L187.242 110.106L177.274 116.867L167.538 102.59C165.668 99.8463 166.378 96.1061 169.135 94.236C171.885 92.371 175.636 93.08 177.511 95.8235L177.506 95.8286Z" fill="white"/>
<path d="M185.884 86.7349L197.207 103.345L187.239 110.106L175.916 93.496C174.046 90.7525 174.757 87.0123 177.513 85.1422C180.264 83.2773 184.014 83.9863 185.889 86.7298L185.884 86.7349Z" fill="white"/>
<path d="M194.368 77.7896L207.18 96.5779L197.211 103.339L184.4 84.5507C182.53 81.8072 183.24 78.067 185.991 76.1969C188.742 74.332 192.493 75.041 194.368 77.7845V77.7896Z" fill="white"/>
<path d="M195.254 57.7173L217.148 89.8172L207.18 96.5783L187.707 68.0234C182.746 60.7485 184.132 57.9896 186.883 56.1247C189.634 54.2597 193.384 54.9687 195.26 57.7122L195.254 57.7173Z" fill="white"/>
<path d="M252.68 208.286C261.855 208.286 268.176 202.557 268.253 202.48L314.736 162.468C315.168 162.098 315.215 161.451 314.844 161.019C314.473 160.588 313.824 160.542 313.391 160.911L266.878 200.949C266.455 201.339 256.987 209.873 244.417 204.484C244.36 204.458 244.299 204.437 244.237 204.427C244.206 204.422 240.991 203.651 237.514 200.507C233.908 197.25 228.988 189.646 228.937 189.569L168.38 102.003C168.38 102.003 168.36 101.973 168.344 101.957C168.262 101.849 166.325 99.224 168.432 96.3315C170.554 93.4185 173.784 94.3792 173.923 94.4255C173.959 94.4357 174.001 94.446 174.037 94.4563C174.088 94.4666 175.458 94.7748 176.442 96.1055L176.649 96.4086C176.963 96.871 177.596 96.9994 178.065 96.6912C178.534 96.3829 178.673 95.7561 178.374 95.2834C178.297 95.1601 178.215 95.0368 178.132 94.9238L176.767 92.9253C176.767 92.9253 176.741 92.8893 176.726 92.8739C176.643 92.766 174.65 90.0842 176.885 87.1506C179.157 84.1656 182.588 85.4346 182.619 85.45C182.645 85.4603 182.676 85.4706 182.707 85.4808C182.712 85.4808 184.046 85.9021 185.02 87.315V87.3253C185.344 87.7928 185.988 87.9161 186.457 87.5976C186.926 87.279 187.049 86.6368 186.73 86.1693C186.73 86.1693 186.73 86.1693 186.725 86.1642L185.241 83.9909C185.221 83.9601 185.195 83.9241 185.169 83.8933C185.107 83.8163 183.521 81.8845 184.85 79.0691C186.184 76.2485 188.847 76.2434 188.93 76.2485C188.992 76.2485 189.064 76.2485 189.126 76.2331C189.223 76.2177 191.779 75.8478 193.509 78.3858C193.829 78.8533 194.468 78.9766 194.942 78.6581C195.41 78.3395 195.534 77.6973 195.215 77.2298L186.138 63.9182C186.06 63.8052 184.556 61.6525 185.581 59.3868C186.643 57.0441 188.358 56.4995 188.43 56.4738C188.471 56.4584 188.528 56.443 188.569 56.4224C188.672 56.3762 191.227 55.2973 193.633 57.4243C193.633 57.4243 194.061 57.8044 194.401 58.3079L217.351 91.8001C217.577 92.1289 217.974 92.3036 218.371 92.2317C218.767 92.1649 219.087 91.8772 219.195 91.4919L222.43 79.8346C222.441 79.8038 222.446 79.7781 222.451 79.7473C222.477 79.6188 223.157 76.4027 227.02 76.1869C230.863 75.966 231.997 79.6291 232.043 79.7832C232.053 79.8192 232.445 81.0985 232.058 82.4908L226.242 103.447C226.16 103.74 226.217 104.053 226.387 104.305L243.165 128.493C243.49 128.961 244.134 129.074 244.597 128.755C245.066 128.431 245.185 127.794 244.86 127.327L228.36 103.534L234.047 83.0405C234.603 81.0368 234.047 79.2643 234.016 79.1873C233.496 77.3531 231.332 73.8801 226.907 74.137C222.544 74.3836 220.777 77.6151 220.437 79.3311L217.804 88.8152L196.106 57.152C195.622 56.4378 195.06 55.9395 194.998 55.883C191.773 53.0367 188.317 54.3006 187.781 54.5215C187.312 54.6756 185.051 55.5644 183.706 58.5391C182.186 61.9043 184.36 64.9663 184.458 65.0947L190.697 74.2449C189.816 74.0959 189.136 74.1575 188.878 74.1883C188.229 74.1986 184.762 74.4452 182.995 78.1906C182.006 80.2764 182.176 82.0489 182.583 83.2974C180.667 82.8607 177.468 82.9994 175.252 85.9073C173.465 88.2552 173.578 90.6647 174.171 92.3704C172.383 91.9491 169.009 92.0621 166.773 95.1345C164.367 98.4431 165.665 101.844 166.706 103.201L227.226 190.72C227.417 191.013 232.326 198.596 236.133 202.038C239.724 205.285 243.052 206.256 243.685 206.415C246.885 207.772 249.914 208.296 252.685 208.296L252.68 208.286Z" fill="#222222" stroke="#222222" stroke-width="1.62618"/>
<path d="M206.008 95.885C206.208 95.885 206.409 95.8285 206.585 95.7052C207.053 95.3866 207.177 94.7444 206.858 94.2769L189.038 68.1418C188.719 67.6743 188.08 67.5509 187.606 67.8695C187.137 68.188 187.014 68.8302 187.333 69.2977L205.152 95.4329C205.353 95.7257 205.678 95.885 206.008 95.885Z" fill="#222222" stroke="#222222" stroke-width="1.62618"/>
<path d="M194.672 100.642C194.873 100.642 195.073 100.585 195.249 100.462C195.717 100.143 195.841 99.5011 195.522 99.0335L186.738 86.1535C186.419 85.686 185.78 85.5627 185.306 85.8812C184.837 86.1997 184.714 86.8419 185.033 87.3095L193.816 100.189C194.017 100.482 194.342 100.642 194.672 100.642Z" fill="#222222" stroke="#222222" stroke-width="1.62618"/>
<path d="M182.465 104.129C182.666 104.129 182.866 104.073 183.042 103.949C183.51 103.631 183.634 102.989 183.315 102.521L178.354 95.2463C178.034 94.7787 177.395 94.6554 176.922 94.974C176.453 95.2925 176.329 95.9347 176.649 96.4022L181.609 103.677C181.81 103.97 182.135 104.129 182.465 104.129Z" fill="#222222" stroke="#222222" stroke-width="1.62618"/>
<path d="M301.767 67.6665C297.641 65.6233 295.958 60.6315 298.007 56.5171C300.056 52.4028 305.061 50.7238 309.186 52.7671C313.312 54.8104 314.995 59.8022 312.947 63.9165C310.898 68.0309 305.892 69.7098 301.767 67.6665Z" fill="white"/>
<path d="M303.299 64.227C306.637 64.227 309.903 61.8226 310.738 58.5653C310.877 58.0156 310.547 57.4556 309.996 57.3169C309.445 57.1782 308.883 57.507 308.744 58.0567C308.085 60.6255 305.2 62.5264 302.578 62.1154C302.011 62.0229 301.486 62.4134 301.403 62.9734C301.316 63.5334 301.702 64.0574 302.263 64.1448C302.609 64.1962 302.959 64.227 303.304 64.227H303.299Z" fill="#222222" stroke="#222222" stroke-width="1.62618"/>
<g clip-path="url(#clip0_4489_2124)">
<g filter="url(#filter0_f_4489_2124)">
<ellipse cx="247.2" cy="216.089" rx="115.052" ry="45.9298" fill="#FF7300" fill-opacity="0.6"/>
</g>
<path d="M352.207 220.182L129.421 220.182" stroke="#EC6456" stroke-width="3.63801" stroke-linecap="round"/>
</g>
<path d="M42.6469 267.928L84.9102 335.312L42.6469 360.479L0.383587 293.096L42.6469 267.928Z" fill="#C7C7C7"/>
<path d="M84.9112 335.311L149.346 294.899C139.416 278.334 123.568 253.551 113.638 236.986C111.809 233.935 107.53 228.22 107.53 228.22C89.4198 238.179 42.6506 267.928 42.6506 267.928L84.9112 335.311Z" fill="white"/>
<path d="M102.19 249.335L107.869 210.013C108.643 204.638 104.915 199.652 99.5435 198.876C94.168 198.102 89.1825 201.83 88.4064 207.201L82.7272 246.524L102.19 249.335Z" fill="white"/>
<path d="M162.834 263.214L138.897 278.228L149.353 294.898L173.291 279.883C177.894 276.995 179.284 270.927 176.4 266.321C173.512 261.718 167.443 260.327 162.838 263.212L162.834 263.214Z" fill="white"/>
<path d="M156.283 244.095L128.435 261.558L138.891 278.228L166.74 260.764C171.343 257.876 172.734 251.808 169.849 247.202C166.961 242.599 160.893 241.208 156.287 244.093L156.283 244.095Z" fill="white"/>
<path d="M149.49 225.131L117.983 244.891L128.439 261.561L159.947 241.8C164.55 238.912 165.941 232.844 163.056 228.238C160.168 223.635 154.1 222.244 149.494 225.129L149.49 225.131Z" fill="white"/>
<path d="M161.358 194.461L107.533 228.22L117.989 244.89L165.867 214.86C178.062 207.209 177.806 202.17 174.92 197.571C172.032 192.967 165.963 191.577 161.358 194.461Z" fill="white"/>
<path d="M85.3168 336.08C85.3168 336.08 85.3552 336.059 85.3744 336.049L173.737 280.633C174.243 280.336 180.144 276.725 178.545 269.38C176.964 262.125 170.122 261.029 169.425 260.935C169.283 260.907 168.844 260.829 168.204 260.808C170.004 259.388 173.356 255.859 171.944 250.006C170.138 242.51 162.816 241.795 162.172 241.747C162.1 241.741 161.923 241.721 161.664 241.715C163.222 240.482 165.551 237.85 165.424 233.195C165.25 226.748 160.399 224.353 159.69 224.04C159.302 223.798 157.52 222.783 155.013 222.701L172.273 211.874C172.461 211.766 177.337 208.837 177.282 203.265C177.227 198.115 174.509 195.528 174.073 195.149C173.59 194.633 169.547 190.604 163.203 192.648C163.156 192.663 162.028 193.027 160.895 193.737L106.164 227.89L108.724 210.175C108.857 209.516 110.032 202.657 102.896 199.037C95.4221 195.241 89.9615 201.718 89.9065 201.781C89.8477 201.846 87.9974 203.96 87.5461 207.09L82.518 241.911L42.1909 267.205C41.7845 267.458 41.6601 267.995 41.9174 268.399L84.178 335.782C84.3007 335.977 84.496 336.115 84.7205 336.168C84.9215 336.214 85.1365 336.184 85.317 336.089L85.3168 336.08ZM164.072 263.482C166.634 262.131 169.067 262.631 169.094 262.636C169.128 262.643 169.161 262.65 169.192 262.653C169.447 262.681 175.464 263.387 176.848 269.745C178.225 276.083 173.088 279.002 172.867 279.123C172.852 279.131 172.837 279.139 172.821 279.147L85.1833 334.113L43.8458 268.202L83.7743 243.158C83.9928 243.023 84.1356 242.801 84.1729 242.546L89.2624 207.328C89.6359 204.731 91.2109 202.914 91.2261 202.897C91.4306 202.651 95.8903 197.414 102.109 200.571C108.37 203.75 107.035 209.755 107.022 209.816C107.015 209.839 107.014 209.864 107.008 209.892L104.18 229.481C104.131 229.816 104.282 230.149 104.565 230.333C104.849 230.517 105.204 230.521 105.498 230.342L161.816 195.195C162.757 194.606 163.723 194.288 163.733 194.288C169.302 192.495 172.787 196.303 172.821 196.34C172.849 196.374 172.884 196.404 172.918 196.431C173.021 196.514 175.498 198.644 175.545 203.268C175.593 207.847 171.414 210.349 171.374 210.375L149.034 224.385C148.627 224.639 148.503 225.176 148.76 225.58C149.014 225.986 149.547 226.113 149.955 225.853C154.709 222.871 158.759 225.487 158.799 225.516C158.846 225.55 158.899 225.576 158.95 225.598C159.132 225.674 163.532 227.576 163.684 233.229C163.839 238.876 159.743 240.912 159.569 241.009C159.542 241.023 159.511 241.039 159.48 241.055L155.826 243.35C155.419 243.604 155.295 244.14 155.552 244.545C155.806 244.951 156.333 245.076 156.747 244.818C159.407 243.151 161.946 243.452 161.973 243.457C161.995 243.46 162.024 243.46 162.045 243.463C162.314 243.479 168.686 243.88 170.255 250.396C171.829 256.929 166.382 259.957 166.33 259.99C166.315 259.998 166.295 260.008 166.28 260.016L162.918 262.122C162.727 262.233 162.539 262.351 162.347 262.482C161.957 262.747 161.85 263.279 162.107 263.674C162.366 264.072 162.893 264.187 163.295 263.936L163.805 263.618C163.897 263.569 163.988 263.517 164.076 263.47L164.072 263.482Z" fill="#222222" stroke="#222222" stroke-width="2.7285"/>
<path d="M121.282 243.845C121.282 243.845 121.321 243.825 121.34 243.814L165.157 216.333C165.563 216.079 165.688 215.542 165.43 215.138C165.177 214.732 164.646 214.599 164.236 214.865L120.419 242.346C120.012 242.6 119.888 243.137 120.145 243.541C120.389 243.928 120.889 244.057 121.284 243.849L121.282 243.845Z" fill="#222222" stroke="#222222" stroke-width="2.7285"/>
<path d="M135.09 258.41C135.09 258.41 135.128 258.39 135.147 258.38L156.746 244.834C157.153 244.581 157.277 244.044 157.02 243.639C156.766 243.233 156.23 243.109 155.825 243.366L134.226 256.912C133.82 257.165 133.695 257.702 133.953 258.106C134.196 258.494 134.696 258.623 135.092 258.414L135.09 258.41Z" fill="#222222" stroke="#222222" stroke-width="2.7285"/>
<path d="M151.034 271.637C151.034 271.637 151.072 271.617 151.091 271.607L163.294 263.952C163.7 263.698 163.824 263.161 163.567 262.757C163.313 262.351 162.786 262.216 162.372 262.484L150.17 270.138C149.764 270.392 149.639 270.929 149.897 271.333C150.14 271.72 150.64 271.849 151.036 271.641L151.034 271.637Z" fill="#222222" stroke="#222222" stroke-width="2.7285"/>
<defs>
<filter id="filter0_f_4489_2124" x="83.0354" y="121.046" width="328.332" height="190.086" filterUnits="userSpaceOnUse" color-interpolation-filters="sRGB">
<feFlood flood-opacity="0" result="BackgroundImageFix"/>
<feBlend mode="normal" in="SourceGraphic" in2="BackgroundImageFix" result="shape"/>
<feGaussianBlur stdDeviation="24.5565" result="effect1_foregroundBlur_4489_2124"/>
</filter>
<clipPath id="clip0_4489_2124">
<rect width="330.149" height="171.896" fill="white" transform="translate(74.8516 218.362)"/>
</clipPath>
</defs>
</svg>
