<svg width="81" height="81" viewBox="0 0 81 81" fill="none" xmlns="http://www.w3.org/2000/svg">
<rect x="0.0625" y="0.0612793" width="80" height="80" rx="40" fill="#46CE7A"/>
<path d="M56.7318 58.8113V54.6446C56.7318 52.4345 55.8538 50.3149 54.291 48.7521C52.7282 47.1893 50.6086 46.3113 48.3984 46.3113H31.7318C29.5216 46.3113 27.402 47.1893 25.8392 48.7521C24.2764 50.3149 23.3984 52.4345 23.3984 54.6446V58.8113" fill="white" stroke="white" stroke-width="3.75" stroke-linecap="round" stroke-linejoin="round"/>
<path d="M40.0599 37.9777C44.6623 37.9777 48.3932 34.2467 48.3932 29.6444C48.3932 25.042 44.6623 21.311 40.0599 21.311C35.4575 21.311 31.7266 25.042 31.7266 29.6444C31.7266 34.2467 35.4575 37.9777 40.0599 37.9777Z" fill="white" stroke="white" stroke-width="3.75" stroke-linecap="round" stroke-linejoin="round"/>
</svg>
