<svg width="199" height="55" viewBox="0 0 199 55" fill="none" xmlns="http://www.w3.org/2000/svg">
<rect width="198.682" height="54.186" rx="18.062" fill="#46CE7A"/>
<path d="M55.4518 18.1959H62.6839C64.7574 18.1959 65.1367 18.2212 65.7942 18.4235C67.5895 18.9293 68.4746 20.1683 68.4746 22.166C68.4746 23.6073 67.9688 24.8211 67.0332 25.5544C66.3252 26.0854 65.693 26.313 64.2769 26.4647C66.0723 26.6417 66.8815 26.8693 67.5389 27.4256C68.2723 28.0578 68.6516 29.044 68.6516 30.3336C68.6516 32.0531 67.893 33.5703 66.7045 34.3037C65.7436 34.8852 64.808 35.0623 62.5069 35.0623H55.4518V18.1959ZM59.7 21.989V25.0234H61.8747C63.316 25.0234 64.0241 24.4924 64.0241 23.405C64.0241 22.3683 63.4678 21.989 62.0011 21.989H59.7ZM59.7 28.2601V31.4462H61.9C62.7597 31.4462 63.1643 31.3704 63.5183 31.1934C63.9482 30.9658 64.2011 30.4601 64.2011 29.8785C64.2011 29.1957 63.8976 28.6647 63.3666 28.4624C63.0126 28.3107 62.6839 28.2601 61.8747 28.2601H59.7ZM69.5532 18.1959H74.029V27.4762C74.029 29.221 74.1048 29.7267 74.4841 30.3336C74.8129 30.8899 75.5462 31.2439 76.3301 31.2439C77.3163 31.2439 78.1254 30.7129 78.4289 29.929C78.6312 29.3474 78.6565 29.0187 78.6565 27.4762V18.1959H83.1322V27.4762C83.1322 30.2072 83.1069 30.6118 82.8541 31.3957C82.0702 33.9749 79.6679 35.4921 76.3554 35.4921C73.8267 35.4921 71.7026 34.5565 70.6405 32.9887C69.8061 31.775 69.5532 30.5865 69.5532 27.7291V18.1959ZM83.6386 18.1959H97.2681V22.5706H92.7165V35.0623H88.2408V22.5706H83.6386V18.1959ZM97.4436 18.1959H111.073V22.5706H106.522V35.0623H102.046V22.5706H97.4436V18.1959ZM118.789 17.7661C123.998 17.7661 126.3 20.2695 126.3 25.9337C126.3 29.1704 125.49 31.8508 123.998 33.4439C122.759 34.7588 120.863 35.4921 118.587 35.4921C113.681 35.4921 111.026 32.2554 111.026 26.3383C111.026 23.4809 111.684 21.1798 112.923 19.789C114.086 18.4741 116.109 17.7661 118.789 17.7661ZM118.739 22.3683C116.564 22.3683 115.477 23.8855 115.477 26.9199C115.477 30.106 116.539 31.7244 118.663 31.7244C119.877 31.7244 120.711 31.2439 121.217 30.2325C121.672 29.2969 121.95 27.9061 121.95 26.5406C121.95 23.7338 120.914 22.3683 118.739 22.3683ZM141.607 18.1959V35.0623H136.322L133.313 28.513C132.428 26.4394 131.746 24.5176 131.164 22.3683H131.038C131.265 24.4671 131.341 25.8326 131.417 29.0187V35.0623H127.169V18.1959H133.313L135.513 23.4556C136.398 25.7061 137.207 28.3865 137.789 30.8899H137.941C137.536 27.2486 137.359 25.074 137.359 22.9752V18.1959H141.607Z" fill="#E1F48B"/>
</svg>
