<svg width="474" height="61" viewBox="0 0 474 61" fill="none" xmlns="http://www.w3.org/2000/svg">
<g clip-path="url(#clip0_4221_688)">
<rect x="0.21875" y="0.27417" width="473" height="60" rx="10" fill="white"/>
<path d="M-2.64525 42.3476L-5.18725 51.2756H-16.0372L-4.07125 9.92163L12.3588 9.92163L24.2628 51.2756L13.1028 51.2756L10.6228 42.3476H-2.64525ZM8.32875 32.7376L3.92675 17.1756L-0.41325 32.7376H8.32875ZM25.1317 9.92163L42.8637 9.92163C47.9477 9.92163 48.8777 9.98363 50.4897 10.4796C54.8917 11.7196 57.0617 14.7576 57.0617 19.6556C57.0617 23.1896 55.8217 26.1656 53.5277 27.9636C51.7917 29.2656 50.2417 29.8236 46.7697 30.1956C51.1717 30.6296 53.1557 31.1876 54.7677 32.5516C56.5657 34.1016 57.4957 36.5196 57.4957 39.6816C57.4957 43.8976 55.6357 47.6176 52.7217 49.4156C50.3657 50.8416 48.0717 51.2756 42.4297 51.2756H25.1317L25.1317 9.92163ZM35.5477 19.2216V26.6616H40.8797C44.4137 26.6616 46.1497 25.3596 46.1497 22.6936C46.1497 20.1516 44.7857 19.2216 41.1897 19.2216H35.5477ZM35.5477 34.5976L35.5477 42.4096H40.9417C43.0497 42.4096 44.0417 42.2236 44.9097 41.7896C45.9637 41.2316 46.5837 39.9916 46.5837 38.5656C46.5837 36.8916 45.8397 35.5896 44.5377 35.0936C43.6697 34.7216 42.8637 34.5976 40.8797 34.5976H35.5477ZM89.1593 14.1376V26.3516H88.6633C86.8653 22.5696 82.8973 20.1516 78.3713 20.1516C75.7673 20.1516 73.4113 21.0816 71.6753 22.8176C69.7533 24.7396 68.8233 27.5296 68.8233 31.3736C68.8233 38.8756 72.2333 43.0916 78.3093 43.0916C83.0213 43.0916 86.3693 40.8596 88.6633 36.0856H89.1593V46.7496C84.7573 50.7796 81.0993 52.3296 75.7053 52.3296C64.6073 52.3296 57.8493 43.7736 57.8493 29.6996C57.8493 22.2596 59.7093 16.8036 63.3053 13.3936C66.5293 10.4176 70.9313 8.86763 76.0773 8.86763C81.5333 8.86763 85.1293 10.2936 89.1593 14.1376ZM91.7987 9.92163L107.485 9.92163C112.073 9.92163 112.073 9.92163 113.747 10.1696C118.645 10.8516 121.807 12.8356 123.977 16.3076C125.899 19.4696 126.953 23.8716 126.953 28.6456C126.953 37.7596 123.543 45.4476 117.963 48.6096C114.739 50.4696 111.081 51.2756 105.687 51.2756H91.7987V9.92163ZM102.773 20.2756V41.6656H105.749C109.469 41.6656 111.329 41.1696 113.065 39.6816C114.987 38.0076 116.041 34.4736 116.041 29.8236C116.041 23.1276 113.623 20.2756 107.857 20.2756H102.773ZM128.856 9.92163L157.004 9.92163V20.2756L139.272 20.2756V26.0416L156.818 26.0416V35.6516H139.272V41.6656H157.004V51.2756L128.856 51.2756V9.92163ZM160.464 9.92163L188.55 9.92163V20.2756H171.438V26.7856H188.364V36.3956H171.438V51.2756H160.464V9.92163ZM223.042 30.2576V43.7116C222.794 43.8976 222.732 44.0216 222.546 44.2076C222.422 44.3316 222.422 44.3936 221.802 45.4476C219.384 49.6016 213.742 52.3296 207.542 52.3296C196.32 52.3296 189.066 43.5256 189.066 29.8236C189.066 16.7416 196.258 8.86763 208.348 8.86763C213.928 8.86763 217.214 10.1076 221.616 14.0136V25.8556H221.12C218.392 21.6396 214.796 19.6556 209.836 19.6556C203.264 19.6556 199.482 23.9336 199.482 31.3116C199.482 38.9996 202.706 43.4636 208.286 43.4636C210.27 43.4636 211.51 43.0296 212.626 41.9756V30.2576H223.042ZM236.53 24.4916H248.806V9.92163H259.78V51.2756H248.806V35.4656H236.53V51.2756H225.556V9.92163L236.53 9.92163V24.4916ZM263.522 9.92163H274.496V51.2756L263.522 51.2756V9.92163ZM287.921 9.92163L298.895 9.92163V33.1096C298.895 40.6116 298.895 40.8596 298.585 42.5336C297.965 46.3776 296.353 48.7956 293.439 50.4696C291.393 51.6476 288.603 52.3296 285.813 52.3296C281.411 52.3296 278.559 51.3996 275.459 48.9816C275.521 47.4316 275.583 45.9436 275.583 45.3856C275.583 43.9596 275.521 42.7196 275.459 40.5496C277.629 42.8436 279.551 43.7736 282.031 43.7736C284.263 43.7736 286.247 42.7816 287.115 41.2316C287.859 40.0536 287.921 39.1856 287.921 33.6056V9.92163ZM302.519 9.92163L313.493 9.92163V27.4676C314.237 25.9796 314.547 25.3596 315.043 24.6156L323.847 9.92163L337.053 9.92163L323.351 30.6296L337.487 51.2756L324.281 51.2756L314.485 35.1556C314.175 34.5976 313.865 34.0396 313.183 32.4896L313.493 51.2756H302.519V9.92163ZM349.218 40.9216H363.354V51.2756H338.244V9.92163L349.218 9.92163V40.9216ZM409.104 9.92163V51.2756L398.688 51.2756V30.0716C398.75 26.8476 398.874 23.1896 399.06 19.0976H398.688C396.642 31.6836 396.58 32.1796 395.402 36.9536L391.682 51.2756H381.328L377.732 37.3256C376.616 33.0476 376.306 31.1256 375.81 27.4676L374.756 18.7256H374.322C374.57 22.4456 374.818 27.7776 374.818 30.5056V51.2756H364.402V9.92163L380.894 9.92163L384.49 26.7236C385.544 32.2416 386.102 36.6436 386.536 42.7816H386.908C387.404 36.3336 387.962 31.8696 388.954 26.4756L392.364 9.92163L409.104 9.92163ZM448.244 9.92163V51.2756H435.286L427.908 35.2176C425.738 30.1336 424.064 25.4216 422.638 20.1516H422.328C422.886 25.2976 423.072 28.6456 423.258 36.4576V51.2756H412.842V9.92163L427.908 9.92163L433.302 22.8176C435.472 28.3356 437.456 34.9076 438.882 41.0456H439.254C438.262 32.1176 437.828 26.7856 437.828 21.6396V9.92163L448.244 9.92163ZM469.318 8.86763C482.09 8.86763 487.732 15.0056 487.732 28.8936C487.732 36.8296 485.748 43.4016 482.09 47.3076C479.052 50.5316 474.402 52.3296 468.822 52.3296C456.794 52.3296 450.284 44.3936 450.284 29.8856C450.284 22.8796 451.896 17.2376 454.934 13.8276C457.786 10.6036 462.746 8.86763 469.318 8.86763ZM469.194 20.1516C463.862 20.1516 461.196 23.8716 461.196 31.3116C461.196 39.1236 463.8 43.0916 469.008 43.0916C471.984 43.0916 474.03 41.9136 475.27 39.4336C476.386 37.1396 477.068 33.7296 477.068 30.3816C477.068 23.4996 474.526 20.1516 469.194 20.1516Z" fill="#D5C7E3"/>
</g>
<defs>
<clipPath id="clip0_4221_688">
<rect x="0.21875" y="0.27417" width="473" height="60" rx="10" fill="white"/>
</clipPath>
</defs>
</svg>
