<svg width="121" height="121" viewBox="0 0 121 121" fill="none" xmlns="http://www.w3.org/2000/svg">
<rect x="0.484375" y="0.484863" width="120" height="120" rx="60" fill="#FF7CC0"/>
<path d="M91.233 38.694C89.4564 36.9166 87.3471 35.5067 85.0255 34.5447C82.7039 33.5828 80.2155 33.0876 77.7025 33.0876C75.1895 33.0876 72.7011 33.5828 70.3795 34.5447C68.0579 35.5067 65.9486 36.9166 64.1721 38.694L60.4851 42.381L56.7982 38.694C53.2097 35.1055 48.3426 33.0895 43.2677 33.0895C38.1928 33.0895 33.3258 35.1055 29.7373 38.694C26.1488 42.2825 24.1328 47.1495 24.1328 52.2244C24.1328 57.2993 26.1488 62.1664 29.7373 65.7549L33.4243 69.4418L60.4851 96.5027L87.546 69.4418L91.233 65.7549C93.0103 63.9783 94.4203 61.869 95.3822 59.5474C96.3442 57.2258 96.8393 54.7374 96.8393 52.2244C96.8393 49.7114 96.3442 47.2231 95.3822 44.9015C94.4203 42.5799 93.0103 40.4705 91.233 38.694Z" fill="white"/>
</svg>
