<svg width="217" height="55" viewBox="0 0 217 55" fill="none" xmlns="http://www.w3.org/2000/svg">
<rect width="216.744" height="54.186" rx="18.062" fill="#E1F48B"/>
<path d="M65.7331 18.4633H72.9651C75.0386 18.4633 75.4179 18.4886 76.0754 18.6909C77.8708 19.1966 78.7558 20.4356 78.7558 22.4333C78.7558 23.8747 78.2501 25.0884 77.3145 25.8217C76.6064 26.3528 75.9743 26.5803 74.5582 26.7321C76.3536 26.9091 77.1627 27.1367 77.8202 27.693C78.5535 28.3251 78.9328 29.3113 78.9328 30.601C78.9328 32.3205 78.1742 33.8377 76.9857 34.571C76.0248 35.1526 75.0892 35.3296 72.7881 35.3296H65.7331V18.4633ZM69.9813 22.2563V25.2907H72.1559C73.5973 25.2907 74.3053 24.7597 74.3053 23.6724C74.3053 22.6356 73.749 22.2563 72.2824 22.2563H69.9813ZM69.9813 28.5274V31.7136H72.1812C73.041 31.7136 73.4456 31.6377 73.7996 31.4607C74.2295 31.2331 74.4823 30.7274 74.4823 30.1458C74.4823 29.463 74.1789 28.932 73.6479 28.7297C73.2939 28.578 72.9651 28.5274 72.1559 28.5274H69.9813ZM79.8344 18.4633H84.3102V27.7435C84.3102 29.4883 84.3861 29.9941 84.7654 30.601C85.0941 31.1573 85.8274 31.5113 86.6113 31.5113C87.5975 31.5113 88.4067 30.9803 88.7101 30.1964C88.9124 29.6148 88.9377 29.286 88.9377 27.7435V18.4633H93.4135V27.7435C93.4135 30.4745 93.3882 30.8791 93.1353 31.663C92.3514 34.2423 89.9492 35.7595 86.6366 35.7595C84.1079 35.7595 81.9838 34.8239 80.9218 33.2561C80.0873 32.0423 79.8344 30.8538 79.8344 27.9964V18.4633ZM93.9198 18.4633H107.549V22.8379H102.998V35.3296H98.522V22.8379H93.9198V18.4633ZM107.725 18.4633H121.354V22.8379H116.803V35.3296H112.327V22.8379H107.725V18.4633ZM129.071 18.0334C134.28 18.0334 136.581 20.5368 136.581 26.201C136.581 29.4378 135.772 32.1182 134.28 33.7112C133.041 35.0261 131.144 35.7595 128.868 35.7595C123.963 35.7595 121.308 32.5228 121.308 26.6056C121.308 23.7482 121.965 21.4471 123.204 20.0563C124.367 18.7414 126.39 18.0334 129.071 18.0334ZM129.02 22.6356C126.845 22.6356 125.758 24.1528 125.758 27.1872C125.758 30.3734 126.82 31.9917 128.944 31.9917C130.158 31.9917 130.992 31.5113 131.498 30.4998C131.953 29.5642 132.232 28.1734 132.232 26.8079C132.232 24.0011 131.195 22.6356 129.02 22.6356ZM151.889 18.4633V35.3296H146.604L143.595 28.7803C142.71 26.7068 142.027 24.785 141.445 22.6356H141.319C141.546 24.7344 141.622 26.0999 141.698 29.286V35.3296H137.45V18.4633H143.595L145.795 23.7229C146.68 25.9735 147.489 28.6539 148.07 31.1573H148.222C147.817 27.516 147.64 25.3413 147.64 23.2425V18.4633H151.889Z" fill="#46CE7A"/>
</svg>
