<svg width="600" height="450" viewBox="0 0 600 450" fill="none" xmlns="http://www.w3.org/2000/svg">
<g clip-path="url(#clip0_4119_1061)">
<path d="M356.017 190.24C353.534 174.938 363.925 160.519 379.227 158.035C394.53 155.551 408.948 165.942 411.432 181.245C413.916 196.547 403.525 210.966 388.222 213.45C372.92 215.934 358.501 205.542 356.017 190.24Z" fill="#222222"/>
<path d="M430.643 196.78C430.643 201.38 431.263 205.84 432.433 210.07C432.623 210.74 432.823 211.4 433.033 212.05C433.243 212.72 433.473 213.38 433.723 214.03C435.093 217.76 436.913 221.29 439.103 224.54C448.033 237.78 463.183 246.49 480.353 246.49C481.953 246.49 483.532 246.41 485.092 246.26C487.862 246.01 490.563 245.52 493.173 244.82C493.983 244.61 494.783 244.37 495.573 244.12C497.843 243.39 500.042 242.5 502.152 241.46C503.122 240.99 504.073 240.49 505.003 239.96C509.323 235.06 513.303 229.86 516.903 224.38C519.703 220.11 522.283 215.68 524.613 211.11C524.953 210.44 525.292 209.76 525.622 209.08C525.952 208.41 526.272 207.73 526.592 207.05C526.982 206.22 527.363 205.39 527.733 204.55C528.063 203.82 528.383 203.08 528.693 202.34C529.013 201.61 529.312 200.88 529.602 200.14C529.742 199.81 529.882 199.47 530.012 199.14C530.032 198.57 530.052 197.99 530.052 197.41C530.062 197.2 530.062 196.99 530.062 196.78C530.062 194.07 529.842 191.42 529.422 188.83C529.402 188.66 529.372 188.5 529.342 188.34C529.312 188.15 529.283 187.97 529.243 187.78C525.013 164.63 504.733 147.07 480.353 147.07C462.383 147.07 446.633 156.61 437.903 170.91C437.183 172.08 436.513 173.28 435.903 174.51C435.163 175.98 434.493 177.5 433.903 179.05C431.793 184.56 430.643 190.53 430.643 196.78Z" fill="#222222"/>
<path d="M484.372 237.82C484.372 240.7 484.612 243.52 485.092 246.26C485.362 247.87 485.712 249.44 486.142 250.99C486.252 251.43 486.382 251.87 486.512 252.31C486.802 253.24 487.112 254.16 487.452 255.06C487.602 255.48 487.762 255.9 487.932 256.31C494.082 251.36 499.792 245.88 505.002 239.96C509.322 235.06 513.302 229.86 516.902 224.38C519.702 220.11 522.282 215.68 524.612 211.11C524.952 210.44 525.292 209.76 525.622 209.08C525.952 208.41 526.272 207.73 526.592 207.05C526.982 206.22 527.362 205.39 527.732 204.55C528.062 203.82 528.382 203.08 528.692 202.34C529.012 201.61 529.312 200.88 529.602 200.14C529.742 199.81 529.882 199.47 530.012 199.14C531.432 195.53 532.712 191.86 533.832 188.11C533.662 188.11 533.502 188.11 533.332 188.12C532.072 188.12 530.832 188.2 529.592 188.31C529.512 188.32 529.422 188.33 529.342 188.34C529.242 188.34 529.142 188.35 529.052 188.37C525.552 188.71 522.162 189.42 518.922 190.46C518.052 190.74 517.202 191.04 516.352 191.37C515.522 191.68 514.692 192.02 513.882 192.39C506.052 195.87 499.302 201.31 494.242 208.09C493.742 208.76 493.252 209.44 492.792 210.13C492.342 210.8 491.902 211.49 491.492 212.18C489.202 215.96 487.412 220.08 486.192 224.44C485.002 228.69 484.372 233.18 484.372 237.82Z" fill="#222222"/>
<path d="M336.099 114.85C338.969 154.65 375.879 182.39 415.779 182.39C455.679 182.39 488.039 150.04 488.039 110.13C488.039 87.4699 475.339 58.6199 451.449 47.6599C451.449 47.6599 447.869 59.5099 439.749 56.7299C436.419 55.5899 419.319 52.8999 415.789 52.2499C411.549 51.4699 383.729 40.1599 379.609 41.8799C359.149 50.4199 333.859 83.7599 336.099 114.84V114.85Z" fill="#222222"/>
<path d="M297.861 216.39C297.861 216.39 298.061 217.22 298.301 218.38C298.631 220.01 299.031 222.28 299.031 223.88L302.711 224.82L439.101 224.54L486.191 224.44L510.941 224.39H515.811L516.901 224.38C519.701 220.11 522.281 215.68 524.611 211.11C524.951 210.44 525.291 209.76 525.621 209.08C525.951 208.41 526.271 207.73 526.591 207.05C526.981 206.22 527.361 205.39 527.731 204.55C528.061 203.82 528.381 203.08 528.691 202.34C528.561 202.13 528.411 201.92 528.271 201.71C527.531 200.65 526.731 199.65 525.881 198.7C525.731 198.53 525.581 198.36 525.421 198.2C522.831 195.42 519.771 193.12 516.351 191.37C510.951 188.57 504.641 187.09 497.821 187.09H435.901V152.33H405.251V187.09H334.211C316.391 187.09 301.521 199.67 297.861 216.39Z" fill="white"/>
<path d="M294.371 237.06C319.821 267.61 358.141 287.07 400.921 287.07C433.841 287.07 464.121 275.54 487.931 256.31C494.081 251.36 499.791 245.88 505.001 239.96C509.321 235.06 513.301 229.86 516.901 224.38C519.701 220.11 522.281 215.68 524.611 211.11C524.951 210.44 525.291 209.76 525.621 209.08L524.801 209.11L521.091 209.22L520.241 209.25L492.791 210.13L433.031 212.05L297.861 216.39L297.531 218.36L295.481 230.49L295.251 231.83L294.601 235.72L294.371 237.06Z" fill="#C7C7C7"/>
<path d="M295.912 215.97C299.822 198.08 315.932 185.09 334.212 185.09H403.252V152.33C403.252 151.23 404.152 150.33 405.252 150.33H435.902C437.002 150.33 437.902 151.23 437.902 152.33V185.09H497.822C505.762 185.09 512.942 186.98 518.922 190.46C521.632 192.04 524.092 193.95 526.252 196.16C526.412 196.31 526.562 196.47 526.702 196.63C527.592 197.56 528.412 198.54 529.182 199.56C529.332 199.75 529.472 199.94 529.602 200.14C529.312 200.88 529.012 201.61 528.692 202.34C528.382 203.08 528.062 203.82 527.732 204.55C527.602 204.32 527.462 204.1 527.322 203.88C526.612 202.79 525.852 201.75 525.022 200.77C524.872 200.59 524.722 200.41 524.562 200.23C521.642 196.91 518.032 194.26 513.882 192.39C509.152 190.24 503.722 189.09 497.822 189.09H435.902C434.792 189.09 433.902 188.19 433.902 187.09V154.33H407.252V187.09C407.252 188.19 406.352 189.09 405.252 189.09H334.212C318.672 189.09 304.872 199.55 300.472 214.31L432.432 210.07L494.242 208.09L521.282 207.22L522.092 207.19L525.812 207.07L526.592 207.05C526.272 207.73 525.952 208.41 525.622 209.08C525.292 209.76 524.952 210.44 524.612 211.11L523.752 211.14L520.022 211.26L519.142 211.29L491.492 212.18L433.722 214.03L298.302 218.38H297.932L297.862 218.39C297.752 218.39 297.642 218.38 297.532 218.36C297.062 218.28 296.642 218.04 296.322 217.67C295.932 217.2 295.782 216.57 295.912 215.97Z" fill="#222222"/>
<path d="M412.559 162.1C383.061 162.1 359.149 138.188 359.149 108.69C359.149 79.1927 383.061 55.2803 412.559 55.2803C442.056 55.2803 465.969 79.1927 465.969 108.69C465.969 138.188 442.056 162.1 412.559 162.1Z" fill="white"/>
<path d="M412.562 164.1C415.342 164.1 418.142 163.89 420.872 163.48C421.962 163.32 422.712 162.3 422.552 161.2C422.382 160.11 421.352 159.35 420.272 159.52C417.732 159.9 415.142 160.1 412.552 160.1C384.202 160.1 361.142 137.04 361.142 108.69C361.142 80.3403 384.202 57.2803 412.552 57.2803C427.112 57.2803 441.042 63.4903 450.792 74.3303C451.532 75.1503 452.792 75.2203 453.622 74.4803C454.442 73.7403 454.512 72.4803 453.772 71.6503C443.272 59.9803 428.252 53.2803 412.562 53.2803C382.012 53.2803 357.152 78.1403 357.152 108.69C357.152 139.24 382.012 164.1 412.562 164.1Z" fill="#222222"/>
<path d="M456.42 50.28C456.42 50.28 418.5 26.08 379.98 41.77L372.53 58.61C372.53 58.61 416.38 49.46 431.59 55.28C446.8 61.1 453.87 56.85 453.87 56.85L456.43 50.28H456.42Z" fill="#222222"/>
<path d="M397.399 55.2795C397.399 55.2795 395.989 101.519 470.479 106.709C470.479 106.709 478.019 73.6995 449.259 58.6195C449.259 58.6195 406.329 49.5495 397.389 55.2895L397.399 55.2795Z" fill="#222222"/>
<path d="M444.705 130.342C434.602 126.157 429.805 114.574 433.99 104.472C438.174 94.3687 449.757 89.5711 459.86 93.7559C469.962 97.9406 474.76 109.523 470.575 119.626C466.39 129.729 454.808 134.526 444.705 130.342Z" fill="#222222"/>
<path d="M477.911 175.359C461.089 175.359 447.451 161.722 447.451 144.899C447.451 128.077 461.089 114.439 477.911 114.439C494.734 114.439 508.371 128.077 508.371 144.899C508.371 161.722 494.734 175.359 477.911 175.359Z" fill="#222222"/>
<path d="M452.282 203.43C436.779 203.43 424.212 190.863 424.212 175.36C424.212 159.857 436.779 147.29 452.282 147.29C467.784 147.29 480.352 159.857 480.352 175.36C480.352 190.863 467.784 203.43 452.282 203.43Z" fill="#222222"/>
<path d="M385.469 122.14C385.869 122.14 386.269 122.02 386.619 121.78C391.619 118.27 394.609 112.52 394.609 106.42C394.609 96.0802 386.189 87.6602 375.849 87.6602C366.979 87.6602 359.249 93.9602 357.469 102.64C357.249 103.72 357.949 104.78 359.029 105C360.109 105.23 361.169 104.52 361.389 103.44C362.789 96.6102 368.869 91.6602 375.849 91.6602C383.989 91.6602 390.609 98.2802 390.609 106.42C390.609 111.23 388.259 115.75 384.319 118.51C383.419 119.14 383.199 120.39 383.829 121.3C384.219 121.85 384.839 122.15 385.469 122.15V122.14Z" fill="#222222"/>
<path d="M374.542 103.37C374.542 105.91 376.602 107.97 379.142 107.97C381.682 107.97 383.742 105.91 383.742 103.37C383.742 100.83 381.682 98.7695 379.142 98.7695C376.602 98.7695 374.542 100.83 374.542 103.37Z" fill="#222222"/>
<path d="M398.78 101.55C398.78 104.09 400.84 106.15 403.38 106.15C405.92 106.15 407.98 104.09 407.98 101.55C407.98 99.0102 405.92 96.9502 403.38 96.9502C400.84 96.9502 398.78 99.0102 398.78 101.55Z" fill="#222222"/>
<path d="M388.832 139.519C393.212 139.519 397.602 137.949 400.822 134.859C401.622 134.099 401.642 132.829 400.882 132.029C400.122 131.229 398.852 131.209 398.052 131.969C393.422 136.409 385.342 136.699 380.412 132.609C379.562 131.909 378.302 132.019 377.592 132.869C376.882 133.719 377.002 134.979 377.852 135.689C380.942 138.259 384.882 139.529 388.822 139.529L388.832 139.519Z" fill="#222222"/>
<path d="M398.219 59.0895C398.219 59.0895 392.919 80.3895 362.499 90.0095C332.089 99.6395 386.079 49.1895 386.079 49.1895L398.219 59.0895Z" fill="#222222"/>
<path d="M424.66 115.843C422.563 106.958 428.065 98.0552 436.951 95.9581C445.836 93.861 454.739 99.3638 456.836 108.249C458.933 117.134 453.43 126.037 444.545 128.134C435.66 130.231 426.757 124.728 424.66 115.843Z" fill="white"/>
<path d="M436.73 119.76C443.09 119.76 449.38 115.42 451.28 109.29C451.61 108.24 451.02 107.11 449.96 106.79C448.91 106.46 447.78 107.05 447.46 108.11C445.89 113.16 439.98 116.65 434.8 115.57C433.72 115.35 432.66 116.04 432.43 117.12C432.21 118.2 432.9 119.26 433.98 119.49C434.89 119.68 435.81 119.77 436.73 119.77V119.76Z" fill="#222222"/>
<path d="M400.921 9.62988C477.141 9.62988 539.201 71.4199 539.641 147.54V148.35C539.641 162.16 537.611 175.51 533.831 188.11C532.711 191.86 531.431 195.53 530.011 199.14C529.881 199.47 529.741 199.81 529.601 200.14C529.311 200.88 529.011 201.61 528.691 202.34C528.381 203.08 528.061 203.82 527.731 204.55C527.361 205.39 526.981 206.22 526.591 207.05C526.271 207.73 525.951 208.41 525.621 209.08C525.291 209.76 524.951 210.44 524.611 211.11C522.281 215.68 519.701 220.11 516.901 224.38C513.301 229.86 509.321 235.06 505.001 239.96C499.791 245.88 494.081 251.36 487.931 256.31C464.121 275.54 433.841 287.07 400.921 287.07C358.141 287.07 319.821 267.61 294.371 237.06C274.291 213 262.201 182.06 262.201 148.35V147.54C262.641 71.4199 324.701 9.62988 400.921 9.62988ZM535.641 147.54C535.201 73.6199 474.941 13.6299 400.921 13.6299C326.901 13.6299 266.641 73.6199 266.201 147.54V148.35C266.201 179.85 277.071 208.86 295.251 231.83C319.941 263.02 358.131 283.07 400.921 283.07C433.391 283.07 463.221 271.52 486.511 252.31C489.651 249.72 492.681 246.99 495.571 244.12C501.671 238.1 507.211 231.49 512.071 224.39C514.971 220.18 517.631 215.8 520.021 211.26C520.391 210.58 520.741 209.9 521.091 209.22C521.431 208.55 521.771 207.87 522.091 207.19C523.131 205.08 524.101 202.94 525.021 200.77C525.321 200.08 525.601 199.4 525.881 198.7C526.161 198.02 526.431 197.33 526.701 196.63C527.691 194.07 528.601 191.47 529.421 188.83C529.481 188.66 529.541 188.48 529.591 188.31C533.521 175.68 535.641 162.26 535.641 148.35V147.54Z" fill="#222222"/>
<path d="M159.904 314.841H118.434V292.681H159.904V314.841Z" fill="white"/>
<path d="M118.432 319.18H159.902C161.002 319.18 161.902 318.28 161.902 317.18V292.69C161.902 291.59 161.002 290.69 159.902 290.69H118.432C117.332 290.69 116.432 291.59 116.432 292.69V317.18C116.432 318.28 117.332 319.18 118.432 319.18ZM157.902 315.18H120.432V294.69H157.902V315.18Z" fill="#222222"/>
<path d="M139.953 300.691C110.456 300.691 86.5433 276.779 86.5433 247.281C86.5433 217.784 110.456 193.871 139.953 193.871C169.451 193.871 193.363 217.784 193.363 247.281C193.363 276.779 169.451 300.691 139.953 300.691Z" fill="white"/>
<path d="M139.953 302.691C170.503 302.691 195.363 277.831 195.363 247.281C195.363 216.731 170.503 191.871 139.953 191.871C124.263 191.871 109.243 198.571 98.7433 210.241C98.0033 211.061 98.0733 212.321 98.8933 213.061C99.7133 213.801 100.973 213.731 101.713 212.911C111.453 202.081 125.393 195.871 139.953 195.871C168.303 195.871 191.363 218.931 191.363 247.281C191.363 275.631 168.303 298.691 139.953 298.691C137.373 298.691 134.773 298.501 132.233 298.111C131.153 297.941 130.123 298.701 129.953 299.791C129.783 300.881 130.543 301.901 131.633 302.071C134.363 302.481 137.163 302.691 139.943 302.691H139.953Z" fill="#222222"/>
<path d="M167.042 260.73C167.672 260.73 168.292 260.43 168.682 259.88C169.312 258.98 169.102 257.73 168.192 257.09C164.252 254.32 161.902 249.8 161.902 245C161.902 236.86 168.522 230.24 176.662 230.24C183.642 230.24 189.722 235.2 191.122 242.02C191.342 243.1 192.402 243.8 193.482 243.58C194.562 243.36 195.262 242.3 195.042 241.22C193.262 232.54 185.532 226.24 176.662 226.24C166.322 226.24 157.902 234.66 157.902 245C157.902 251.11 160.892 256.85 165.892 260.36C166.242 260.61 166.642 260.72 167.042 260.72V260.73Z" fill="#222222"/>
<path d="M177.973 241.96C177.973 244.5 175.913 246.56 173.373 246.56C170.833 246.56 168.773 244.5 168.773 241.96C168.773 239.42 170.833 237.36 173.373 237.36C175.913 237.36 177.973 239.42 177.973 241.96Z" fill="#222222"/>
<path d="M153.734 240.141C153.734 242.681 151.674 244.741 149.134 244.741C146.594 244.741 144.534 242.681 144.534 240.141C144.534 237.601 146.594 235.541 149.134 235.541C151.674 235.541 153.734 237.601 153.734 240.141Z" fill="#222222"/>
<path d="M163.681 278.11C167.621 278.11 171.561 276.84 174.651 274.28C175.501 273.57 175.621 272.31 174.911 271.46C174.201 270.61 172.941 270.49 172.091 271.2C167.151 275.29 159.071 275 154.441 270.56C153.641 269.8 152.381 269.82 151.611 270.62C150.851 271.42 150.871 272.68 151.671 273.45C154.901 276.55 159.281 278.11 163.661 278.11H163.681Z" fill="#222222"/>
<path d="M173.373 221.721C162.233 221.721 153.203 212.69 153.203 201.551C153.203 190.411 162.233 181.381 173.373 181.381C184.513 181.381 193.543 190.411 193.543 201.551C193.543 212.69 184.513 221.721 173.373 221.721Z" fill="#222222"/>
<path d="M139.724 213.697C128.43 211.032 121.436 199.716 124.102 188.423C126.767 177.129 138.083 170.135 149.376 172.801C160.669 175.466 167.663 186.782 164.998 198.075C162.333 209.368 151.017 216.363 139.724 213.697Z" fill="#222222"/>
<path d="M113.29 222.921C101.981 220.252 94.9765 208.92 97.6458 197.611C100.315 186.302 111.647 179.297 122.956 181.967C134.266 184.636 141.27 195.968 138.6 207.277C135.931 218.587 124.599 225.591 113.29 222.921Z" fill="#222222"/>
<path d="M80.0307 236.921C72.2475 229.138 72.2475 216.519 80.0307 208.735C87.8138 200.952 100.433 200.952 108.216 208.735C115.999 216.519 115.999 229.138 108.216 236.921C100.433 244.704 87.8138 244.704 80.0307 236.921Z" fill="#222222"/>
<path d="M109.437 237.559C101.654 229.776 101.654 217.157 109.437 209.374C117.22 201.591 129.839 201.591 137.622 209.374C145.405 217.157 145.405 229.776 137.622 237.559C129.839 245.343 117.22 245.343 109.437 237.559Z" fill="#222222"/>
<path d="M72.4526 261.37C64.6694 253.587 64.6694 240.968 72.4526 233.185C80.2357 225.402 92.8547 225.402 100.638 233.185C108.421 240.968 108.421 253.587 100.638 261.37C92.8547 269.153 80.2357 269.153 72.4526 261.37Z" fill="#222222"/>
<path d="M78.5653 291.638C69.9738 283.047 69.9738 269.117 78.5653 260.526C87.1569 251.934 101.086 251.934 109.678 260.526C118.27 269.117 118.27 283.047 109.678 291.638C101.087 300.23 87.1569 300.23 78.5653 291.638Z" fill="#222222"/>
<path d="M110.29 303.561C102.353 302.273 96.963 294.794 98.2515 286.857C99.5399 278.919 107.019 273.529 114.956 274.818C122.894 276.106 128.284 283.585 126.995 291.522C125.707 299.46 118.228 304.85 110.29 303.561Z" fill="#222222"/>
<path d="M198.102 232.621C187.946 232.621 179.712 224.387 179.712 214.231C179.712 204.074 187.946 195.841 198.102 195.841C208.259 195.841 216.492 204.074 216.492 214.231C216.492 224.387 208.259 232.621 198.102 232.621Z" fill="#222222"/>
<path d="M100.075 262.324C93.6198 255.869 93.6198 245.403 100.075 238.947C106.531 232.492 116.997 232.492 123.452 238.947C129.908 245.403 129.908 255.869 123.452 262.324C116.997 268.78 106.531 268.78 100.075 262.324Z" fill="white"/>
<path d="M115.781 258.351C116.701 258.351 117.621 258.261 118.531 258.071C119.611 257.851 120.311 256.791 120.081 255.701C119.861 254.621 118.801 253.921 117.711 254.151C112.531 255.221 106.611 251.741 105.041 246.691C104.711 245.641 103.591 245.041 102.541 245.371C101.491 245.701 100.901 246.821 101.221 247.871C103.121 254.001 109.411 258.341 115.771 258.341L115.781 258.351Z" fill="#222222"/>
<path d="M35.5136 368.661C60.9236 396.971 97.7836 414.801 138.724 414.801C179.664 414.801 218.724 395.891 244.184 366.101L243.684 360.441L241.684 337.491C240.564 324.681 229.834 314.851 216.974 314.851H62.9336C50.0736 314.851 39.3536 324.681 38.2336 337.491L35.9936 363.141L35.5136 368.661Z" fill="#C7C7C7"/>
<path d="M31.5428 364.041C56.9928 395.011 95.5928 414.801 138.723 414.801C181.853 414.801 222.213 394.101 247.633 361.901L246.463 356.871L240.893 333.101L38.6628 334.531L32.7228 359.141L31.5428 364.041Z" fill="#C7C7C7"/>
<path d="M204.203 380.83C204.273 380.83 204.333 380.83 204.403 380.83C205.503 380.72 206.303 379.74 206.193 378.64L203.493 351.36C203.383 350.26 202.413 349.45 201.303 349.57C200.203 349.68 199.403 350.66 199.513 351.76L202.213 379.04C202.313 380.07 203.183 380.84 204.203 380.84V380.83Z" fill="#222222"/>
<path d="M138.721 137.36C215.211 137.36 277.441 199.59 277.441 276.08C277.441 308.46 266.291 338.28 247.631 361.9C222.211 394.1 182.841 414.8 138.721 414.8C94.6014 414.8 56.9914 395.01 31.5414 364.04C11.8414 340.09 0.00140381 309.44 0.00140381 276.08C0.00140381 199.59 62.2314 137.36 138.721 137.36ZM32.7214 359.14C57.4114 390.57 95.7414 410.8 138.721 410.8C181.701 410.8 221.861 389.6 246.461 356.87C263.391 334.35 273.441 306.36 273.441 276.08C273.441 201.79 213.001 141.36 138.721 141.36C64.4414 141.36 4.0014 201.79 4.0014 276.08C4.0014 307.39 14.7414 336.24 32.7214 359.14Z" fill="#222222"/>
<path d="M72.1601 383.73C73.0801 383.73 73.9101 383.09 74.1101 382.16L80.7101 351.98C80.9501 350.9 80.2601 349.83 79.1801 349.6C78.1001 349.37 77.0401 350.05 76.8001 351.13L70.2001 381.31C69.9601 382.39 70.6501 383.46 71.7301 383.69C71.8701 383.72 72.0201 383.74 72.1601 383.74V383.73Z" fill="#222222"/>
<path d="M138.921 137C215.411 137 277.641 199.23 277.641 275.72V276.54C277.561 290.66 275.351 304.29 271.331 317.12C270.351 320.27 269.251 323.36 268.051 326.41C267.771 327.13 267.481 327.84 267.181 328.56C266.891 329.28 266.581 330 266.271 330.71C265.961 331.44 265.641 332.16 265.321 332.88C264.821 333.95 264.321 335.01 263.811 336.07C263.481 336.75 263.141 337.44 262.801 338.11C262.461 338.79 262.111 339.47 261.751 340.14C259.351 344.71 256.691 349.13 253.811 353.38C249.711 359.43 245.141 365.14 240.151 370.46C235.591 375.34 230.681 379.89 225.451 384.06C201.711 403.06 171.621 414.44 138.921 414.44C96.2706 414.44 58.0606 395.09 32.6006 364.72C12.5506 340.81 0.400623 310.07 0.200623 276.54V275.72C0.200623 199.23 62.4306 137 138.921 137ZM4.20062 276.54C4.39062 307.86 15.3206 336.68 33.4806 359.49C58.1806 390.52 96.2606 410.44 138.921 410.44C171.221 410.44 200.901 399.01 224.141 379.99C226.551 378.01 228.901 375.96 231.171 373.82C237.751 367.63 243.711 360.78 248.941 353.39C251.911 349.2 254.651 344.82 257.141 340.29C257.511 339.61 257.871 338.93 258.241 338.25C258.591 337.58 258.941 336.9 259.281 336.22C260.441 333.93 261.531 331.6 262.561 329.23C262.851 328.56 263.141 327.88 263.421 327.2C263.701 326.52 263.981 325.84 264.251 325.16C265.261 322.6 266.201 320 267.051 317.37C267.121 317.17 267.181 316.98 267.241 316.78C271.321 304.08 273.551 290.56 273.641 276.54V275.72C273.641 201.44 213.211 141 138.921 141C64.6306 141 4.20062 201.44 4.20062 275.72V276.54Z" fill="#222222"/>
<path d="M320.976 12.666H254.309C250.811 12.666 247.976 15.5013 247.976 18.999V60.666C247.976 64.1639 250.811 66.999 254.309 66.999H288.471L289.056 67.585L306.476 85.0049V66.999H320.976C324.473 66.9988 327.309 64.1638 327.309 60.666V18.999C327.308 15.5015 324.473 12.6662 320.976 12.666Z" fill="#46CE7A" stroke="#222222" stroke-width="4"/>
<path d="M302.225 34.625H308.475C309.626 34.625 310.559 35.5578 310.559 36.7083V42.9583C310.559 44.1088 309.626 45.0417 308.475 45.0417H302.225C301.075 45.0417 300.142 44.1088 300.142 42.9583V36.7083C300.142 35.5578 301.075 34.625 302.225 34.625Z" fill="#222222"/>
<path d="M284.514 34.625H290.764C291.915 34.625 292.848 35.5578 292.848 36.7083V42.9583C292.848 44.1088 291.915 45.0417 290.764 45.0417H284.514C283.364 45.0417 282.431 44.1088 282.431 42.9583V36.7083C282.431 35.5578 283.364 34.625 284.514 34.625Z" fill="#222222"/>
<path d="M266.807 34.625H273.057C274.208 34.625 275.141 35.5578 275.141 36.7083V42.9583C275.141 44.1088 274.208 45.0417 273.057 45.0417H266.807C265.657 45.0417 264.724 44.1088 264.724 42.9583V36.7083C264.724 35.5578 265.657 34.625 266.807 34.625Z" fill="#222222"/>
<path d="M223.306 154.666H289.973C293.47 154.666 296.305 157.501 296.306 160.999V202.666C296.306 206.164 293.471 208.999 289.973 208.999H255.811L255.226 209.585L237.806 227.005V208.999H223.306C219.808 208.999 216.973 206.164 216.973 202.666V160.999C216.973 157.501 219.808 154.666 223.306 154.666Z" fill="#FF9F19" stroke="#222222" stroke-width="4"/>
<path d="M242.056 176.625H235.806C234.655 176.625 233.723 177.558 233.723 178.708V184.958C233.723 186.109 234.655 187.042 235.806 187.042H242.056C243.207 187.042 244.139 186.109 244.139 184.958V178.708C244.139 177.558 243.207 176.625 242.056 176.625Z" fill="#222222"/>
<path d="M259.767 176.625H253.517C252.367 176.625 251.434 177.558 251.434 178.708V184.958C251.434 186.109 252.367 187.042 253.517 187.042H259.767C260.917 187.042 261.85 186.109 261.85 184.958V178.708C261.85 177.558 260.917 176.625 259.767 176.625Z" fill="#222222"/>
<path d="M277.474 176.625H271.224C270.074 176.625 269.141 177.558 269.141 178.708V184.958C269.141 186.109 270.074 187.042 271.224 187.042H277.474C278.624 187.042 279.557 186.109 279.557 184.958V178.708C279.557 177.558 278.624 176.625 277.474 176.625Z" fill="#222222"/>
</g>
<defs>
<clipPath id="clip0_4119_1061">
<rect width="600" height="450" fill="white" transform="matrix(-1 0 0 1 600 0)"/>
</clipPath>
</defs>
</svg>
