<svg width="600" height="450" viewBox="0 0 600 450" fill="none" xmlns="http://www.w3.org/2000/svg">
<path d="M433.715 414.589L433.714 449.582H228.123L232.975 400.68L433.715 414.589Z" fill="#222222"/>
<path d="M312.428 223.043L353.074 227.896L348.22 268.542L307.574 263.689L312.428 223.043Z" fill="white"/>
<path d="M348.224 269.844C348.516 269.844 348.796 269.746 349.03 269.564C349.303 269.35 349.479 269.037 349.518 268.699L353.471 235.568C353.556 234.852 353.049 234.209 352.333 234.124L311.691 229.273C311.353 229.234 311.002 229.332 310.735 229.54C310.462 229.754 310.287 230.066 310.248 230.405L306.294 263.536C306.209 264.251 306.717 264.895 307.432 264.98L348.074 269.831C348.126 269.831 348.178 269.837 348.23 269.837L348.224 269.844ZM350.734 236.55L347.086 267.093L309.025 262.548L312.673 232.004L350.734 236.55Z" fill="#222222"/>
<path d="M401.668 282.85C401.668 282.85 355.713 251.266 247.969 257.482L251.474 296.505L283.071 302.963H354.243L384.527 290.796L401.661 282.85H401.668Z" fill="#C7C7C7"/>
<path d="M319.62 243.427C299.647 237.974 287.876 217.362 293.328 197.389C298.781 177.416 319.393 165.645 339.366 171.097C359.34 176.55 371.111 197.162 365.658 217.136C360.205 237.109 339.593 248.88 319.62 243.427Z" fill="white"/>
<path d="M329.526 246.043C330.599 246.043 331.665 245.998 332.732 245.913C333.447 245.855 333.98 245.224 333.922 244.509C333.863 243.793 333.252 243.254 332.517 243.319C330.716 243.468 328.882 243.481 327.068 243.358C317.424 242.707 308.607 238.344 302.247 231.068C295.887 223.791 292.74 214.473 293.384 204.822C294.717 184.911 312.001 169.799 331.919 171.138C342.141 171.828 351.642 176.848 357.976 184.911C358.418 185.477 359.237 185.574 359.803 185.132C360.369 184.69 360.466 183.871 360.024 183.305C353.235 174.656 343.058 169.278 332.101 168.537C310.772 167.107 292.233 183.305 290.796 204.647C290.1 214.986 293.475 224.974 300.296 232.778C307.118 240.581 316.566 245.257 326.905 245.952C327.783 246.011 328.661 246.043 329.539 246.043H329.526Z" fill="#222222"/>
<path d="M309.982 215.292C310.21 215.292 310.444 215.233 310.658 215.103C314.3 212.892 316.647 209.043 316.927 204.796C317.161 201.317 316.023 197.949 313.728 195.322C311.432 192.695 308.246 191.121 304.767 190.887C298.602 190.471 292.938 194.489 291.3 200.44C291.111 201.129 291.514 201.851 292.21 202.039C292.906 202.228 293.621 201.825 293.81 201.129C295.123 196.362 299.662 193.143 304.598 193.482C307.387 193.67 309.937 194.932 311.777 197.032C313.617 199.139 314.527 201.831 314.339 204.621C314.111 208.022 312.232 211.104 309.312 212.873C308.701 213.243 308.499 214.043 308.877 214.661C309.124 215.064 309.553 215.285 309.989 215.285L309.982 215.292Z" fill="#222222"/>
<path d="M303.114 201.734C302.997 203.509 304.336 205.05 306.118 205.167C307.9 205.285 309.434 203.945 309.551 202.163C309.669 200.388 308.329 198.847 306.547 198.73C304.772 198.613 303.231 199.952 303.114 201.734Z" fill="#222222"/>
<path d="M320.172 201.597C320.055 203.373 321.395 204.914 323.177 205.031C324.952 205.148 326.493 203.808 326.61 202.027C326.727 200.251 325.388 198.71 323.606 198.593C321.831 198.476 320.289 199.816 320.172 201.597Z" fill="#222222"/>
<path d="M312.29 227.648C315.053 227.648 317.817 226.75 319.982 224.936C320.535 224.474 320.607 223.655 320.145 223.102C319.683 222.549 318.864 222.478 318.311 222.94C314.826 225.866 309.084 225.684 305.787 222.549C305.267 222.055 304.441 222.075 303.947 222.595C303.452 223.115 303.472 223.941 303.992 224.435C306.236 226.562 309.259 227.641 312.29 227.641V227.648Z" fill="#222222"/>
<path d="M364.824 237.649C352.326 237.649 342.194 225.197 342.194 209.837C342.194 194.476 352.326 182.024 364.824 182.024C377.322 182.024 387.453 194.476 387.453 209.837C387.453 225.197 377.322 237.649 364.824 237.649Z" fill="#222222"/>
<path d="M240.583 287.399L389.324 297.383L381.721 410.659L232.98 400.676L240.583 287.399Z" fill="#C7C7C7"/>
<path d="M219.908 292.937C216.248 277.432 225.851 261.896 241.356 258.236C256.862 254.577 272.398 264.18 276.057 279.685C279.717 295.19 270.114 310.726 254.609 314.386C239.104 318.046 223.567 308.443 219.908 292.937Z" fill="#C7C7C7"/>
<path d="M231.556 262.65L262.797 303.217L195.521 355.026L164.28 314.459L231.556 262.65Z" fill="#C7C7C7"/>
<path d="M362.908 323.183C354.459 309.677 358.558 291.878 372.064 283.429C385.57 274.98 403.369 279.079 411.818 292.585C420.268 306.091 416.168 323.89 402.662 332.339C389.156 340.788 371.358 336.689 362.908 323.183Z" fill="#C7C7C7"/>
<rect x="-1.7878" y="1.7878" width="193.278" height="113.963" rx="7.76818" transform="matrix(-1 0 0 1 513.397 305.574)" fill="white"/>
<rect x="-1.7878" y="1.7878" width="193.278" height="113.963" rx="7.76818" transform="matrix(-1 0 0 1 513.397 305.574)" stroke="#222222" stroke-width="3.5756"/>
<rect width="158.629" height="19.112" rx="3.82239" transform="matrix(-1 0 0 1 497.855 320.865)" fill="#222222"/>
<rect width="77.4034" height="64.9807" rx="3.82239" transform="matrix(-1 0 0 1 497.855 343.798)" fill="#222222"/>
<rect width="77.4034" height="19.112" rx="3.82239" transform="matrix(-1 0 0 1 416.629 343.798)" fill="#222222"/>
<rect width="77.4034" height="19.112" rx="3.82239" transform="matrix(-1 0 0 1 416.629 366.732)" fill="#222222"/>
<rect width="77.4034" height="19.112" rx="3.82239" transform="matrix(-1 0 0 1 416.629 389.667)" fill="#222222"/>
<path d="M121.844 250.666L169.5 231.941L206.692 326.6L159.035 345.324L121.844 250.666Z" fill="#C7C7C7"/>
<path d="M181.819 358.971C167.619 358.971 156.108 347.459 156.108 333.259C156.108 319.058 167.619 307.547 181.819 307.547C196.02 307.547 207.531 319.058 207.531 333.259C207.531 347.459 196.02 358.971 181.819 358.971Z" fill="#C7C7C7"/>
<path d="M123.536 255.61C118.665 243.814 114.705 231.315 109.705 218.011C109.035 216.229 107.188 211.293 107.188 211.293C118.386 206.995 135.625 200.954 146.822 196.662C148.884 195.869 152.714 194.49 152.714 194.49C157.753 206.293 165.472 223.356 170.512 235.158L123.536 255.61Z" fill="white"/>
<path d="M142.878 202.99L133.3 178.683C132.155 175.652 133.683 172.264 136.713 171.113L137.149 170.944C140.179 169.8 143.567 171.328 144.718 174.358L154.297 198.666L142.878 202.983V202.99Z" fill="white"/>
<path d="M160.541 191.151L150.229 209.113L160.82 215.193L171.128 197.237C172.741 194.429 171.768 190.833 168.959 189.221L168.553 188.988C165.745 187.376 162.15 188.348 160.537 191.157L160.541 191.151Z" fill="white"/>
<path d="M131.984 208.381L119.784 176.355C118.64 173.324 120.168 169.936 123.198 168.785L123.634 168.616C126.664 167.472 130.052 169 131.203 172.03L143.402 204.056L131.984 208.374V208.381Z" fill="white"/>
<path d="M121.077 213.772L109.288 181.603C108.143 178.572 109.671 175.184 112.702 174.033L113.137 173.864C116.168 172.72 119.556 174.248 120.707 177.278L132.496 209.447L121.077 213.765V213.772Z" fill="white"/>
<path d="M107.448 212.854L97.6422 198.256C95.6004 195.739 95.984 192.039 98.5006 189.997L98.8648 189.704C101.381 187.663 105.081 188.046 107.123 190.563L123.309 211.059L107.448 212.848V212.854Z" fill="white"/>
<path d="M152.722 194.491C152.722 194.491 154.25 200.037 157.488 196.48L157.215 201.462L155.323 203.334L153.04 199.842L150.719 194.211L152.728 194.484L152.722 194.491Z" fill="white"/>
<path d="M157.478 342.87C157.634 342.87 157.797 342.844 157.953 342.779C158.623 342.519 158.954 341.764 158.688 341.095L126.642 259.329L110.606 215.416C110.574 215.325 110.528 215.241 110.476 215.156L98.6218 196.786C98.6218 196.786 97.2563 194.62 97.731 192.637C97.9716 191.649 98.6284 190.849 99.7403 190.199C102.133 188.8 104.689 190.498 105.703 191.59C110.919 197.176 117.363 206.202 117.428 206.293C117.805 206.826 118.52 206.989 119.092 206.69C119.671 206.384 119.931 205.701 119.704 205.09L110.736 180.835C110.593 180.464 109.501 177.291 112.616 175.314C115.776 173.311 118.169 175.34 118.436 175.58C118.442 175.587 118.579 175.71 118.767 175.938C119.223 177.05 119.873 177.954 120.081 178.227C120.471 178.741 121.18 178.89 121.739 178.585C122.305 178.279 122.558 177.603 122.337 176.998C121.967 175.99 121.479 175.203 121.063 174.637C120.933 174.254 120.868 173.909 120.933 173.669L121.017 173.337C121.388 171.802 121.811 170.066 125.212 169.292C128.58 168.525 130.18 172.095 130.245 172.244L131.948 176.718C132.176 177.317 132.813 177.661 133.438 177.525C134.068 177.388 134.504 176.816 134.465 176.179C134.465 176.068 134.38 173.226 137.443 172.01C137.469 171.997 137.495 171.984 137.521 171.978C137.625 171.932 140.259 170.749 142.548 172.745C142.548 172.745 143.393 173.604 144.161 175.541L151.736 194.62C151.944 195.258 152.881 197.846 154.832 198.503C155.482 198.717 156.483 198.802 157.621 198.002C157.94 197.794 158.629 197.209 159.52 195.661L161.913 191.493C161.913 191.493 161.939 191.441 161.952 191.415C161.985 191.35 162.96 189.496 165.405 189.223C167.896 188.944 169.69 190.959 169.71 190.985C169.729 191.005 169.749 191.031 169.768 191.05C169.84 191.122 171.628 193.027 170.581 195.557C170.581 195.557 170.295 196.188 169.82 197.02L160.469 213.303C160.261 213.66 160.242 214.096 160.404 214.473L169.56 235.38L191.8 292.818C191.949 293.202 192.268 293.488 192.665 293.599C193.061 293.709 193.484 293.625 193.809 293.378L229.613 265.806C230.185 265.37 230.289 264.551 229.847 263.985C229.412 263.413 228.592 263.309 228.02 263.751L193.594 290.263L171.966 234.391L163.051 214.031L172.077 198.314C172.636 197.339 172.961 196.61 172.974 196.578C174.626 192.592 172.005 189.626 171.654 189.256C171.342 188.904 168.825 186.232 165.119 186.642C161.451 187.051 159.871 189.789 159.644 190.225L157.264 194.367C156.711 195.336 156.314 195.719 156.204 195.817C156.171 195.836 156.191 195.823 156.132 195.869C155.82 196.09 155.69 196.051 155.651 196.038C155.157 195.875 154.487 194.724 154.194 193.801C154.188 193.769 154.175 193.736 154.162 193.71L146.573 174.592C145.578 172.069 144.414 170.944 144.284 170.82C140.831 167.803 136.949 169.39 136.448 169.617C134.842 170.261 133.756 171.256 133.054 172.316L132.657 171.276C131.773 169.247 128.996 165.774 124.633 166.769C119.814 167.868 118.949 170.853 118.527 172.576C116.738 171.737 114.066 171.334 111.231 173.135C107.231 175.671 107.576 179.898 108.317 181.777L114.183 197.644C112.148 195.043 109.794 192.175 107.609 189.834C105.508 187.584 101.743 186.037 98.4333 187.968C96.6905 188.983 95.6046 190.361 95.2014 192.065C94.4731 195.147 96.3589 198.093 96.4434 198.216L108.213 216.463L124.21 260.272L156.269 342.07C156.47 342.584 156.958 342.896 157.478 342.896V342.87Z" fill="#222222"/>
<path d="M132.287 208.686C132.436 208.686 132.592 208.66 132.742 208.602C133.418 208.348 133.756 207.6 133.509 206.931L122.35 176.979C122.103 176.303 121.349 175.965 120.679 176.212C120.003 176.465 119.665 177.213 119.912 177.883L131.071 207.834C131.266 208.355 131.76 208.68 132.287 208.68V208.686Z" fill="#222222"/>
<path d="M143.128 203.964C143.277 203.964 143.433 203.938 143.589 203.88C144.259 203.626 144.604 202.878 144.35 202.202L134.394 175.775C134.141 175.105 133.393 174.76 132.717 175.014C132.047 175.268 131.702 176.016 131.956 176.692L141.912 203.119C142.107 203.639 142.601 203.964 143.128 203.964Z" fill="#222222"/>
<path d="M124.249 215.169C124.503 215.169 124.763 215.097 124.984 214.941C125.576 214.531 125.725 213.725 125.316 213.133L119.561 204.79C119.151 204.199 118.345 204.049 117.753 204.459C117.161 204.868 117.012 205.675 117.421 206.266L123.176 214.61C123.43 214.974 123.833 215.169 124.249 215.169Z" fill="#222222"/>
<g clip-path="url(#clip0_4119_936)">
<path d="M133.235 212.353C159.622 212.353 181.013 190.962 181.013 164.575C181.013 138.188 159.622 116.797 133.235 116.797C106.848 116.797 85.457 138.188 85.457 164.575C85.457 190.962 106.848 212.353 133.235 212.353Z" fill="#FF9F19"/>
<path d="M133.235 213.802C106.089 213.802 84 191.72 84 164.575C84 137.429 106.089 115.34 133.235 115.34C160.38 115.34 182.47 137.422 182.47 164.575C182.47 191.728 160.38 213.81 133.235 213.81V213.802ZM133.235 118.254C107.692 118.254 86.9142 139.032 86.9142 164.575C86.9142 190.117 107.692 210.896 133.235 210.896C158.778 210.896 179.556 190.117 179.556 164.575C179.556 139.032 158.77 118.254 133.235 118.254Z" fill="#222222"/>
<path d="M133.237 202.066C153.943 202.066 170.728 185.28 170.728 164.575C170.728 143.869 153.943 127.084 133.237 127.084C112.531 127.084 95.7461 143.869 95.7461 164.575C95.7461 185.28 112.531 202.066 133.237 202.066Z" fill="#FF9F19"/>
<path d="M120.713 182.075L117.121 166.832H111.781V162.172H116.004L112.412 146.929H119.111L122.266 162.172H126.975L130.47 146.929H136.733L140.228 162.172H144.985L148.092 146.929H154.791L151.199 162.172H155.422V166.832H150.082L146.49 182.075H139.403L135.956 166.832H131.296L127.801 182.075H120.713ZM123.237 166.832L124.354 172.318H124.645L125.907 166.832H123.237ZM132.364 162.172H134.888L133.723 157.123H133.48L132.364 162.172ZM141.296 166.832L142.558 172.366H142.849L144.014 166.832H141.296Z" fill="white"/>
<path d="M133.237 203.523C111.76 203.523 94.2891 186.052 94.2891 164.575C94.2891 143.097 111.76 125.627 133.237 125.627C154.714 125.627 172.185 143.097 172.185 164.575C172.185 186.052 154.714 203.523 133.237 203.523ZM133.237 128.541C113.37 128.541 97.2032 144.707 97.2032 164.575C97.2032 184.442 113.37 200.609 133.237 200.609C153.104 200.609 169.271 184.442 169.271 164.575C169.271 144.707 153.104 128.541 133.237 128.541Z" fill="#222222"/>
</g>
<path d="M124.249 213.868C128.177 209.166 134.452 206.338 140.467 207.508C146.482 208.679 151.704 213.302 153.59 219.135L124.249 213.868Z" fill="white"/>
<path d="M153.589 221.411C153.823 221.411 154.057 221.379 154.291 221.301C155.488 220.917 156.145 219.629 155.755 218.433C153.602 211.774 147.776 206.604 140.902 205.271C134.4 204.01 127.182 206.812 122.506 212.405C121.7 213.367 121.83 214.804 122.792 215.611C123.761 216.417 125.192 216.287 125.998 215.325C129.627 210.981 135.141 208.789 140.037 209.739C145.227 210.747 149.805 214.798 151.424 219.831C151.736 220.793 152.627 221.411 153.589 221.411Z" fill="#222222"/>
<path d="M398.842 320.702C394.954 320.442 392.008 317.074 392.268 313.185L393.705 291.785C393.965 287.896 397.334 284.95 401.222 285.21C405.111 285.47 408.057 288.839 407.797 292.727L406.359 314.128C406.099 318.017 402.731 320.962 398.842 320.702Z" fill="white"/>
<path d="M412.49 328.161C408.601 327.901 405.656 324.532 405.916 320.643L407.795 292.617C408.055 288.728 411.423 285.782 415.312 286.042C419.201 286.302 422.146 289.671 421.886 293.56L420.007 321.586C419.747 325.475 416.379 328.421 412.49 328.161Z" fill="white"/>
<path d="M426.957 322.555C423.068 322.295 420.122 318.926 420.383 315.038L421.826 293.52C422.086 289.631 425.455 286.686 429.343 286.946C433.232 287.206 436.178 290.574 435.918 294.463L434.474 315.98C434.214 319.869 430.845 322.815 426.957 322.555Z" fill="white"/>
<path d="M441.545 316.429C437.656 316.169 434.71 312.8 434.971 308.912L435.939 294.508C436.2 290.62 439.568 287.674 443.457 287.934C447.345 288.194 450.291 291.562 450.031 295.451L449.062 309.855C448.802 313.743 445.433 316.689 441.545 316.429Z" fill="white"/>
<path d="M399.317 322.022C403.674 322.022 407.354 318.634 407.654 314.219L409.091 292.818C409.396 288.221 405.911 284.228 401.307 283.916C396.722 283.604 392.717 287.096 392.405 291.7L390.968 313.1C390.662 317.698 394.147 321.69 398.751 322.002C398.94 322.015 399.129 322.022 399.317 322.022ZM400.748 286.497C400.878 286.497 401.008 286.497 401.138 286.51C404.305 286.725 406.711 289.476 406.503 292.643L405.066 314.043C404.851 317.21 402.107 319.622 398.933 319.401C395.767 319.187 393.361 316.436 393.569 313.269L395.006 291.869C395.207 288.832 397.75 286.497 400.748 286.497Z" fill="#222222"/>
<path d="M412.972 329.481C417.329 329.481 421.009 326.093 421.309 321.677L423.188 293.65C423.337 291.42 422.609 289.268 421.139 287.59C419.67 285.906 417.634 284.898 415.404 284.748C410.807 284.443 406.807 287.928 406.502 292.532L404.622 320.559C404.317 325.156 407.802 329.149 412.406 329.461C412.595 329.474 412.783 329.481 412.972 329.481ZM414.845 287.33C414.975 287.33 415.105 287.33 415.235 287.343C416.77 287.447 418.174 288.143 419.189 289.3C420.203 290.458 420.704 291.94 420.6 293.475L418.72 321.502C418.506 324.668 415.768 327.081 412.588 326.86C409.422 326.645 407.016 323.895 407.224 320.728L409.103 292.701C409.304 289.664 411.847 287.33 414.845 287.33Z" fill="#222222"/>
<path d="M427.438 323.875C429.461 323.875 431.392 323.153 432.927 321.807C434.611 320.338 435.619 318.302 435.768 316.072L437.212 294.554C437.517 289.957 434.032 285.958 429.428 285.652C427.198 285.502 425.045 286.231 423.367 287.7C421.683 289.17 420.675 291.205 420.526 293.436L419.082 314.953C418.777 319.551 422.262 323.544 426.866 323.856C427.055 323.869 427.25 323.875 427.438 323.875ZM428.862 288.24C428.992 288.24 429.122 288.24 429.259 288.253C432.426 288.468 434.832 291.218 434.617 294.385L433.174 315.903C433.07 317.437 432.374 318.842 431.216 319.856C430.059 320.871 428.583 321.372 427.042 321.268C423.875 321.053 421.469 318.302 421.677 315.135L423.12 293.618C423.224 292.083 423.92 290.679 425.078 289.664C426.138 288.741 427.464 288.24 428.862 288.24Z" fill="#222222"/>
<path d="M442.026 317.744C444.049 317.744 445.98 317.022 447.514 315.676C449.199 314.206 450.207 312.171 450.356 309.94L451.325 295.537C451.631 290.939 448.145 286.947 443.541 286.635C438.963 286.323 434.951 289.814 434.639 294.418L433.67 308.822C433.521 311.052 434.249 313.205 435.719 314.883C437.188 316.567 439.223 317.575 441.454 317.724C441.643 317.737 441.838 317.744 442.026 317.744ZM442.982 289.223C443.112 289.223 443.242 289.223 443.372 289.236C446.539 289.45 448.945 292.201 448.737 295.368L447.768 309.771C447.664 311.306 446.968 312.711 445.811 313.725C444.653 314.739 443.171 315.24 441.636 315.136C440.101 315.032 438.697 314.336 437.682 313.179C436.668 312.021 436.167 310.539 436.271 309.004L437.24 294.6C437.442 291.564 439.984 289.229 442.982 289.229V289.223Z" fill="#222222"/>
<path d="M337.568 220.867C333.763 215.707 334.861 208.44 340.02 204.635C345.179 200.83 352.446 201.928 356.251 207.087C360.056 212.246 358.958 219.513 353.799 223.318C348.64 227.123 341.373 226.026 337.568 220.867Z" fill="white"/>
<path d="M344.406 219.123C348.6 219.123 352.794 216.476 354.322 212.516C354.582 211.846 354.244 211.092 353.575 210.832C352.905 210.572 352.15 210.91 351.897 211.58C350.544 215.091 346.174 217.283 342.552 216.275C341.857 216.08 341.141 216.489 340.953 217.179C340.758 217.868 341.167 218.59 341.857 218.778C342.695 219.012 343.554 219.123 344.412 219.123H344.406Z" fill="#222222"/>
<path d="M360.366 203.802C350.964 203.802 343.342 196.18 343.342 186.778C343.342 177.376 350.964 169.754 360.366 169.754C369.769 169.754 377.391 177.376 377.391 186.778C377.391 196.18 369.769 203.802 360.366 203.802Z" fill="#222222"/>
<path d="M340.023 190.146C330.621 190.146 322.999 182.524 322.999 173.122C322.999 163.72 330.621 156.098 340.023 156.098C349.425 156.098 357.047 163.72 357.047 173.122C357.047 182.524 349.425 190.146 340.023 190.146Z" fill="#222222"/>
<path d="M303.536 183.307C296.631 176.402 296.631 165.207 303.536 158.302C310.441 151.398 321.636 151.398 328.541 158.302C335.445 165.207 335.445 176.402 328.541 183.307C321.636 190.212 310.441 190.212 303.536 183.307Z" fill="#222222"/>
<path d="M292.547 193.156C284.588 193.156 278.137 186.704 278.137 178.746C278.137 170.788 284.588 164.336 292.547 164.336C300.505 164.336 306.957 170.788 306.957 178.746C306.957 186.704 300.505 193.156 292.547 193.156Z" fill="#222222"/>
<path d="M347.652 201.187C339.694 201.187 333.242 194.736 333.242 186.777C333.242 178.819 339.694 172.367 347.652 172.367C355.611 172.367 362.062 178.819 362.062 186.777C362.062 194.736 355.611 201.187 347.652 201.187Z" fill="#222222"/>
<path d="M357.047 253.183C349.088 253.183 342.637 246.732 342.637 238.773C342.637 230.815 349.088 224.363 357.047 224.363C365.005 224.363 371.457 230.815 371.457 238.773C371.457 246.732 365.005 253.183 357.047 253.183Z" fill="#222222"/>
<path d="M234.16 384.356C234.837 384.356 235.409 383.83 235.455 383.14L240.013 315.252C240.058 314.536 239.519 313.912 238.803 313.867C238.088 313.815 237.47 314.361 237.418 315.076L232.86 382.965C232.814 383.68 233.354 384.304 234.069 384.35C234.095 384.35 234.128 384.35 234.16 384.35V384.356Z" fill="#222222"/>
<path d="M439.848 275.293C440.264 275.293 440.68 275.092 440.927 274.715L452.34 257.677C452.736 257.079 452.58 256.273 451.982 255.876C451.384 255.473 450.577 255.635 450.174 256.234L438.762 273.271C438.365 273.869 438.521 274.675 439.12 275.072C439.341 275.222 439.594 275.293 439.841 275.293H439.848Z" fill="#222222"/>
<path d="M423.628 272.893C423.628 272.893 423.654 272.893 423.674 272.893C424.389 272.867 424.955 272.269 424.929 271.554L424.09 245.751C424.064 245.036 423.498 244.47 422.75 244.496C422.035 244.522 421.469 245.12 421.495 245.836L422.334 271.638C422.36 272.341 422.932 272.9 423.635 272.9L423.628 272.893Z" fill="#222222"/>
<path d="M408.191 272.66C408.393 272.66 408.595 272.614 408.783 272.517C409.42 272.191 409.674 271.405 409.342 270.767L399.705 252.026C399.38 251.389 398.593 251.136 397.956 251.467C397.319 251.792 397.065 252.579 397.397 253.216L407.034 271.957C407.261 272.406 407.717 272.666 408.191 272.666V272.66Z" fill="#222222"/>
<defs>
<clipPath id="clip0_4119_936">
<rect width="98.4626" height="98.4626" fill="white" transform="translate(84 115.34)"/>
</clipPath>
</defs>
</svg>
