<svg width="600" height="450" viewBox="0 0 600 450" fill="none" xmlns="http://www.w3.org/2000/svg">
<path d="M303.863 262.527L266.672 266.969L271.113 304.16L308.304 299.718L303.863 262.527Z" fill="white"/>
<path d="M271.119 305.354C270.851 305.354 270.595 305.265 270.381 305.099C270.131 304.902 269.97 304.617 269.935 304.307L266.317 273.992C266.24 273.337 266.704 272.748 267.358 272.671L304.546 268.232C304.861 268.197 305.176 268.286 305.42 268.476C305.67 268.673 305.831 268.958 305.867 269.268L309.484 299.583C309.562 300.237 309.097 300.826 308.443 300.904L271.256 305.342C271.208 305.342 271.16 305.348 271.113 305.348L271.119 305.354ZM268.822 274.89L272.16 302.838L306.985 298.678L303.647 270.731L268.822 274.89Z" fill="#222222"/>
<path d="M222.215 317.254C222.215 317.254 264.263 288.355 362.849 294.043L359.642 329.749L330.731 335.657H265.608L237.899 324.525L222.221 317.254H222.215Z" fill="#C7C7C7"/>
<path d="M293.895 281.93C312.581 278.813 325.203 261.138 322.086 242.452C318.969 223.766 301.294 211.145 282.608 214.262C263.922 217.378 251.3 235.053 254.417 253.74C257.534 272.426 275.209 285.047 293.895 281.93Z" fill="white"/>
<path d="M288.225 283.577C287.243 283.577 286.268 283.535 285.292 283.458C284.637 283.404 284.149 282.827 284.203 282.172C284.257 281.518 284.816 281.024 285.488 281.084C287.136 281.22 288.814 281.232 290.474 281.119C299.298 280.524 307.366 276.532 313.185 269.874C319.005 263.216 321.884 254.689 321.295 245.86C320.07 227.641 304.26 213.813 286.036 215.039C276.682 215.669 267.989 220.263 262.194 227.641C261.789 228.158 261.04 228.248 260.522 227.843C260.004 227.438 259.915 226.689 260.32 226.171C266.532 218.258 275.843 213.337 285.869 212.659C305.391 211.35 322.348 226.171 323.663 245.699C324.3 255.159 321.212 264.299 314.97 271.439C308.729 278.579 300.084 282.857 290.623 283.493C289.82 283.547 289.017 283.577 288.213 283.577H288.225Z" fill="#222222"/>
<path d="M306.112 255.439C305.904 255.439 305.69 255.386 305.493 255.267C302.161 253.244 300.013 249.721 299.757 245.836C299.317 239.261 304.309 233.549 310.884 233.109C316.507 232.728 321.707 236.405 323.206 241.85C323.379 242.48 323.01 243.141 322.373 243.313C321.737 243.486 321.082 243.117 320.91 242.48C319.708 238.119 315.555 235.174 311.039 235.483C305.773 235.834 301.775 240.41 302.126 245.675C302.334 248.787 304.053 251.608 306.725 253.226C307.284 253.565 307.469 254.297 307.124 254.862C306.897 255.231 306.505 255.433 306.106 255.433L306.112 255.439Z" fill="#222222"/>
<path d="M312.393 243.034C312.5 244.658 311.275 246.068 309.644 246.175C308.014 246.282 306.61 245.057 306.503 243.426C306.396 241.802 307.621 240.392 309.252 240.285C310.876 240.178 312.286 241.403 312.393 243.034Z" fill="#222222"/>
<path d="M296.78 242.909C296.887 244.533 295.661 245.943 294.031 246.05C292.407 246.157 290.996 244.932 290.889 243.301C290.782 241.671 292.008 240.267 293.638 240.16C295.263 240.053 296.673 241.278 296.78 242.909Z" fill="#222222"/>
<path d="M303.997 266.744C301.468 266.744 298.94 265.923 296.958 264.263C296.453 263.841 296.387 263.091 296.81 262.585C297.232 262.08 297.982 262.014 298.487 262.437C301.677 265.114 306.931 264.947 309.947 262.08C310.423 261.627 311.179 261.645 311.631 262.121C312.083 262.597 312.065 263.353 311.589 263.805C309.537 265.751 306.77 266.738 303.997 266.738V266.744Z" fill="#222222"/>
<path d="M369.601 321.42L233.504 330.555L240.461 434.203L376.558 425.067L369.601 321.42Z" fill="#C7C7C7"/>
<path d="M388.526 326.482C391.874 312.294 383.088 298.079 368.9 294.73C354.713 291.382 340.497 300.168 337.149 314.356C333.8 328.543 342.587 342.758 356.774 346.107C370.962 349.455 385.177 340.669 388.526 326.482Z" fill="#C7C7C7"/>
<path d="M377.863 298.774L349.277 335.893L410.834 383.298L439.42 346.179L377.863 298.774Z" fill="#C7C7C7"/>
<path d="M242.038 365.7C256.132 361.979 264.541 347.537 260.82 333.442C257.099 319.348 242.657 310.939 228.563 314.661C214.469 318.382 206.06 332.824 209.781 346.918C213.502 361.012 227.944 369.421 242.038 365.7Z" fill="#C7C7C7"/>
<path d="M434.64 270.673L400.609 357.285L444.215 374.418L478.245 287.805L434.64 270.673Z" fill="#C7C7C7"/>
<path d="M423.374 386.904C436.367 386.904 446.9 376.371 446.9 363.378C446.9 350.385 436.367 339.852 423.374 339.852C410.381 339.852 399.848 350.385 399.848 363.378C399.848 376.371 410.381 386.904 423.374 386.904Z" fill="#C7C7C7"/>
<path d="M476.702 292.33C481.158 281.537 484.782 270.101 489.357 257.927C489.97 256.297 491.66 251.781 491.66 251.781C481.414 247.848 465.64 242.321 455.395 238.394C453.508 237.668 450.004 236.406 450.004 236.406C445.393 247.205 438.33 262.818 433.719 273.618L476.702 292.33Z" fill="white"/>
<path d="M459.007 244.182L467.771 221.941C468.818 219.168 467.42 216.068 464.647 215.015L464.249 214.86C461.476 213.813 458.376 215.211 457.323 217.984L448.559 240.225L459.007 244.176V244.182Z" fill="white"/>
<path d="M442.848 233.342L452.283 249.777L442.592 255.34L433.16 238.91C431.685 236.341 432.575 233.051 435.145 231.576L435.516 231.363C438.086 229.887 441.376 230.777 442.851 233.347L442.848 233.342Z" fill="white"/>
<path d="M468.979 249.115L480.142 219.811C481.189 217.038 479.791 213.938 477.018 212.885L476.619 212.73C473.847 211.683 470.747 213.082 469.693 215.854L458.531 245.158L468.979 249.109V249.115Z" fill="white"/>
<path d="M478.956 254.046L489.743 224.612C490.791 221.839 489.392 218.739 486.62 217.686L486.221 217.531C483.448 216.484 480.348 217.882 479.295 220.655L468.508 250.09L478.956 254.04V254.046Z" fill="white"/>
<path d="M491.422 253.209L500.395 239.851C502.263 237.548 501.912 234.163 499.609 232.294L499.276 232.027C496.974 230.158 493.588 230.509 491.72 232.812L476.91 251.566L491.422 253.203V253.209Z" fill="white"/>
<path d="M450.002 236.405C450.002 236.405 448.604 241.481 445.641 238.226L445.891 242.784L447.622 244.497L449.71 241.302L451.835 236.149L449.996 236.399L450.002 236.405Z" fill="white"/>
<path d="M445.644 372.173C445.501 372.173 445.352 372.149 445.21 372.09C444.597 371.852 444.293 371.162 444.537 370.549L473.859 295.734L488.532 255.553C488.561 255.47 488.603 255.393 488.651 255.315L499.497 238.507C499.497 238.507 500.747 236.525 500.312 234.71C500.092 233.806 499.491 233.074 498.474 232.479C496.284 231.2 493.946 232.753 493.018 233.752C488.246 238.864 482.349 247.122 482.29 247.205C481.945 247.693 481.29 247.842 480.767 247.568C480.237 247.289 479.999 246.664 480.207 246.105L488.413 223.911C488.543 223.572 489.543 220.668 486.693 218.86C483.801 217.027 481.612 218.883 481.368 219.104C481.362 219.11 481.237 219.223 481.064 219.431C480.648 220.448 480.053 221.275 479.862 221.525C479.505 221.995 478.857 222.132 478.345 221.853C477.827 221.573 477.595 220.954 477.798 220.401C478.137 219.478 478.583 218.753 478.964 218.241C479.083 217.89 479.142 217.574 479.083 217.354L479.006 217.051C478.666 215.647 478.28 214.058 475.168 213.35C472.08 212.648 470.622 215.914 470.563 216.051L469.004 220.145C468.795 220.692 468.212 221.008 467.641 220.883C467.064 220.758 466.665 220.234 466.701 219.651C466.701 219.55 466.778 216.95 463.976 215.837C463.952 215.825 463.928 215.813 463.904 215.807C463.809 215.766 461.4 214.683 459.305 216.509C459.305 216.509 458.532 217.295 457.829 219.068L450.898 236.525C450.707 237.108 449.851 239.476 448.066 240.077C447.471 240.274 446.554 240.351 445.513 239.619C445.221 239.429 444.591 238.893 443.776 237.477L441.586 233.663C441.586 233.663 441.562 233.616 441.55 233.592C441.521 233.532 440.628 231.837 438.391 231.587C436.112 231.331 434.47 233.175 434.452 233.199C434.434 233.217 434.416 233.241 434.398 233.259C434.333 233.324 432.697 235.073 433.655 237.382C433.655 237.382 433.916 237.959 434.351 238.721L442.907 253.62C443.097 253.947 443.115 254.345 442.966 254.691L434.589 273.82L414.24 326.376C414.103 326.727 413.811 326.989 413.448 327.09C413.086 327.191 412.699 327.114 412.401 326.888L379.641 301.66C379.117 301.261 379.022 300.511 379.426 299.994C379.825 299.47 380.575 299.375 381.098 299.78L412.598 324.038L432.387 272.915L440.545 254.286L432.286 239.905C431.774 239.012 431.477 238.346 431.465 238.316C429.954 234.669 432.352 231.956 432.673 231.616C432.959 231.295 435.267 228.844 438.653 229.225C442.008 229.599 443.454 232.104 443.663 232.503L445.84 236.293C446.346 237.18 446.709 237.531 446.81 237.62C446.84 237.638 446.822 237.626 446.876 237.668C447.161 237.876 447.274 237.834 447.316 237.822C447.768 237.674 448.381 236.62 448.649 235.775C448.655 235.746 448.667 235.716 448.678 235.692L455.622 218.199C456.532 215.891 457.597 214.855 457.716 214.748C460.876 211.987 464.422 213.439 464.886 213.647C466.356 214.237 467.35 215.147 467.992 216.117L468.355 215.165C469.164 213.308 471.699 210.131 475.697 211.041C480.106 212.047 480.898 214.784 481.284 216.355C482.921 215.587 485.366 215.218 487.96 216.866C491.62 219.187 491.304 223.054 490.626 224.774L485.259 239.292C487.121 236.912 489.275 234.288 491.274 232.146C493.196 230.087 496.641 228.671 499.67 230.438C501.264 231.367 502.258 232.628 502.627 234.187C503.293 237.007 501.568 239.702 501.491 239.816L490.721 256.511L476.084 296.596L446.751 371.441C446.566 371.911 446.12 372.197 445.644 372.197V372.173Z" fill="#222222"/>
<path d="M468.7 249.395C468.563 249.395 468.421 249.371 468.284 249.317C467.665 249.085 467.356 248.401 467.582 247.788L477.792 220.382C478.024 219.764 478.708 219.454 479.321 219.68C479.94 219.912 480.249 220.597 480.023 221.209L469.813 248.615C469.634 249.091 469.182 249.389 468.7 249.389V249.395Z" fill="#222222"/>
<path d="M458.781 245.076C458.644 245.076 458.501 245.052 458.358 244.998C457.746 244.766 457.43 244.082 457.662 243.463L466.772 219.282C467.004 218.669 467.688 218.354 468.307 218.586C468.92 218.818 469.235 219.502 469.003 220.121L459.894 244.302C459.715 244.778 459.263 245.076 458.781 245.076Z" fill="#222222"/>
<path d="M476.057 254.137C472.464 249.835 466.722 247.247 461.218 248.318C455.714 249.389 450.936 253.619 449.211 258.956L476.057 254.137Z" fill="white"/>
<path d="M240.469 434.202L241.403 449.785H378.943L376.569 425.068L240.469 434.202Z" fill="#222222"/>
<path d="M375.486 410.133C374.868 410.133 374.344 409.651 374.302 409.021L370.131 346.903C370.09 346.248 370.584 345.677 371.238 345.635C371.887 345.594 372.464 346.087 372.505 346.742L376.676 408.86C376.718 409.514 376.224 410.086 375.57 410.127C375.546 410.127 375.516 410.127 375.486 410.127V410.133Z" fill="#222222"/>
<path d="M233.937 315.1C219.36 315.1 207.543 326.916 207.543 341.494C207.543 356.071 219.36 367.888 233.937 367.888V315.1Z" fill="#C7C7C7"/>
<path d="M218.92 320.172L157.363 367.577L185.949 404.696L247.506 357.291L218.92 320.172Z" fill="#C7C7C7"/>
<path d="M162.144 292.078L118.539 309.211L152.569 395.823L196.175 378.691L162.144 292.078Z" fill="#C7C7C7"/>
<path d="M195.15 393.783C200.122 381.779 194.422 368.017 182.417 363.045C170.413 358.073 156.651 363.773 151.679 375.777C146.707 387.781 152.407 401.544 164.411 406.516C176.415 411.488 190.178 405.788 195.15 393.783Z" fill="#C7C7C7"/>
<path d="M120.079 313.726C115.623 302.932 111.999 291.497 107.424 279.323C106.811 277.693 105.121 273.177 105.121 273.177C115.367 269.244 131.14 263.716 141.386 259.789C143.272 259.063 146.777 257.802 146.777 257.802C151.388 268.601 158.451 284.214 163.062 295.013L120.079 313.726Z" fill="white"/>
<path d="M137.78 265.584L129.016 243.343C127.968 240.57 129.367 237.471 132.139 236.417L132.538 236.263C135.311 235.215 138.411 236.614 139.464 239.386L148.228 261.628L137.78 265.578V265.584Z" fill="white"/>
<path d="M163.637 260.306L154.201 276.741L144.511 271.177L153.943 254.748C155.418 252.178 158.708 251.288 161.277 252.763L161.649 252.976C164.219 254.452 165.109 257.741 163.634 260.311L163.637 260.306Z" fill="white"/>
<path d="M127.807 270.517L116.645 241.213C115.597 238.441 116.996 235.341 119.768 234.288L120.167 234.133C122.94 233.086 126.04 234.484 127.093 237.257L138.255 266.56L127.807 270.511V270.517Z" fill="white"/>
<path d="M117.83 275.449L107.043 246.014C105.996 243.241 107.394 240.141 110.167 239.088L110.565 238.934C113.338 237.886 116.438 239.285 117.491 242.057L128.279 271.492L117.83 275.443V275.449Z" fill="white"/>
<path d="M105.364 274.605L96.3918 261.247C94.5235 258.945 94.8745 255.559 97.1772 253.691L97.5104 253.423C99.813 251.555 103.199 251.906 105.067 254.208L119.876 272.963L105.364 274.599V274.605Z" fill="white"/>
<path d="M146.782 257.808C146.782 257.808 148.18 262.883 151.143 259.628L150.893 264.186L149.162 265.9L147.073 262.704L144.949 257.552L146.788 257.802L146.782 257.808Z" fill="white"/>
<path d="M151.136 393.569C150.66 393.569 150.214 393.284 150.029 392.813L120.708 317.998L106.059 277.889L95.2833 261.188C95.2119 261.081 93.4864 258.379 94.1528 255.565C94.5217 254.006 95.5153 252.751 97.1099 251.816C100.138 250.049 103.584 251.465 105.505 253.524C107.505 255.666 109.658 258.29 111.521 260.67L106.148 246.128C105.482 244.432 105.166 240.565 108.825 238.244C111.414 236.602 113.859 236.965 115.501 237.739C115.888 236.162 116.679 233.425 121.088 232.419C125.087 231.509 127.621 234.686 128.407 236.495L128.788 237.501C129.436 236.531 130.424 235.62 131.894 235.031C132.358 234.823 135.904 233.371 139.04 236.108C139.182 236.239 140.247 237.275 141.158 239.583L148.101 257.07C148.101 257.07 148.125 257.13 148.131 257.154C148.399 257.998 149.012 259.052 149.464 259.2C149.5 259.212 149.619 259.254 149.904 259.046C149.964 259.004 149.94 259.01 149.97 258.998C150.071 258.909 150.428 258.558 150.94 257.671L153.117 253.881C153.325 253.482 154.771 250.977 158.127 250.603C161.519 250.228 163.821 252.673 164.107 252.994C164.428 253.334 166.826 256.047 165.327 259.67C165.303 259.724 165.005 260.39 164.494 261.283L156.235 275.664L164.369 294.246L184.182 345.416L215.681 321.158C216.205 320.759 216.949 320.854 217.353 321.372C217.752 321.895 217.657 322.639 217.139 323.038L184.379 348.266C184.081 348.498 183.694 348.569 183.331 348.468C182.968 348.367 182.677 348.099 182.54 347.754L162.173 295.15L153.819 276.069C153.671 275.723 153.688 275.325 153.879 274.998L162.435 260.099C162.881 259.325 163.137 258.742 163.143 258.736C164.089 256.445 162.453 254.702 162.381 254.631C162.364 254.613 162.346 254.589 162.328 254.577C162.316 254.565 160.668 252.715 158.395 252.971C156.158 253.221 155.265 254.916 155.229 254.988C155.224 255.006 155.206 255.035 155.194 255.047L153.004 258.861C152.189 260.277 151.558 260.819 151.267 261.003C150.226 261.741 149.303 261.658 148.714 261.461C146.929 260.866 146.066 258.498 145.882 257.909L138.95 240.458C138.236 238.655 137.445 237.87 137.439 237.864C135.386 236.073 132.971 237.15 132.869 237.197C132.852 237.209 132.822 237.221 132.804 237.227C130.007 238.34 130.079 240.94 130.079 241.047C130.103 241.63 129.698 242.148 129.127 242.267C128.55 242.386 127.984 242.076 127.776 241.529L126.211 237.423C126.063 237.108 124.569 234.062 121.612 234.74C118.5 235.448 118.113 237.037 117.774 238.441L117.697 238.744C117.643 238.964 117.697 239.28 117.816 239.631C118.197 240.142 118.649 240.868 118.988 241.791C119.19 242.344 118.958 242.963 118.441 243.242C117.923 243.528 117.28 243.385 116.923 242.915C116.733 242.665 116.138 241.838 115.722 240.821C115.549 240.618 115.43 240.505 115.43 240.505C115.18 240.273 112.985 238.417 110.093 240.25C107.249 242.058 108.242 244.956 108.367 245.283L116.578 267.495C116.787 268.054 116.549 268.679 116.019 268.958C115.495 269.238 114.841 269.083 114.496 268.595C114.436 268.512 108.54 260.259 103.768 255.142C102.834 254.143 100.495 252.596 98.3118 253.869C97.2884 254.464 96.6875 255.196 96.4733 256.106C96.0449 257.915 97.2706 259.867 97.2825 259.891L108.129 276.705C108.177 276.777 108.219 276.86 108.248 276.943L122.933 317.153L152.249 391.945C152.487 392.558 152.189 393.248 151.576 393.486C151.433 393.539 151.285 393.569 151.142 393.569H151.136Z" fill="#222222"/>
<path d="M128.087 270.796C127.605 270.796 127.152 270.499 126.974 270.023L116.764 242.617C116.532 241.998 116.847 241.314 117.466 241.088C118.085 240.856 118.769 241.171 118.995 241.79L129.205 269.196C129.437 269.815 129.122 270.499 128.503 270.725C128.366 270.778 128.223 270.802 128.087 270.802V270.796Z" fill="#222222"/>
<path d="M138.002 266.477C137.52 266.477 137.068 266.185 136.89 265.703L127.78 241.522C127.548 240.909 127.858 240.219 128.476 239.987C129.095 239.755 129.779 240.065 130.011 240.683L139.121 264.864C139.353 265.477 139.044 266.167 138.425 266.399C138.288 266.453 138.145 266.477 138.008 266.477H138.002Z" fill="#222222"/>
<path d="M164.603 283.369L111.434 269.243L125.386 218.127L178.454 232.615L164.603 283.369Z" fill="#FF9F19"/>
<path d="M164.602 284.559C164.5 284.559 164.399 284.547 164.298 284.517L111.129 270.386C110.826 270.303 110.564 270.106 110.403 269.827C110.242 269.553 110.201 269.226 110.284 268.922L124.237 217.806C124.32 217.502 124.522 217.241 124.796 217.086C125.07 216.931 125.397 216.889 125.701 216.973L178.774 231.461C179.078 231.544 179.34 231.747 179.494 232.02C179.649 232.294 179.691 232.621 179.607 232.925L165.75 283.684C165.607 284.214 165.125 284.559 164.602 284.559ZM112.896 268.399L163.763 281.917L176.995 233.448L126.218 219.591L112.896 268.405V268.399Z" fill="#222222"/>
<path d="M120.734 276.728C120.377 276.728 120.02 276.567 119.788 276.258L116.134 271.462C115.736 270.939 115.837 270.195 116.36 269.796C116.884 269.398 117.628 269.499 118.026 270.022L121.68 274.818C122.078 275.342 121.977 276.086 121.454 276.484C121.239 276.651 120.983 276.728 120.734 276.728Z" fill="#222222"/>
<path d="M120.73 275.539C124.324 271.237 130.066 268.649 135.57 269.72C141.074 270.791 145.851 275.022 147.577 280.359L120.73 275.539Z" fill="white"/>
<path d="M147.578 281.548C147.078 281.548 146.608 281.227 146.448 280.721C144.865 275.818 140.402 271.867 135.345 270.886C130.549 269.957 125.17 272.082 121.648 276.3C121.225 276.806 120.476 276.871 119.97 276.449C119.464 276.026 119.399 275.277 119.821 274.771C123.897 269.898 130.168 267.452 135.803 268.547C141.777 269.708 146.846 274.2 148.714 279.989C148.917 280.614 148.572 281.286 147.947 281.489C147.822 281.53 147.703 281.548 147.578 281.548Z" fill="#222222"/>
<path d="M270.117 261.616C272.225 252.687 266.695 243.74 257.765 241.632C248.836 239.525 239.888 245.055 237.781 253.984C235.673 262.914 241.204 271.861 250.133 273.968C259.062 276.076 268.01 270.546 270.117 261.616Z" fill="#222222"/>
<path d="M270.804 246.582C280.832 242.428 285.594 230.932 281.44 220.904C277.286 210.877 265.79 206.115 255.762 210.268C245.735 214.422 240.973 225.918 245.126 235.946C249.28 245.974 260.776 250.736 270.804 246.582Z" fill="#222222"/>
<path d="M291.843 228.426C303.223 228.426 312.448 219.201 312.448 207.822C312.448 196.442 303.223 187.217 291.843 187.217C280.463 187.217 271.238 196.442 271.238 207.822C271.238 219.201 280.463 228.426 291.843 228.426Z" fill="#222222"/>
<path d="M317.615 232.425C326.047 232.425 332.883 225.589 332.883 217.157C332.883 208.725 326.047 201.89 317.615 201.89C309.183 201.89 302.348 208.725 302.348 217.157C302.348 225.589 309.183 232.425 317.615 232.425Z" fill="#222222"/>
<path d="M294.589 230.804C295.907 225.22 292.448 219.625 286.864 218.307C281.28 216.989 275.685 220.448 274.367 226.032C273.049 231.616 276.507 237.211 282.091 238.529C287.675 239.847 293.271 236.389 294.589 230.804Z" fill="#222222"/>
<path d="M276.165 285.592C281.423 280.334 281.423 271.809 276.165 266.55C270.906 261.292 262.381 261.292 257.123 266.55C251.864 271.809 251.864 280.334 257.123 285.592C262.381 290.851 270.906 290.851 276.165 285.592Z" fill="#222222"/>
<path d="M280.86 260.543C284.342 255.822 283.337 249.173 278.616 245.692C273.896 242.21 267.247 243.214 263.765 247.935C260.283 252.656 261.288 259.305 266.008 262.786C270.729 266.268 277.378 265.264 280.86 260.543Z" fill="white"/>
<path d="M274.611 258.944C270.773 258.944 266.93 256.522 265.537 252.899C265.299 252.286 265.609 251.596 266.222 251.358C266.834 251.12 267.525 251.429 267.763 252.042C269 255.255 272.999 257.26 276.313 256.338C276.943 256.159 277.604 256.534 277.776 257.165C277.955 257.796 277.58 258.456 276.949 258.629C276.182 258.843 275.396 258.944 274.611 258.944Z" fill="#222222"/>
<path d="M141.984 242.165L146.09 237.292C147.44 235.691 150.035 236.334 150.487 238.375L151.855 244.599C152.034 245.408 152.599 246.08 153.373 246.395L159.281 248.793C161.221 249.579 161.411 252.25 159.608 253.309L154.11 256.54C153.396 256.963 152.932 257.706 152.873 258.533L152.415 264.894C152.266 266.982 149.785 267.988 148.22 266.602L143.454 262.371C142.835 261.818 141.978 261.61 141.175 261.806L134.987 263.335C132.958 263.835 131.233 261.794 132.066 259.872L134.618 254.029C134.951 253.268 134.886 252.393 134.446 251.685L131.078 246.271C129.971 244.491 131.387 242.219 133.47 242.427L139.813 243.046C140.64 243.129 141.455 242.796 141.99 242.159L141.984 242.165Z" fill="white"/>
<path d="M149.888 268.434C148.995 268.434 148.126 268.113 147.43 267.494L142.658 263.263C142.331 262.972 141.879 262.859 141.451 262.966L135.263 264.495C133.882 264.834 132.454 264.37 131.532 263.287C130.616 262.198 130.395 260.711 130.967 259.408L133.519 253.565C133.692 253.16 133.662 252.702 133.43 252.327L130.062 246.913C129.313 245.705 129.313 244.2 130.062 242.992C130.812 241.784 132.163 241.117 133.579 241.254L139.921 241.873C140.362 241.915 140.79 241.742 141.07 241.403L145.175 236.53C146.092 235.441 147.526 234.977 148.906 235.316C150.286 235.655 151.339 236.732 151.643 238.125L153.011 244.348C153.107 244.777 153.404 245.134 153.815 245.3L159.723 247.698C161.044 248.234 161.925 249.447 162.032 250.869C162.133 252.292 161.437 253.618 160.205 254.344L154.707 257.569C154.326 257.789 154.082 258.188 154.053 258.622L153.595 264.983C153.493 266.405 152.607 267.619 151.292 268.154C150.834 268.339 150.358 268.434 149.882 268.434H149.888ZM141.778 260.544C142.676 260.544 143.557 260.871 144.241 261.478L149.007 265.709C149.394 266.054 149.911 266.143 150.393 265.947C150.875 265.75 151.185 265.322 151.22 264.804L151.679 258.444C151.768 257.224 152.446 256.129 153.505 255.505L159.003 252.28C159.449 252.018 159.699 251.548 159.658 251.03C159.622 250.512 159.312 250.084 158.831 249.888L152.922 247.49C151.792 247.032 150.953 246.038 150.691 244.848L149.322 238.624C149.209 238.119 148.84 237.738 148.341 237.613C147.835 237.488 147.335 237.649 147.002 238.047L142.896 242.92C142.111 243.854 140.915 244.342 139.695 244.223L133.353 243.605C132.829 243.551 132.365 243.789 132.091 244.229C131.818 244.67 131.818 245.199 132.091 245.639L135.459 251.054C136.107 252.095 136.197 253.38 135.709 254.505L133.156 260.348C132.948 260.824 133.025 261.347 133.359 261.74C133.692 262.139 134.192 262.299 134.697 262.174L140.885 260.645C141.183 260.574 141.48 260.538 141.778 260.538V260.544Z" fill="#222222"/>
<path d="M299.104 120.274L238.634 134.747C236.806 135.184 235.679 137.021 236.116 138.849L246.072 180.443C246.509 182.271 248.346 183.398 250.174 182.961L310.643 168.488C312.471 168.05 313.598 166.214 313.161 164.386L303.206 122.792C302.768 120.964 300.932 119.837 299.104 120.274Z" fill="white"/>
<path d="M249.37 184.254C248.531 184.254 247.709 184.022 246.978 183.575C245.93 182.933 245.199 181.921 244.913 180.731L234.959 139.135C234.37 136.671 235.893 134.19 238.356 133.601L298.832 119.125C300.028 118.839 301.259 119.036 302.301 119.678C303.348 120.321 304.08 121.332 304.365 122.522L314.32 164.119C314.909 166.582 313.386 169.063 310.922 169.652L250.446 184.123C250.089 184.206 249.727 184.248 249.37 184.248V184.254ZM299.909 121.38C299.736 121.38 299.564 121.398 299.391 121.439L238.915 135.91C237.731 136.195 236.994 137.391 237.279 138.575L247.233 180.172C247.37 180.749 247.721 181.231 248.227 181.54C248.727 181.85 249.322 181.945 249.899 181.808L310.375 167.338C311.559 167.052 312.297 165.856 312.011 164.672L302.057 123.076C301.92 122.499 301.569 122.017 301.063 121.707C300.712 121.493 300.313 121.38 299.909 121.38Z" fill="#222222"/>
<path d="M307.171 169.33L286.007 149.701L281.015 163.243L264.218 147.666L251.301 182.694L291.594 173.055L307.171 169.33Z" fill="#C7C7C7"/>
<path d="M251.299 183.884C250.966 183.884 250.639 183.741 250.407 183.485C250.115 183.158 250.026 182.694 250.18 182.284L263.098 147.25C263.235 146.875 263.55 146.595 263.937 146.506C264.324 146.417 264.734 146.518 265.026 146.792L280.514 161.155L284.893 149.291C285.03 148.916 285.345 148.636 285.732 148.547C286.118 148.458 286.529 148.559 286.821 148.833L307.985 168.462C308.306 168.759 308.437 169.211 308.324 169.634C308.211 170.056 307.878 170.39 307.449 170.491L251.579 183.86C251.483 183.884 251.394 183.89 251.299 183.89V183.884ZM264.716 149.749L253.185 181.022L304.73 168.688L286.505 151.784L282.126 163.648C281.989 164.023 281.674 164.303 281.287 164.392C280.9 164.481 280.49 164.38 280.198 164.106L264.71 149.743L264.716 149.749Z" fill="#222222"/>
<path d="M296.417 133.251C297.202 136.529 295.179 139.826 291.9 140.611C288.622 141.397 285.326 139.374 284.54 136.095C283.755 132.817 285.778 129.52 289.056 128.735C292.335 127.95 295.631 129.973 296.417 133.251Z" fill="#FF9F19"/>
<path d="M290.467 141.973C289.134 141.973 287.825 141.604 286.665 140.89C285.005 139.873 283.838 138.266 283.386 136.368C282.934 134.47 283.243 132.513 284.267 130.853C285.29 129.193 286.891 128.026 288.789 127.574C290.681 127.122 292.644 127.431 294.304 128.455C295.965 129.472 297.131 131.079 297.583 132.977C298.517 136.892 296.095 140.837 292.186 141.771C291.615 141.908 291.044 141.973 290.473 141.973H290.467ZM290.479 129.752C290.104 129.752 289.717 129.794 289.336 129.889C286.7 130.519 285.064 133.179 285.695 135.815C286.326 138.451 288.991 140.087 291.621 139.45C294.257 138.82 295.887 136.16 295.256 133.524C294.715 131.269 292.698 129.752 290.473 129.752H290.479Z" fill="#222222"/>
<path d="M144.305 212.689C144.049 212.689 143.787 212.605 143.573 212.433C143.055 212.028 142.966 211.279 143.37 210.761C147.042 206.078 151.141 201.61 155.544 197.486C156.026 197.04 156.776 197.064 157.228 197.54C157.674 198.022 157.65 198.772 157.174 199.224C152.855 203.27 148.839 207.643 145.245 212.231C145.013 212.528 144.662 212.689 144.311 212.689H144.305ZM170.247 188.359C169.872 188.359 169.497 188.181 169.265 187.847C168.89 187.306 169.027 186.568 169.568 186.193C174.495 182.79 179.713 179.72 185.086 177.06C185.675 176.769 186.389 177.013 186.681 177.602C186.972 178.191 186.728 178.905 186.139 179.196C180.867 181.802 175.744 184.813 170.919 188.151C170.711 188.294 170.479 188.359 170.247 188.359ZM202.139 172.598C201.639 172.598 201.169 172.276 201.008 171.777C200.806 171.152 201.151 170.479 201.776 170.277C207.511 168.421 213.402 166.993 219.281 166.023C219.935 165.916 220.542 166.356 220.649 167.005C220.756 167.653 220.316 168.266 219.667 168.373C213.908 169.319 208.136 170.723 202.513 172.538C202.394 172.58 202.27 172.598 202.145 172.598H202.139Z" fill="#222222"/>
<path d="M467.867 165.428C467.617 165.428 467.373 165.351 467.159 165.19C465.773 164.155 464.339 163.149 462.911 162.191C462.363 161.828 462.215 161.084 462.583 160.543C462.946 159.996 463.69 159.847 464.232 160.216C465.695 161.192 467.159 162.227 468.581 163.28C469.111 163.673 469.218 164.416 468.825 164.946C468.593 165.261 468.23 165.428 467.867 165.428ZM447.952 153.814C447.792 153.814 447.625 153.778 447.47 153.712C442.55 151.517 437.123 149.518 430.876 147.596C430.245 147.405 429.894 146.739 430.091 146.108C430.281 145.478 430.947 145.127 431.578 145.323C437.915 147.269 443.436 149.303 448.446 151.541C449.047 151.808 449.315 152.511 449.047 153.111C448.851 153.552 448.417 153.82 447.958 153.82L447.952 153.814ZM326.168 143.925C325.65 143.925 325.174 143.58 325.025 143.056C324.847 142.425 325.216 141.765 325.847 141.586C332.07 139.831 337.77 138.433 343.262 137.314C343.911 137.183 344.535 137.6 344.666 138.242C344.797 138.885 344.381 139.516 343.738 139.647C338.306 140.753 332.665 142.134 326.495 143.877C326.388 143.907 326.281 143.925 326.174 143.925H326.168ZM414.014 142.913C413.918 142.913 413.817 142.901 413.716 142.877L410.247 141.991C408.224 141.473 406.172 140.95 404.089 140.414C401.542 139.754 398.966 139.171 396.443 138.677C395.795 138.552 395.378 137.927 395.503 137.279C395.628 136.636 396.253 136.213 396.895 136.338C399.472 136.838 402.09 137.433 404.684 138.106C406.761 138.641 408.813 139.165 410.836 139.682L414.305 140.569C414.942 140.73 415.329 141.378 415.162 142.015C415.025 142.55 414.543 142.907 414.008 142.907L414.014 142.913ZM361.136 137.023C360.529 137.023 360.011 136.559 359.952 135.94C359.892 135.285 360.374 134.708 361.029 134.643C365.188 134.256 369.329 134.06 373.333 134.06H373.345C375.243 134.06 377.153 134.101 379.028 134.19C379.682 134.22 380.194 134.78 380.164 135.434C380.134 136.089 379.581 136.594 378.921 136.57C377.082 136.487 375.208 136.446 373.351 136.446H373.345C369.412 136.446 365.349 136.636 361.261 137.017C361.225 137.017 361.19 137.017 361.148 137.017L361.136 137.023Z" fill="#222222"/>
<path d="M448.256 239.395C452.164 238.659 456.475 239.831 459.007 242.899C461.538 245.968 462.247 250.439 460.785 254.14L448.256 239.395Z" fill="white"/>
<path d="M459.845 256.282C459.963 256.379 460.093 256.459 460.243 256.516C461.001 256.818 461.861 256.444 462.159 255.683C463.828 251.458 463.042 246.463 460.147 242.959C457.409 239.644 452.636 238.07 447.985 238.943C447.184 239.093 446.656 239.867 446.806 240.668C446.959 241.472 447.729 241.997 448.53 241.847C452.141 241.168 455.809 242.345 457.871 244.841C460.055 247.487 460.678 251.406 459.412 254.597C459.171 255.208 459.363 255.885 459.845 256.282Z" fill="#222222"/>
<rect x="-1.21697" y="1.21697" width="131.565" height="77.5753" rx="5.28785" transform="matrix(-1 0 0 1 533.57 161)" fill="white"/>
<rect x="-1.21697" y="1.21697" width="131.565" height="77.5753" rx="5.28785" transform="matrix(-1 0 0 1 533.57 161)" stroke="#222222" stroke-width="2.43393"/>
<rect width="107.98" height="13.0096" rx="2.60193" transform="matrix(-1 0 0 1 522.988 171.408)" fill="#222222"/>
<rect width="52.689" height="44.2327" rx="2.60193" transform="matrix(-1 0 0 1 522.988 187.02)" fill="#222222"/>
<rect width="52.689" height="13.0096" rx="2.60193" transform="matrix(-1 0 0 1 467.699 187.02)" fill="#222222"/>
<rect width="52.689" height="13.0096" rx="2.60193" transform="matrix(-1 0 0 1 467.699 202.631)" fill="#222222"/>
<rect width="52.689" height="13.0096" rx="2.60193" transform="matrix(-1 0 0 1 467.699 218.242)" fill="#222222"/>
</svg>
