<svg width="600" height="543" viewBox="0 0 600 543" fill="none" xmlns="http://www.w3.org/2000/svg">
<path d="M307.329 368.296C298.913 368.296 292.07 361.453 292.07 353.037C292.07 344.621 298.913 337.787 307.329 337.787C315.745 337.787 322.579 344.63 322.579 353.037C322.579 361.444 315.736 368.296 307.329 368.296ZM307.329 341.384C300.9 341.384 295.667 346.617 295.667 353.037C295.667 359.457 300.9 364.699 307.329 364.699C313.758 364.699 318.982 359.466 318.982 353.037C318.982 346.608 313.749 341.384 307.329 341.384Z" fill="#222222"/>
<path d="M512.41 10.7988H350.012C338.74 10.7988 329.602 19.9371 329.602 31.2098V353.523C329.602 364.795 338.74 373.933 350.012 373.933H512.41C523.682 373.933 532.821 364.795 532.821 353.523V31.2098C532.821 19.9371 523.682 10.7988 512.41 10.7988Z" fill="#FF9F19"/>
<path d="M512.41 375.731H350.022C337.775 375.731 327.812 365.769 327.812 353.522V31.2092C327.812 18.9627 337.775 9 350.022 9H512.41C524.657 9 534.619 18.9627 534.619 31.2092V353.513C534.619 365.76 524.657 375.722 512.41 375.722V375.731ZM350.022 12.5966C339.753 12.5966 331.409 20.9498 331.409 31.2092V353.513C331.409 363.781 339.762 372.126 350.022 372.126H512.41C522.678 372.126 531.023 363.772 531.023 353.513V31.2092C531.023 20.9408 522.669 12.5966 512.41 12.5966H350.022Z" fill="#222222"/>
<path d="M525.125 353.162V31.5685C525.125 24.7404 519.59 19.2051 512.762 19.2051L349.672 19.2051C342.844 19.2051 337.309 24.7404 337.309 31.5685V353.162C337.309 359.99 342.844 365.525 349.672 365.525H512.762C519.59 365.525 525.125 359.99 525.125 353.162Z" fill="white"/>
<path d="M414.391 33.5566H365.548C360.344 33.5566 356.125 37.7755 356.125 42.9798V91.8222C356.125 97.0265 360.344 101.245 365.548 101.245H414.391C419.595 101.245 423.814 97.0265 423.814 91.8222V42.9798C423.814 37.7755 419.595 33.5566 414.391 33.5566Z" fill="#C7C7C7"/>
<path d="M414.392 103.043H365.55C359.363 103.043 354.328 98.0079 354.328 91.8217V42.9793C354.328 36.7931 359.363 31.7578 365.55 31.7578H414.392C420.578 31.7578 425.614 36.7931 425.614 42.9793V91.8217C425.614 98.0079 420.578 103.043 414.392 103.043ZM365.55 35.3545C361.342 35.3545 357.925 38.7713 357.925 42.9793V91.8217C357.925 96.0297 361.342 99.4466 365.55 99.4466H414.392C418.6 99.4466 422.017 96.0297 422.017 91.8217V42.9793C422.017 38.7713 418.6 35.3545 414.392 35.3545H365.55Z" fill="#222222"/>
<path d="M496.883 33.5566H448.04C442.836 33.5566 438.617 37.7755 438.617 42.9798V91.8222C438.617 97.0265 442.836 101.245 448.04 101.245H496.883C502.087 101.245 506.306 97.0265 506.306 91.8222V42.9798C506.306 37.7755 502.087 33.5566 496.883 33.5566Z" fill="#FF9F19"/>
<path d="M496.884 103.043H448.042C441.856 103.043 436.82 98.0079 436.82 91.8217V42.9793C436.82 36.7931 441.856 31.7578 448.042 31.7578H496.884C503.07 31.7578 508.106 36.7931 508.106 42.9793V91.8217C508.106 98.0079 503.07 103.043 496.884 103.043ZM448.042 35.3545C443.834 35.3545 440.417 38.7713 440.417 42.9793V91.8217C440.417 96.0297 443.834 99.4466 448.042 99.4466H496.884C501.092 99.4466 504.509 96.0297 504.509 91.8217V42.9793C504.509 38.7713 501.092 35.3545 496.884 35.3545H448.042Z" fill="#222222"/>
<path d="M414.391 116.863H365.548C360.344 116.863 356.125 121.082 356.125 126.286V175.129C356.125 180.333 360.344 184.552 365.548 184.552H414.391C419.595 184.552 423.814 180.333 423.814 175.129V126.286C423.814 121.082 419.595 116.863 414.391 116.863Z" fill="#C7C7C7"/>
<path d="M389.968 169.895C379.376 169.895 370.789 161.308 370.789 150.716C370.789 140.124 379.376 131.537 389.968 131.537C400.56 131.537 409.147 140.124 409.147 150.716C409.147 161.308 400.56 169.895 389.968 169.895Z" fill="white"/>
<path d="M414.392 186.36H365.55C359.363 186.36 354.328 181.324 354.328 175.138V126.296C354.328 120.11 359.363 115.074 365.55 115.074H414.392C420.578 115.074 425.614 120.11 425.614 126.296V175.138C425.614 181.324 420.578 186.36 414.392 186.36ZM365.55 118.662C361.342 118.662 357.925 122.079 357.925 126.287V175.129C357.925 179.337 361.342 182.754 365.55 182.754H414.392C418.6 182.754 422.017 179.337 422.017 175.129V126.287C422.017 122.079 418.6 118.662 414.392 118.662H365.55Z" fill="#222222"/>
<path d="M496.883 116.863H448.04C442.836 116.863 438.617 121.082 438.617 126.286V175.129C438.617 180.333 442.836 184.552 448.04 184.552H496.883C502.087 184.552 506.306 180.333 506.306 175.129V126.286C506.306 121.082 502.087 116.863 496.883 116.863Z" fill="#222222"/>
<path d="M496.884 186.36H448.042C441.856 186.36 436.82 181.324 436.82 175.138V126.296C436.82 120.11 441.856 115.074 448.042 115.074H496.884C503.07 115.074 508.106 120.11 508.106 126.296V175.138C508.106 181.324 503.07 186.36 496.884 186.36ZM448.042 118.662C443.834 118.662 440.417 122.079 440.417 126.287V175.129C440.417 179.337 443.834 182.754 448.042 182.754H496.884C501.092 182.754 504.509 179.337 504.509 175.129V126.287C504.509 122.079 501.092 118.662 496.884 118.662H448.042Z" fill="#222222"/>
<path d="M414.392 269.666H365.55C359.363 269.666 354.328 264.631 354.328 258.445V209.602C354.328 203.416 359.363 198.381 365.55 198.381H414.392C420.578 198.381 425.614 203.416 425.614 209.602V258.445C425.614 264.631 420.578 269.666 414.392 269.666ZM365.55 201.977C361.342 201.977 357.925 205.394 357.925 209.602V258.445C357.925 262.653 361.342 266.07 365.55 266.07H414.392C418.6 266.07 422.017 262.653 422.017 258.445V209.602C422.017 205.394 418.6 201.977 414.392 201.977H365.55Z" fill="#222222"/>
<path d="M496.883 200.18H448.04C442.836 200.18 438.617 204.399 438.617 209.603V258.445C438.617 263.65 442.836 267.868 448.04 267.868H496.883C502.087 267.868 506.306 263.65 506.306 258.445V209.603C506.306 204.399 502.087 200.18 496.883 200.18Z" fill="#C7C7C7"/>
<path d="M496.884 269.666H448.042C441.856 269.666 436.82 264.631 436.82 258.445V209.602C436.82 203.416 441.856 198.381 448.042 198.381H496.884C503.07 198.381 508.106 203.416 508.106 209.602V258.445C508.106 264.631 503.07 269.666 496.884 269.666ZM448.042 201.977C443.834 201.977 440.417 205.394 440.417 209.602V258.445C440.417 262.653 443.834 266.07 448.042 266.07H496.884C501.092 266.07 504.509 262.653 504.509 258.445V209.602C504.509 205.394 501.092 201.977 496.884 201.977H448.042Z" fill="#222222"/>
<path d="M414.391 283.486H365.548C360.344 283.486 356.125 287.705 356.125 292.91V341.752C356.125 346.956 360.344 351.175 365.548 351.175H414.391C419.595 351.175 423.814 346.956 423.814 341.752V292.91C423.814 287.705 419.595 283.486 414.391 283.486Z" fill="#FF9F19"/>
<path d="M414.392 352.974H365.55C359.363 352.974 354.328 347.939 354.328 341.752V292.91C354.328 286.724 359.363 281.688 365.55 281.688H414.392C420.578 281.688 425.614 286.724 425.614 292.91V341.752C425.614 347.939 420.578 352.974 414.392 352.974ZM365.55 285.285C361.342 285.285 357.925 288.702 357.925 292.91V341.752C357.925 345.96 361.342 349.377 365.55 349.377H414.392C418.6 349.377 422.017 345.96 422.017 341.752V292.91C422.017 288.702 418.6 285.285 414.392 285.285H365.55Z" fill="#222222"/>
<path d="M496.884 352.974H448.042C441.856 352.974 436.82 347.939 436.82 341.752V292.91C436.82 286.724 441.856 281.688 448.042 281.688H496.884C503.07 281.688 508.106 286.724 508.106 292.91V341.752C508.106 347.939 503.07 352.974 496.884 352.974ZM448.042 285.285C443.834 285.285 440.417 288.702 440.417 292.91V341.752C440.417 345.96 443.834 349.377 448.042 349.377H496.884C501.092 349.377 504.509 345.96 504.509 341.752V292.91C504.509 288.702 501.092 285.285 496.884 285.285H448.042Z" fill="#222222"/>
<path d="M488.409 145.511C488.139 144.675 487.807 143.874 487.411 143.101C485.802 139.945 483.221 137.355 480.065 135.755C479.292 135.359 478.491 135.027 477.655 134.757C476.019 134.226 474.274 133.93 472.458 133.93C470.642 133.93 468.897 134.217 467.261 134.757C466.425 135.027 465.624 135.368 464.851 135.755C461.695 137.364 459.114 139.945 457.505 143.101C457.109 143.874 456.777 144.675 456.507 145.511C455.976 147.147 455.68 148.892 455.68 150.708C455.68 152.524 455.967 154.278 456.507 155.905C456.777 156.741 457.109 157.542 457.505 158.315C459.114 161.471 461.695 164.061 464.851 165.661C465.624 166.057 466.425 166.389 467.261 166.659C468.897 167.19 470.642 167.486 472.458 167.486C474.274 167.486 476.019 167.199 477.655 166.659C478.491 166.389 479.292 166.057 480.065 165.661C483.221 164.052 485.802 161.471 487.411 158.306C487.807 157.542 488.139 156.732 488.409 155.896C488.94 154.26 489.236 152.515 489.236 150.699C489.236 148.883 488.949 147.138 488.409 145.502V145.511ZM472.458 159.87C471.892 159.87 471.343 159.816 470.804 159.718C469.509 159.484 468.304 158.971 467.261 158.252C466.344 157.623 465.552 156.831 464.923 155.914C464.195 154.871 463.691 153.666 463.457 152.371C463.359 151.832 463.305 151.283 463.305 150.717C463.305 150.151 463.359 149.602 463.457 149.063C463.691 147.768 464.204 146.563 464.923 145.52C465.552 144.603 466.344 143.811 467.261 143.182C468.304 142.454 469.509 141.95 470.804 141.716C471.343 141.618 471.892 141.564 472.458 141.564C473.024 141.564 473.573 141.618 474.112 141.716C475.407 141.95 476.612 142.463 477.655 143.182C478.572 143.811 479.364 144.603 479.993 145.52C480.721 146.563 481.225 147.768 481.459 149.063C481.557 149.593 481.611 150.151 481.611 150.717C481.611 151.283 481.557 151.832 481.459 152.371C481.225 153.666 480.712 154.871 479.993 155.914C479.364 156.831 478.572 157.623 477.655 158.252C476.612 158.98 475.407 159.484 474.112 159.718C473.582 159.816 473.024 159.87 472.458 159.87Z" fill="white"/>
<path d="M477.66 130.234V143.182C476.617 142.454 475.412 141.95 474.117 141.717C473.587 141.618 473.029 141.564 472.463 141.564C471.896 141.564 471.348 141.618 470.808 141.717C469.513 141.95 468.309 142.463 467.266 143.182V130.234H477.66Z" fill="white"/>
<path d="M474.117 159.718C475.412 159.484 476.617 158.971 477.66 158.252V171.2H467.266V158.252C468.309 158.98 469.513 159.484 470.808 159.718C471.348 159.816 471.896 159.87 472.463 159.87C473.029 159.87 473.578 159.816 474.117 159.718Z" fill="white"/>
<path d="M467.265 158.244C468.309 158.972 469.513 159.476 470.808 159.709L467.265 163.252L464.856 165.662L461.655 168.863L454.309 161.517L457.51 158.316L463.462 152.363C463.696 153.658 464.208 154.863 464.928 155.906C465.557 156.823 466.348 157.614 467.265 158.244Z" fill="white"/>
<path d="M490.613 139.91L481.459 149.063C481.226 147.768 480.713 146.563 479.994 145.52C479.364 144.603 478.573 143.812 477.656 143.183C476.613 142.454 475.408 141.951 474.113 141.717L477.656 138.174L483.267 132.563L490.613 139.91Z" fill="white"/>
<path d="M463.451 149.054C463.352 149.585 463.298 150.142 463.298 150.709C463.298 151.275 463.352 151.824 463.451 152.363C463.685 153.658 464.197 154.863 464.917 155.906H451.969V145.512H464.917C464.188 146.555 463.685 147.76 463.451 149.054Z" fill="white"/>
<path d="M492.944 145.512V155.906H479.996C480.724 154.863 481.228 153.658 481.462 152.363C481.561 151.824 481.615 151.275 481.615 150.709C481.615 150.142 481.561 149.594 481.462 149.054C481.228 147.76 480.715 146.555 479.996 145.512H492.944Z" fill="white"/>
<path d="M467.265 138.165L470.808 141.708C469.513 141.942 468.309 142.454 467.265 143.174C466.348 143.803 465.557 144.594 464.928 145.512C464.199 146.555 463.696 147.759 463.462 149.054L454.309 139.901L461.655 132.555L467.265 138.165Z" fill="white"/>
<path d="M490.613 161.516L483.267 168.862L474.113 159.708C475.408 159.475 476.613 158.962 477.656 158.243C478.573 157.613 479.364 156.822 479.994 155.905C480.722 154.862 481.226 153.657 481.459 152.362L487.412 158.315L490.613 161.516Z" fill="white"/>
<path d="M392.721 49.831L395.553 58.5618C395.94 59.7577 397.054 60.567 398.313 60.567H407.494C410.299 60.567 411.468 64.1636 409.193 65.8091L401.766 71.204C400.75 71.9413 400.327 73.2541 400.714 74.441L403.546 83.1718C404.41 85.8423 401.361 88.0633 399.087 86.4088L391.66 81.0139C390.643 80.2765 389.268 80.2765 388.252 81.0139L380.825 86.4088C378.55 88.0633 375.502 85.8423 376.365 83.1718L379.197 74.441C379.584 73.2451 379.161 71.9413 378.145 71.204L370.718 65.8091C368.443 64.1546 369.612 60.567 372.418 60.567H381.598C382.857 60.567 383.963 59.7577 384.358 58.5618L387.191 49.831C388.054 47.1605 391.839 47.1605 392.703 49.831H392.721Z" fill="white"/>
<path d="M487.661 49.6686C478.157 46.063 472.456 55.1445 472.456 55.1445C472.456 55.1445 466.756 46.072 457.252 49.6686C453.017 51.2691 451.245 56.1696 452.252 61.1779C454.087 70.3583 464.274 81.6787 472.465 85.9857C480.657 81.6697 490.835 70.3493 492.678 61.1779C493.677 56.1785 491.905 51.2781 487.679 49.6686H487.661Z" fill="white"/>
<path d="M472.459 254.057C472.046 254.057 471.641 253.913 471.317 253.644L457.309 242.071C456.544 241.442 456.436 240.309 457.066 239.536C457.704 238.772 458.837 238.664 459.601 239.293L472.037 249.561L489.103 222.398C489.633 221.553 490.739 221.301 491.584 221.831C492.421 222.362 492.681 223.468 492.151 224.313L473.997 253.212C473.718 253.653 473.269 253.949 472.756 254.03C472.657 254.048 472.567 254.057 472.468 254.057H472.459Z" fill="#222222"/>
<path d="M483.583 331.079C481.659 332.958 478.881 334.118 475.257 334.568V339.962H470.447V334.711C468.073 334.586 465.807 334.163 463.658 333.462C461.509 332.76 459.774 331.888 458.461 330.863L461.104 324.991C462.327 325.891 463.748 326.646 465.384 327.257C467.021 327.869 468.702 328.255 470.438 328.408V320.37C468.163 319.821 466.23 319.219 464.665 318.545C463.092 317.87 461.779 316.881 460.718 315.586C459.657 314.283 459.126 312.565 459.126 310.407C459.126 307.746 460.097 305.453 462.04 303.547C463.982 301.64 466.778 300.471 470.438 300.058V294.717H475.248V299.968C479.196 300.292 482.451 301.272 485.022 302.908L482.612 308.825C480.203 307.449 477.748 306.613 475.248 306.325V314.507C477.496 315.02 479.393 315.604 480.949 316.261C482.504 316.917 483.817 317.897 484.869 319.201C485.93 320.505 486.461 322.213 486.461 324.326C486.461 326.961 485.499 329.209 483.574 331.088L483.583 331.079ZM467.785 311.99C468.397 312.502 469.278 312.934 470.429 313.293V306.46C469.206 306.748 468.307 307.206 467.731 307.836C467.156 308.465 466.868 309.193 466.868 310.029C466.868 310.866 467.174 311.486 467.785 311.999V311.99ZM477.847 326.961C478.422 326.385 478.71 325.693 478.71 324.893C478.71 324.092 478.413 323.436 477.82 322.914C477.226 322.402 476.372 321.952 475.248 321.566V328.21C476.399 327.95 477.271 327.536 477.847 326.961Z" fill="#FF9F19"/>
<path d="M512.29 375.21H350.135C337.907 375.21 327.953 365.256 327.953 353.027V31.1823C327.953 18.9537 337.907 9 350.135 9H512.29C524.518 9 534.472 18.9537 534.472 31.1823V353.018C534.472 365.247 524.518 375.201 512.29 375.201V375.21ZM350.135 12.5966C339.885 12.5966 331.55 20.9318 331.55 31.1823V353.018C331.55 363.269 339.885 371.604 350.135 371.604H512.29C522.54 371.604 530.875 363.269 530.875 353.018V31.1823C530.875 20.9318 522.54 12.5966 512.29 12.5966H350.135Z" fill="#222222"/>
<path d="M223.481 295.747L69.7969 458.894L158.436 542.391L312.12 379.245L223.481 295.747Z" fill="#C7C7C7"/>
<path d="M312.127 379.21L376.521 310.841C355.412 290.135 322.351 259.554 301.243 238.847C297.352 235.034 288.808 228.225 288.808 228.225C265.832 249.971 223.49 295.723 223.49 295.723L312.135 379.207L312.127 379.21Z" fill="white"/>
<path d="M289.058 261.57L282.277 201.123C281.349 192.861 273.903 186.912 265.641 187.841C257.379 188.769 251.43 196.215 252.359 204.477L259.139 264.924L289.058 261.57Z" fill="white"/>
<path d="M384.257 258.695L354.596 290.185L376.523 310.842L406.183 279.353C411.89 273.295 411.606 263.767 405.549 258.06C399.491 252.354 389.963 252.638 384.257 258.695Z" fill="white"/>
<path d="M367.169 232.894L332.669 269.527L354.596 290.185L389.096 253.551C394.802 247.493 394.518 237.965 388.461 232.259C382.403 226.553 372.875 226.836 367.169 232.894Z" fill="white"/>
<path d="M349.772 207.433L310.737 248.883L332.664 269.54L371.699 228.09C377.405 222.032 377.121 212.504 371.064 206.798C365.006 201.092 355.478 201.375 349.772 207.433Z" fill="white"/>
<path d="M355.499 157.417L288.804 228.229L310.731 248.887L370.057 185.896C385.174 169.851 382.845 162.48 376.791 156.782C370.733 151.076 361.205 151.36 355.499 157.417Z" fill="white"/>
<path d="M312.88 380.845C312.66 380.946 312.428 381.003 312.183 381.007C311.704 381.02 311.239 380.847 310.899 380.519L222.254 297.034C221.536 296.355 221.497 295.215 222.176 294.497L256.551 258L250.567 204.688C250.012 199.738 251.997 195.767 252.079 195.601C254.006 191.44 260.439 184.058 270.758 186.311C280.996 188.541 283.935 196.849 284.065 201.005L287.001 227.196L354.189 156.187C355.632 154.653 357.209 153.65 357.271 153.612C366.055 148.03 373.772 152.458 374.821 153.104C375.735 153.565 380.831 156.467 382.928 164.172C385.237 172.661 378.964 179.078 378.69 179.342L358.308 200.985C361.443 200.572 363.884 201.211 364.55 201.41C365.902 201.639 374.128 203.429 376.926 213.088C378.729 219.315 376.978 223.901 375.236 226.612C379.63 225.858 388.436 226.758 393.042 235.378C396.784 242.376 394.857 248.626 392.381 252.367C392.688 252.325 392.918 252.308 393.051 252.296C397.159 251.695 405.904 252.85 410.315 261.54C414.748 270.279 410.394 277.813 407.441 280.625L313.42 380.448C313.262 380.62 313.068 380.758 312.864 380.852L312.88 380.845ZM226.029 295.645L312.056 376.662L404.88 278.111C404.88 278.111 404.934 278.056 404.963 278.033C405.225 277.784 411.459 271.692 407.131 263.161C402.785 254.59 393.914 255.809 393.534 255.865C393.469 255.875 393.393 255.88 393.324 255.882C393.296 255.885 389.398 256.104 386.197 259.258L385.572 259.921C384.901 260.636 383.781 260.675 383.054 260.02C382.327 259.364 382.267 258.244 382.915 257.501C383.157 257.231 383.395 256.973 383.641 256.732L387.796 252.318C387.796 252.318 387.85 252.263 387.879 252.24C388.149 251.987 394.549 245.759 389.892 237.073C385.217 228.347 375.953 230.132 375.556 230.215C375.512 230.226 375.455 230.232 375.399 230.238C375.374 230.249 371.644 230.767 368.484 234.12L368.476 234.123C367.793 234.853 366.657 234.881 365.939 234.201C365.221 233.522 365.182 232.382 365.861 231.664L370.396 226.848C370.442 226.797 370.5 226.751 370.546 226.7C370.753 226.525 375.803 222.076 373.481 214.078C371.16 206.08 364.192 204.979 363.895 204.937C363.779 204.921 363.667 204.894 363.56 204.854C363.293 204.769 356.719 202.675 351.089 208.638L351.072 208.646C350.389 209.376 349.257 209.411 348.535 208.723C347.817 208.044 347.778 206.904 348.457 206.186C348.457 206.186 348.474 206.179 348.478 206.167L376.117 176.824C376.196 176.738 381.222 171.548 379.466 165.101C377.67 158.504 373.362 156.368 373.176 156.285C373.101 156.251 373.018 156.2 372.947 156.153C372.691 155.984 366.44 152.029 359.2 156.624C359.184 156.632 357.926 157.448 356.801 158.638L286.95 232.465C286.47 232.973 285.736 233.162 285.068 232.935C284.403 232.716 283.931 232.121 283.85 231.426L280.474 201.31C280.468 201.253 280.465 201.205 280.463 201.157C280.455 200.794 280.046 192.006 269.979 189.806C259.925 187.61 255.485 196.767 255.299 197.159C255.256 197.238 253.695 200.43 254.133 204.266L260.211 258.406C260.274 258.931 260.1 259.456 259.733 259.842L226.025 295.637L226.029 295.645Z" fill="#222222"/>
<path d="M315.075 246.711C314.43 247.008 313.641 246.906 313.086 246.389C312.368 245.71 312.329 244.57 313.008 243.852L367.299 186.204C367.986 185.482 369.118 185.447 369.836 186.126C370.554 186.805 370.593 187.945 369.914 188.663L315.624 246.311C315.457 246.487 315.271 246.621 315.067 246.715L315.075 246.711Z" fill="#222222"/>
<path d="M341.159 262.941C340.514 263.238 339.725 263.136 339.17 262.619C338.452 261.94 338.413 260.8 339.092 260.082L365.852 231.668C366.539 230.946 367.671 230.91 368.389 231.59C369.107 232.269 369.146 233.409 368.467 234.127L341.707 262.541C341.541 262.717 341.355 262.851 341.151 262.945L341.159 262.941Z" fill="#222222"/>
<path d="M369.891 276.374C369.245 276.671 368.456 276.569 367.902 276.052C367.184 275.372 367.144 274.232 367.824 273.514L382.938 257.461C383.625 256.739 384.757 256.704 385.475 257.383C386.193 258.063 386.232 259.202 385.553 259.92L370.439 275.974C370.272 276.149 370.087 276.284 369.882 276.378L369.891 276.374Z" fill="#222222"/>
<path d="M200.436 173.727C199.78 173.727 199.15 173.367 198.827 172.738C195.329 165.832 193.477 157.955 193.477 149.953C193.477 148.514 193.54 147.049 193.656 145.61C193.737 144.621 194.61 143.874 195.599 143.964C196.588 144.045 197.325 144.918 197.244 145.907C197.136 147.246 197.073 148.613 197.073 149.953C197.073 157.389 198.791 164.708 202.037 171.11C202.486 171.991 202.135 173.079 201.245 173.529C200.985 173.664 200.706 173.727 200.436 173.727ZM233.022 130.18C232.653 130.18 232.275 130.063 231.961 129.83C229.911 128.319 228.148 126.53 226.736 124.498C223.661 120.092 222.016 114.625 221.953 108.681C215.893 111.936 210.462 116.531 206.344 121.971C205.741 122.762 204.617 122.915 203.826 122.313C203.035 121.71 202.882 120.586 203.484 119.795C208.43 113.285 214.841 108.052 222.187 104.527C222.205 104.374 222.223 104.231 222.241 104.078C222.367 103.089 223.275 102.387 224.255 102.522C224.713 102.576 225.1 102.801 225.379 103.125C225.415 103.116 225.442 103.098 225.478 103.089C226.404 102.72 227.447 103.17 227.815 104.096C228.184 105.022 227.735 106.065 226.808 106.433C226.404 106.595 225.999 106.757 225.604 106.928C225.577 107.405 225.568 107.89 225.568 108.358C225.568 113.69 226.997 118.563 229.704 122.439C230.891 124.138 232.374 125.649 234.11 126.925C234.91 127.51 235.081 128.643 234.496 129.443C234.146 129.92 233.597 130.18 233.049 130.18H233.022ZM257.317 128.409C256.912 128.409 256.517 128.274 256.175 128.004C255.411 127.375 255.294 126.242 255.923 125.478C258.018 122.915 259.223 119.723 259.223 116.72C259.223 115.389 258.998 114.112 258.549 112.916C257.38 109.805 255.024 107.378 251.571 105.723C250.672 105.292 250.294 104.222 250.726 103.322C251.158 102.423 252.228 102.046 253.127 102.477C257.389 104.518 260.437 107.692 261.921 111.649C262.523 113.249 262.829 114.958 262.829 116.72C262.829 120.595 261.363 124.516 258.711 127.762C258.351 128.193 257.838 128.418 257.317 128.418V128.409ZM236.124 82.4709C235.692 82.4709 235.261 82.318 234.91 82.0033C234.173 81.3379 234.119 80.196 234.793 79.4587C235.35 78.8473 235.926 78.2358 236.501 77.6424C242.292 71.7079 249.036 66.6906 256.562 62.7253C257.443 62.2668 258.531 62.5994 258.989 63.4806C259.448 64.3618 259.115 65.4498 258.234 65.9083C251.041 69.6938 244.594 74.4863 239.073 80.151C238.524 80.7175 237.976 81.293 237.445 81.8774C237.095 82.2641 236.6 82.4619 236.115 82.4619L236.124 82.4709ZM282.907 57.717C282.035 57.717 281.271 57.0786 281.136 56.1884C280.983 55.2083 281.657 54.2912 282.646 54.1383C288.005 53.3201 293.481 53.0504 298.741 53.3381C299.73 53.392 300.495 54.2373 300.441 55.2263C300.387 56.2154 299.568 56.9797 298.552 56.9257C293.544 56.656 288.311 56.9168 283.195 57.69C283.105 57.708 283.015 57.708 282.925 57.708L282.907 57.717Z" fill="#222222"/>
</svg>
