<svg width="819" height="141" viewBox="0 0 819 141" fill="none" xmlns="http://www.w3.org/2000/svg">
<path d="M9.99609 50.9971C9.99609 39.9514 18.9504 30.9971 29.9961 30.9971H89.9961C101.042 30.9971 109.996 39.9514 109.996 50.9971V54.3304C109.996 59.8532 105.519 64.3304 99.9961 64.3304H19.9961C14.4732 64.3304 9.99609 59.8533 9.99609 54.3304V50.9971Z" fill="#222222"/>
<path d="M9.99609 107.496C9.99609 101.973 14.4732 97.4961 19.9961 97.4961H99.9961C105.519 97.4961 109.996 101.973 109.996 107.496V110.829C109.996 121.875 101.042 130.829 89.9961 130.829H29.9961C18.9504 130.829 9.99609 121.875 9.99609 110.829V107.496Z" fill="#222222"/>
<rect x="7.39453" y="77.8813" width="100" height="33.3333" transform="rotate(-15 7.39453 77.8813)" fill="#FF7CC0"/>
<path d="M70.9183 83.8352C68.2024 83.8352 66.0007 81.6335 66.0007 78.9176C66.0007 76.2017 68.2024 74 70.9183 74C73.6343 74 75.8359 76.2017 75.8359 78.9176C75.8359 81.6335 73.6343 83.8352 70.9183 83.8352Z" fill="#222222"/>
<path d="M95.9183 77.8352C93.2024 77.8352 91.0007 75.6335 91.0007 72.9176C91.0007 70.2017 93.2024 68 95.9183 68C98.6342 68 100.836 70.2017 100.836 72.9176C100.836 75.6335 98.6342 77.8352 95.9183 77.8352Z" fill="#222222"/>
<rect x="185" width="634" height="110" rx="20" fill="#222222"/>
<path d="M185.172 46.8284C187.691 44.3086 192 46.0932 192 49.6569V86C192 88.2091 190.209 90 188 90H151.657C148.093 90 146.309 85.6914 148.828 83.1716L185.172 46.8284Z" fill="#222222"/>
</svg>
