<svg width="819" height="141" viewBox="0 0 819 141" fill="none" xmlns="http://www.w3.org/2000/svg">
<path d="M9.99609 50.9971C9.99609 39.9514 18.9504 30.9971 29.9961 30.9971H89.9961C101.042 30.9971 109.996 39.9514 109.996 50.9971V54.3304C109.996 59.8532 105.519 64.3304 99.9961 64.3304H19.9961C14.4732 64.3304 9.99609 59.8533 9.99609 54.3304V50.9971Z" fill="#222222"/>
<path d="M9.99609 107.496C9.99609 101.973 14.4732 97.4961 19.9961 97.4961H99.9961C105.519 97.4961 109.996 101.973 109.996 107.496V110.829C109.996 121.875 101.042 130.829 89.9961 130.829H29.9961C18.9504 130.829 9.99609 121.875 9.99609 110.829V107.496Z" fill="#222222"/>
<rect x="7.39453" y="77.8813" width="100" height="33.3333" transform="rotate(-15 7.39453 77.8813)" fill="#FF7CC0"/>
<path d="M70.9183 83.8352C68.2024 83.8352 66.0007 81.6335 66.0007 78.9176C66.0007 76.2017 68.2024 74 70.9183 74C73.6343 74 75.8359 76.2017 75.8359 78.9176C75.8359 81.6335 73.6343 83.8352 70.9183 83.8352Z" fill="#222222"/>
<path d="M95.9183 77.8352C93.2024 77.8352 91.0007 75.6335 91.0007 72.9176C91.0007 70.2017 93.2024 68 95.9183 68C98.6342 68 100.836 70.2017 100.836 72.9176C100.836 75.6335 98.6342 77.8352 95.9183 77.8352Z" fill="#222222"/>
<rect x="185" width="634" height="110" rx="20" fill="#222222"/>
<path d="M243.968 33.1094V68.3828H218.363V33.1094H243.968ZM225.746 38.9688V62.4648H236.527V38.9688H225.746ZM258.734 28.0703V48.168H266.586V54.3789H258.734V81.3906H251.234V28.0703H258.734ZM293.951 33.168C293.893 49.6328 289.908 63.3438 269.986 73.3047L265.885 67.6797C274.791 63.2559 280.094 58.3047 283.111 52.3867L267.35 53.8516L266.412 47.4648L285.396 46.293C285.924 44.0664 286.305 41.6641 286.51 39.1445H269.225V33.168H293.951ZM308.189 28.0703V48.5195H315.748V54.6719H308.189V81.2734H300.689V28.0703H308.189ZM364.325 57.543V63.5195H315.516V57.543H336.2V53.4414H321.61V38.7344H350.907V34.9844H321.493V29.2422H358.407V44.0078H329.051V47.7578H359.403V53.4414H343.641V57.543H364.325ZM359.579 75.707V81.6836H321.668V66.2148H329.168V75.707H359.579ZM411.261 28.0703V81.3906H404.112V28.0703H411.261ZM400.128 28.832V78.9297H393.096V53.7344H388.819C388.116 64.2227 383.663 70.5508 377.1 70.5508C370.069 70.5508 365.499 63.168 365.499 51.1562C365.499 39.2031 370.069 31.8789 377.1 31.8789C383.516 31.8789 387.911 37.8555 388.761 47.8164H393.096V28.832H400.128ZM377.1 38.9102C374.112 38.9102 372.354 43.0117 372.413 51.1562C372.354 59.3594 374.112 63.4023 377.1 63.3438C380.147 63.4023 381.964 59.3594 381.964 51.1562C381.964 43.0117 380.147 38.9102 377.1 38.9102ZM434.642 40.1406C434.642 50.1602 438.685 59.8867 447.591 63.7539L443.021 69.7305C437.103 66.8301 433.148 61.5273 430.95 54.9648C428.607 61.9375 424.505 67.6504 418.411 70.668L413.724 64.5742C422.864 60.4727 427.025 50.1602 427.083 40.1406V32.1719H434.642V40.1406ZM459.486 28.0703V81.5078H452.103V50.8633H441.614V44.8281H452.103V28.0703H459.486ZM518.846 51.918V57.8359H503.377V69.2031H524.178V75.2969H475.369V69.2031H495.936V57.8359H481.111V31.8203H518.436V37.7969H488.611V51.918H518.846ZM540.704 31.2344C548.907 31.2344 555.293 36.625 555.352 44.3008C555.293 50.7461 550.811 55.5801 544.512 56.957V64.2227C548.731 64.0469 552.92 63.6953 556.875 63.168L557.403 68.6758C546.27 70.7852 534.258 70.7852 525.176 70.668L524.18 64.6328C528.018 64.6035 532.442 64.6035 537.071 64.5156V57.0156C530.538 55.6973 526.055 50.834 526.055 44.3008C526.055 36.625 532.266 31.2344 540.704 31.2344ZM540.704 37.5625C536.485 37.5625 533.321 40.0234 533.379 44.3008C533.321 48.5195 536.485 51.0391 540.704 51.0391C544.805 51.0391 547.969 48.5195 547.969 44.3008C547.969 40.0234 544.805 37.5625 540.704 37.5625ZM567.188 28.0703V48.9883H574.454V55.2578H567.188V81.3906H559.688V28.0703H567.188ZM617.757 52.7383V58.7148H580.022V32.5234H617.346V38.5586H587.405V52.7383H617.757ZM623.089 68.7344V74.8867H574.28V68.7344H623.089ZM651.392 30.5312V45.0039H633.814V48.9883C643.716 48.959 649.487 48.7246 656.255 47.6992L656.958 53.2656C649.458 54.4961 642.896 54.7305 631.001 54.7305H626.431V39.7305H644.068V36.2148H626.255V30.5312H651.392ZM668.384 57.7773V71.8984H640.259V75.2969H669.849V81.0391H632.7V66.5078H660.708V63.4609H632.583V57.7773H668.384ZM668.384 28.0703V55.9023H660.884V28.0703H668.384ZM719.421 28.0703V81.3906H712.39V28.0703H719.421ZM708.054 29.2422V79.0469H701.082V54.5547H692.351C689.304 60.6484 684.353 65.9219 676.765 70.3164L672.546 65.043C683.298 58.6562 688.045 50.8926 689.07 40.4336H675.476V34.3984H696.511C696.482 39.4668 695.955 44.2422 694.695 48.6367H701.082V29.2422H708.054ZM771.455 69.0273V75.1797H722.646V69.0273H733.545V55.9609C729.414 53.5 726.924 49.7207 726.924 45.0039C726.924 36.3906 735.361 30.6484 746.963 30.6484C758.506 30.6484 767.002 36.3906 767.061 45.0039C767.031 49.6035 764.6 53.3535 760.615 55.8438V69.0273H771.455ZM746.963 36.5664C739.346 36.5664 734.307 39.6133 734.307 45.0039C734.307 50.2188 739.346 53.4414 746.963 53.4414C754.521 53.4414 759.619 50.2188 759.678 45.0039C759.619 39.6133 754.521 36.5664 746.963 36.5664ZM740.928 69.0273H753.057V58.6562C751.152 59.0371 749.102 59.2422 746.963 59.2422C744.824 59.2422 742.803 59.0664 740.928 58.6562V69.0273ZM784.231 33.5781L783.469 63.2852H775.969L775.207 33.5781H784.231ZM779.778 76.5273C777.024 76.5273 774.797 74.3008 774.856 71.6055C774.797 68.9102 777.024 66.7422 779.778 66.7422C782.356 66.7422 784.641 68.9102 784.641 71.6055C784.641 74.3008 782.356 76.5273 779.778 76.5273Z" fill="white"/>
<path d="M185.172 46.8284C187.691 44.3086 192 46.0932 192 49.6569V86C192 88.2091 190.209 90 188 90H151.657C148.093 90 146.309 85.6914 148.828 83.1716L185.172 46.8284Z" fill="#222222"/>
</svg>
