<svg width="114" height="54" viewBox="0 0 114 54" fill="none" xmlns="http://www.w3.org/2000/svg">
<path d="M96.1328 38.3041V20.3841H101.733V22.8161C101.733 23.5521 101.701 24.0321 101.509 25.2481H101.733C102.085 23.3921 102.469 22.5601 103.397 21.6001C104.549 20.3841 106.085 19.7441 107.909 19.7441C109.957 19.7441 111.685 20.5761 112.581 21.9841C113.413 23.2961 113.509 23.7761 113.509 27.3601V38.3041H107.493V29.5681C107.493 27.4881 107.429 26.9441 107.141 26.4001C106.821 25.8241 106.021 25.4081 105.189 25.4081C104.037 25.4081 103.013 26.0801 102.533 27.1041C102.245 27.7441 102.149 28.4481 102.149 29.8881V38.3041H96.1328Z" fill="white"/>
<path d="M86.3553 19.7441C92.1153 19.7441 95.0273 22.8481 95.0273 29.0561C95.0273 32.0001 94.1313 34.8161 92.6913 36.4481C91.2513 38.0801 88.9153 38.9441 86.0033 38.9441C83.1873 38.9441 81.1073 38.1761 79.7633 36.6721C78.2593 35.0081 77.3633 32.1921 77.3633 29.0241C77.3633 22.8801 80.4033 19.7441 86.3553 19.7441ZM86.2913 25.4081C84.0193 25.4081 82.8353 26.8801 82.8353 29.6641C82.8353 32.6721 84.0513 34.3681 86.1953 34.3681C88.3393 34.3681 89.5873 32.5761 89.5873 29.5041C89.5873 26.7841 88.4993 25.4081 86.2913 25.4081Z" fill="white"/>
<path d="M64.8477 38.3041V20.3841H70.3517L69.9677 25.9201H70.1277C70.5117 23.5521 70.8637 22.5281 71.7277 21.4081C72.5597 20.3201 73.6157 19.7441 74.8317 19.7441C75.8237 19.7441 76.6557 20.0321 77.5517 20.6721L77.2637 27.0081H77.0397C76.2077 26.1441 75.6317 25.8561 74.6077 25.8561C73.5197 25.8561 72.4637 26.3681 71.8877 27.2001C70.9917 28.4801 70.6397 30.4321 70.6397 34.2721C70.6397 35.4561 70.6717 36.6401 70.7357 38.3041H64.8477Z" fill="white"/>
<path d="M45.9414 38.304V16H51.9574V28.512L57.1094 20.608H64.2134L57.4294 29.376L64.5654 38.304H57.1094L51.9574 30.4V38.304H45.9414Z" fill="white"/>
<path d="M44.236 38.3041H39.308L39.34 37.4401C39.34 36.8321 39.372 36.6401 39.5 35.4561H39.308C38.828 36.5441 38.476 37.0881 37.804 37.6001C36.716 38.4641 35.244 38.9441 33.74 38.9441C30.572 38.9441 28.332 36.8961 28.332 34.0161C28.332 32.2241 29.228 30.5921 30.668 29.7601C31.916 29.0241 33.74 28.4481 36.108 28.0641C38.22 27.7441 39.052 27.2001 39.052 26.2401C39.052 25.2481 37.804 24.5121 36.076 24.5121C34.764 24.5121 33.292 24.8641 31.948 25.4721C30.764 26.0161 30.124 26.4961 29.196 27.5201V22.4641C31.5 20.5761 33.868 19.7441 37.036 19.7441C39.596 19.7441 41.74 20.5121 42.956 21.8561C43.916 22.9121 44.236 24.1281 44.236 26.6241V38.3041ZM39.052 30.2721C38.572 30.6241 37.964 30.8481 36.3 31.3601C34.444 31.9361 33.772 32.4801 33.772 33.5361C33.772 34.5601 34.54 35.2641 35.66 35.2641C37.836 35.2641 39.052 33.4721 39.052 30.2721Z" fill="white"/>
<path d="M0 38.3041V20.3841H5.504L5.44 22.5601C5.44 22.9441 5.44 23.0081 5.376 23.6161L5.344 23.8721L5.312 24.4481H5.504C6.496 21.0881 8.096 19.7441 11.104 19.7441C13.088 19.7441 14.624 20.5441 15.456 22.0481C15.872 22.7521 16.032 23.3601 16.256 24.7681C16.736 23.2321 17.024 22.5921 17.568 21.8241C18.464 20.4801 20.032 19.7441 21.92 19.7441C24.064 19.7441 25.76 20.6721 26.496 22.2401C27.104 23.4881 27.168 24.0001 27.168 27.2641V38.3041H21.152V28.5121C21.152 27.1681 21.12 26.7201 20.96 26.2401C20.736 25.5041 20.032 25.0881 19.104 25.0881C18.176 25.0881 17.376 25.5681 16.96 26.3681C16.704 26.8481 16.608 27.4241 16.608 28.5121V38.3041H10.592V28.5121C10.592 27.0401 10.528 26.4961 10.272 25.9521C10.016 25.3761 9.376 25.0241 8.576 25.0241C7.648 25.0241 6.848 25.4721 6.4 26.2721C6.112 26.8161 6.016 27.4241 6.016 28.5121V38.3041H0Z" fill="white"/>
</svg>
