<svg width="43" height="29" viewBox="0 0 43 29" fill="none" xmlns="http://www.w3.org/2000/svg">
<path d="M32.6745 22.6405L42.3945 22.2405V27.8405H24.3145V23.2405C28.1145 20.4005 30.6745 18.2405 32.7145 16.0405C34.5545 14.0405 35.3145 12.6005 35.3145 11.0005C35.3145 8.88047 33.7145 7.48047 31.2745 7.48047C28.2745 7.48047 25.9945 9.24047 24.5145 12.6405H23.9545V10.0805C23.9545 7.80047 23.8345 6.84047 23.3945 5.12047C24.5145 3.48047 25.2345 2.76047 26.3945 2.04047C27.9945 1.04047 30.3145 0.480469 32.6745 0.480469C38.8745 0.480469 42.7545 3.88047 42.7545 9.28047C42.7545 12.3605 41.4745 15.1605 38.9545 17.8805C37.2345 19.6805 35.8345 20.7605 32.6745 22.6405Z" fill="#222222"/>
<path d="M11.0022 0.480469C14.6822 0.480469 17.7622 1.68047 19.5222 3.88047C21.2022 5.92047 21.8822 8.60047 21.8822 13.1205C21.8822 17.9605 21.0422 21.7205 19.4022 24.4005C17.7622 27.1205 14.8422 28.5205 10.9622 28.5205C3.64219 28.5205 0.242188 23.8405 0.242188 13.8005C0.242188 9.04047 1.00219 6.00047 2.68219 3.92047C4.48219 1.72047 7.44219 0.480469 11.0022 0.480469ZM11.2422 7.64047C8.04219 7.64047 6.64219 9.80047 6.64219 14.7205C6.64219 19.7605 8.16219 22.4405 11.0022 22.4405C13.9622 22.4405 15.4422 19.6805 15.4422 14.1605C15.4422 9.56047 14.2022 7.64047 11.2422 7.64047Z" fill="#222222"/>
</svg>
