<svg width="41" height="29" viewBox="0 0 41 29" fill="none" xmlns="http://www.w3.org/2000/svg">
<path d="M40.277 1.16113V27.8411H33.037V8.52113L23.957 13.0811V7.12113L34.357 1.16113H40.277Z" fill="#222222"/>
<path d="M11.4866 0.480469C15.1666 0.480469 18.2466 1.68047 20.0066 3.88047C21.6866 5.92047 22.3666 8.60047 22.3666 13.1205C22.3666 17.9605 21.5266 21.7205 19.8866 24.4005C18.2466 27.1205 15.3266 28.5205 11.4466 28.5205C4.12656 28.5205 0.726562 23.8405 0.726562 13.8005C0.726562 9.04047 1.48656 6.00047 3.16656 3.92047C4.96656 1.72047 7.92656 0.480469 11.4866 0.480469ZM11.7266 7.64047C8.52656 7.64047 7.12656 9.80047 7.12656 14.7205C7.12656 19.7605 8.64656 22.4405 11.4866 22.4405C14.4466 22.4405 15.9266 19.6805 15.9266 14.1605C15.9266 9.56047 14.6866 7.64047 11.7266 7.64047Z" fill="#222222"/>
</svg>
