<svg width="43" height="29" viewBox="0 0 43 29" fill="none" xmlns="http://www.w3.org/2000/svg">
<path d="M23.4762 1.16016H41.9963V7.44016L33.5163 12.6802C34.7563 12.4802 35.3563 12.4402 36.0363 12.4402C40.3162 12.4402 42.9562 15.1202 42.9562 19.3602C42.9562 24.7602 38.7562 28.5202 32.6362 28.5202C30.3562 28.5202 27.9563 27.9602 26.0363 27.0002C25.0363 26.4802 24.3963 26.0002 23.1562 24.8002C23.5162 24.0402 23.6362 23.4802 23.6362 22.3602C23.6362 21.6802 23.5962 20.9602 23.4762 18.7202H23.9162C24.9962 20.4002 25.5562 21.0002 26.7962 21.6802C28.1562 22.4802 29.7162 22.9202 31.2762 22.9202C33.9162 22.9202 35.6362 21.5202 35.6362 19.3602C35.6362 17.2002 34.1562 16.0402 31.3962 16.0402C29.8362 16.0402 28.5962 16.2802 26.3962 16.9602V11.9202L33.0762 7.44016H23.4762V1.16016Z" fill="#222222"/>
<path d="M10.8069 0.479492C14.4869 0.479492 17.5669 1.67949 19.3269 3.87949C21.0069 5.91949 21.6869 8.59949 21.6869 13.1195C21.6869 17.9595 20.8469 21.7195 19.2069 24.3995C17.5669 27.1195 14.6469 28.5195 10.7669 28.5195C3.44687 28.5195 0.046875 23.8395 0.046875 13.7995C0.046875 9.03949 0.806874 5.99949 2.48687 3.91949C4.28687 1.71949 7.24687 0.479492 10.8069 0.479492ZM11.0469 7.63949C7.84687 7.63949 6.44687 9.79949 6.44687 14.7195C6.44687 19.7595 7.96687 22.4395 10.8069 22.4395C13.7669 22.4395 15.2469 19.6795 15.2469 14.1595C15.2469 9.55949 14.0069 7.63949 11.0469 7.63949Z" fill="#222222"/>
</svg>
