<svg width="450" height="108" viewBox="0 0 450 108" fill="none" xmlns="http://www.w3.org/2000/svg">
<path d="M225.81 0C437.251 0 439.369 36.8526 439.391 82.5957C443.055 83.7463 445.713 87.1691 445.713 91.2129V98.4385C445.713 103.426 441.669 107.469 436.682 107.469H14.0312C9.0437 107.469 5.00023 103.426 5 98.4385V91.2129C5.00017 86.8425 8.10443 83.1965 12.2285 82.3613C12.2575 36.7268 14.7294 3.81546e-05 225.81 0Z" fill="#222222"/>
<path d="M84.0767 42.3511H94.4082C97.4064 42.3511 98.8514 42.6039 100.26 43.4348C102.355 44.5908 103.475 46.9027 103.475 49.9732C103.475 53.9108 101.705 57.0897 98.743 58.3901C97.1536 59.1126 96.0337 59.2571 92.3852 59.2571H90.4706V66.4458H84.0767V42.3511ZM90.4706 48.3838V53.9108H92.6381C94.3359 53.9108 95.0584 53.8024 95.7809 53.405C96.6117 52.9715 97.1175 52.0323 97.1175 50.8763C97.1175 49.901 96.7562 49.1424 96.106 48.8173C95.4196 48.456 94.7694 48.3838 92.7103 48.3838H90.4706ZM104.01 42.3511H110.404V66.4458H104.01V42.3511ZM129.815 44.8075V51.9239H129.526C128.478 49.7204 126.166 48.3115 123.529 48.3115C122.012 48.3115 120.639 48.8534 119.628 49.8649C118.508 50.9847 117.966 52.6103 117.966 54.85C117.966 59.221 119.953 61.6774 123.493 61.6774C126.239 61.6774 128.189 60.377 129.526 57.5954H129.815V63.8087C127.25 66.1568 125.119 67.0599 121.976 67.0599C115.51 67.0599 111.572 62.0748 111.572 53.8746C111.572 49.5398 112.656 46.3608 114.751 44.374C116.63 42.6401 119.194 41.737 122.193 41.737C125.372 41.737 127.467 42.5678 129.815 44.8075ZM131.353 42.3511H137.747V52.5742C138.18 51.7072 138.361 51.346 138.65 50.9125L143.779 42.3511H151.474L143.49 54.4165L151.727 66.4458H144.032L138.325 57.0536C138.144 56.7284 137.963 56.4033 137.566 55.5002L137.747 66.4458H131.353V42.3511ZM180.735 42.3511L172.896 57.5232V66.4458H166.502V57.6677L158.519 42.3511H165.78L167.766 46.5776C168.886 49.0701 169.32 50.7318 169.573 53.5856H169.753C170.042 50.4429 170.44 48.8173 171.451 46.5776L173.402 42.3511H180.735ZM190.154 41.737C197.596 41.737 200.883 45.3132 200.883 53.405C200.883 58.0289 199.727 61.858 197.596 64.1339C195.826 66.0123 193.117 67.0599 189.865 67.0599C182.857 67.0599 179.064 62.436 179.064 53.983C179.064 49.901 180.003 46.6137 181.774 44.6269C183.435 42.7484 186.325 41.737 190.154 41.737ZM190.082 48.3115C186.975 48.3115 185.422 50.479 185.422 54.8139C185.422 59.3655 186.939 61.6774 189.974 61.6774C191.708 61.6774 192.9 60.9911 193.622 59.5461C194.272 58.2095 194.67 56.2227 194.67 54.272C194.67 50.2622 193.189 48.3115 190.082 48.3115ZM202.125 42.3511H208.519V55.6086C208.519 58.1011 208.627 58.8236 209.169 59.6906C209.638 60.4853 210.686 60.9911 211.806 60.9911C213.215 60.9911 214.371 60.2325 214.804 59.1126C215.093 58.2818 215.129 57.8122 215.129 55.6086V42.3511H221.523V55.6086C221.523 59.51 221.487 60.088 221.126 61.2078C220.006 64.8925 216.574 67.0599 211.842 67.0599C208.23 67.0599 205.195 65.7233 203.678 63.4836C202.486 61.7497 202.125 60.0518 202.125 55.9698V42.3511ZM223.681 42.3511H233.723C237.119 42.3511 238.853 42.6762 240.153 43.6154C241.743 44.6991 242.573 46.5415 242.573 48.8895C242.573 51.2015 241.67 53.3689 240.153 54.5971C239.25 55.3196 238.383 55.6808 236.468 56.0782L243.657 66.4458H235.89L231.953 60.1602C231.194 58.8959 230.544 57.7038 230.075 56.6201V66.4458H223.681V42.3511ZM230.075 47.9503V52.827H232.35C234.915 52.827 235.999 52.0323 235.999 50.2261C235.999 49.3591 235.71 48.6728 235.168 48.3115C234.735 48.0587 234.084 47.9503 232.567 47.9503H230.075ZM251.87 42.3511H268.234V48.3838H258.264V52.1768H268.126V57.776H258.264V66.4458H251.87V42.3511ZM276.08 60.4131H284.317V66.4458H269.686V42.3511H276.08V60.4131ZM291.993 61.2439L290.512 66.4458H284.19L291.162 42.3511H300.735L307.671 66.4458H301.168L299.723 61.2439H291.993ZM298.387 55.6447L295.822 46.5776L293.293 55.6447H298.387ZM327.04 42.3511L319.634 66.4458H312.085L304.932 42.3511H311.434L314.144 52.1407C315.083 55.5725 315.372 57.2342 315.769 60.9911H315.95C316.311 57.7038 316.6 56.0782 317.72 51.9601L320.393 42.3511H327.04ZM336.884 41.737C344.326 41.737 347.613 45.3132 347.613 53.405C347.613 58.0289 346.457 61.858 344.326 64.1339C342.556 66.0123 339.846 67.0599 336.595 67.0599C329.587 67.0599 325.794 62.436 325.794 53.983C325.794 49.901 326.733 46.6137 328.503 44.6269C330.165 42.7484 333.055 41.737 336.884 41.737ZM336.812 48.3115C333.705 48.3115 332.152 50.479 332.152 54.8139C332.152 59.3655 333.669 61.6774 336.704 61.6774C338.438 61.6774 339.63 60.9911 340.352 59.5461C341.002 58.2095 341.4 56.2227 341.4 54.272C341.4 50.2622 339.919 48.3115 336.812 48.3115ZM348.855 42.3511H358.897C362.293 42.3511 364.027 42.6762 365.327 43.6154C366.917 44.6991 367.747 46.5415 367.747 48.8895C367.747 51.2015 366.844 53.3689 365.327 54.5971C364.424 55.3196 363.557 55.6808 361.642 56.0782L368.831 66.4458H361.064L357.127 60.1602C356.368 58.8959 355.718 57.7038 355.249 56.6201V66.4458H348.855V42.3511ZM355.249 47.9503V52.827H357.524C360.089 52.827 361.173 52.0323 361.173 50.2261C361.173 49.3591 360.884 48.6728 360.342 48.3115C359.909 48.0587 359.258 47.9503 357.741 47.9503H355.249Z" fill="white"/>
</svg>
