<svg width="450" height="108" viewBox="0 0 450 108" fill="none" xmlns="http://www.w3.org/2000/svg">
<path d="M224.675 108C13.5931 108 11.1237 71.2727 11.0947 25.6377C6.97021 24.8028 3.86542 21.1578 3.86523 16.7871V9.56152C3.86545 4.57418 7.90817 0.531494 12.8955 0.53125H435.547C440.534 0.53125 444.578 4.57403 444.578 9.56152V16.7871C444.578 20.8309 441.92 24.2537 438.256 25.4043C438.235 71.1474 436.116 108 224.675 108Z" fill="#222222"/>
<path d="M149.486 42.8818V66.9766H143.417V54.6221C143.453 52.7437 143.526 50.6124 143.634 48.2282H143.417C142.225 55.5614 142.189 55.8504 141.503 58.6319L139.335 66.9766H133.302L131.207 58.8487C130.557 56.3561 130.376 55.2363 130.087 53.1049L129.473 48.0114H129.22C129.365 50.1789 129.509 53.2856 129.509 54.875V66.9766H123.441V42.8818H133.05L135.145 52.6714C135.759 55.8865 136.084 58.4513 136.337 62.0276H136.554C136.843 58.2707 137.168 55.6697 137.746 52.5269L139.733 42.8818H149.486ZM157.812 61.7747L156.331 66.9766H150.009L156.981 42.8818H166.554L173.49 66.9766H166.987L165.542 61.7747H157.812ZM164.206 56.1755L161.641 47.1083L159.112 56.1755H164.206ZM174.278 42.8818H180.672V53.1049C181.106 52.238 181.286 51.8767 181.575 51.4432L186.705 42.8818H194.399L186.416 54.9473L194.652 66.9766H186.958L181.25 57.5843C181.069 57.2592 180.889 56.9341 180.491 56.031L180.672 66.9766H174.278V42.8818ZM195.093 42.8818H211.494V48.9145H201.162V52.2741H211.385V57.8733H201.162V61.3773H211.494V66.9766H195.093V42.8818ZM231.245 42.2677C238.687 42.2677 241.974 45.844 241.974 53.9358C241.974 58.5597 240.818 62.3888 238.687 64.6646C236.917 66.5431 234.208 67.5907 230.956 67.5907C223.948 67.5907 220.155 62.9668 220.155 54.5138C220.155 50.4318 221.095 47.1445 222.865 45.1576C224.526 43.2792 227.416 42.2677 231.245 42.2677ZM231.173 48.8423C228.067 48.8423 226.513 51.0097 226.513 55.3446C226.513 59.8963 228.03 62.2082 231.065 62.2082C232.799 62.2082 233.991 61.5218 234.713 60.0769C235.364 58.7403 235.761 56.7535 235.761 54.8028C235.761 50.793 234.28 48.8423 231.173 48.8423ZM263.843 42.8818V66.9766H256.293L251.994 57.6204C250.73 54.6583 249.754 51.9128 248.923 48.8423H248.743C249.068 51.8406 249.176 53.7913 249.285 58.3429V66.9766H243.216V42.8818H251.994L255.137 50.3956C256.401 53.6107 257.557 57.4398 258.388 61.0161H258.605C258.027 55.8142 257.774 52.7076 257.774 49.7093V42.8818H263.843ZM289.234 44.4713V51.3349C287.934 49.9621 287.32 49.5287 286.055 49.059C284.863 48.5894 283.599 48.3366 282.371 48.3366C280.348 48.3366 279.228 48.9868 279.228 50.1789C279.228 51.082 279.733 51.5516 281.07 51.9128C283.888 52.6714 284.719 52.9243 285.911 53.3939C288.656 54.5499 290.137 56.7535 290.137 59.7518C290.137 64.2673 286.489 67.5907 281.467 67.5907C278.578 67.5907 276.229 66.8682 273.773 65.2426V58.957C275.11 60.3297 275.796 60.8355 276.988 61.3412C278.289 61.9192 279.697 62.2082 281.034 62.2082C282.912 62.2082 284.068 61.4857 284.068 60.2936C284.068 59.1015 283.49 58.7042 280.348 57.8372C277.458 57.0425 275.688 56.1755 274.64 55.0195C273.484 53.7552 272.87 52.1296 272.87 50.2511C272.87 45.4828 276.555 42.2677 281.973 42.2677C284.682 42.2677 286.814 42.918 289.234 44.4713ZM291.479 42.8818H297.873V66.9766H291.479V42.8818ZM298.619 42.8818H318.09V49.1313H311.588V66.9766H305.194V49.1313H298.619V42.8818ZM318.822 42.8818H335.223V48.9145H324.891V52.2741H335.114V57.8733H324.891V61.3773H335.223V66.9766H318.822V42.8818Z" fill="white"/>
</svg>
