<svg width="306" height="266" viewBox="0 0 306 266" fill="none" xmlns="http://www.w3.org/2000/svg">
<g opacity="0.5">
<circle cx="14.7313" cy="14.7313" r="14.7313" fill="#F18BBA"/>
<circle cx="54.0633" cy="14.7313" r="14.7313" fill="#F18BBA"/>
<circle cx="93.3993" cy="14.7313" r="14.7313" fill="#F18BBA"/>
<circle cx="132.731" cy="14.7313" r="14.7313" fill="#F18BBA"/>
<circle cx="172.067" cy="14.7313" r="14.7313" fill="#F18BBA"/>
<circle cx="211.399" cy="14.7313" r="14.7313" fill="#F18BBA"/>
<circle cx="250.731" cy="14.7313" r="14.7313" fill="#F18BBA"/>
<circle cx="290.067" cy="14.7313" r="14.7313" fill="#F18BBA"/>
<circle cx="14.7313" cy="54.0648" r="14.7313" fill="#F18BBA"/>
<circle cx="54.0633" cy="54.0648" r="14.7313" fill="#F18BBA"/>
<circle cx="93.3993" cy="54.0648" r="14.7313" fill="#F18BBA"/>
<circle cx="132.731" cy="54.0648" r="14.7313" fill="#F18BBA"/>
<circle cx="172.067" cy="54.0648" r="14.7313" fill="#F18BBA"/>
<circle cx="211.399" cy="54.0648" r="14.7313" fill="#F18BBA"/>
<circle cx="250.731" cy="54.0648" r="14.7313" fill="#F18BBA"/>
<circle cx="290.067" cy="54.0648" r="14.7313" fill="#F18BBA"/>
<circle cx="14.7313" cy="93.3983" r="14.7313" fill="#F18BBA"/>
<circle cx="54.0633" cy="93.3983" r="14.7313" fill="#F18BBA"/>
<circle cx="93.3993" cy="93.3983" r="14.7313" fill="#F18BBA"/>
<circle cx="132.731" cy="93.3983" r="14.7313" fill="#F18BBA"/>
<circle cx="172.067" cy="93.3983" r="14.7313" fill="#F18BBA"/>
<circle cx="211.399" cy="93.3983" r="14.7313" fill="#F18BBA"/>
<circle cx="250.731" cy="93.3983" r="14.7313" fill="#F18BBA"/>
<circle cx="290.067" cy="93.3983" r="14.7313" fill="#F18BBA"/>
<circle cx="14.7313" cy="132.732" r="14.7313" fill="#F18BBA"/>
<circle cx="54.0633" cy="132.732" r="14.7313" fill="#F18BBA"/>
<circle cx="93.3993" cy="132.732" r="14.7313" fill="#F18BBA"/>
<circle cx="132.731" cy="132.732" r="14.7313" fill="#F18BBA"/>
<circle cx="172.067" cy="132.732" r="14.7313" fill="#F18BBA"/>
<circle cx="211.399" cy="132.732" r="14.7313" fill="#F18BBA"/>
<circle cx="250.731" cy="132.732" r="14.7313" fill="#F18BBA"/>
<circle cx="290.067" cy="132.732" r="14.7313" fill="#F18BBA"/>
<circle cx="14.7313" cy="172.066" r="14.7313" fill="#F18BBA"/>
<circle cx="54.0633" cy="172.066" r="14.7313" fill="#F18BBA"/>
<circle cx="93.3993" cy="172.066" r="14.7313" fill="#F18BBA"/>
<circle cx="132.731" cy="172.066" r="14.7313" fill="#F18BBA"/>
<circle cx="172.067" cy="172.066" r="14.7313" fill="#F18BBA"/>
<circle cx="211.399" cy="172.066" r="14.7313" fill="#F18BBA"/>
<circle cx="250.731" cy="172.066" r="14.7313" fill="#F18BBA"/>
<circle cx="290.067" cy="172.066" r="14.7313" fill="#F18BBA"/>
<circle cx="14.7313" cy="211.399" r="14.7313" fill="#F18BBA"/>
<circle cx="54.0633" cy="211.399" r="14.7313" fill="#F18BBA"/>
<circle cx="93.3993" cy="211.399" r="14.7313" fill="#F18BBA"/>
<circle cx="132.731" cy="211.399" r="14.7313" fill="#F18BBA"/>
<circle cx="172.067" cy="211.399" r="14.7313" fill="#F18BBA"/>
<circle cx="211.399" cy="211.399" r="14.7313" fill="#F18BBA"/>
<circle cx="250.731" cy="211.399" r="14.7313" fill="#F18BBA"/>
<circle cx="290.067" cy="211.399" r="14.7313" fill="#F18BBA"/>
<circle cx="14.7313" cy="250.733" r="14.7313" fill="#F18BBA"/>
<circle cx="54.0633" cy="250.733" r="14.7313" fill="#F18BBA"/>
<circle cx="93.3993" cy="250.733" r="14.7313" fill="#F18BBA"/>
<circle cx="132.731" cy="250.733" r="14.7313" fill="#F18BBA"/>
<circle cx="172.067" cy="250.733" r="14.7313" fill="#F18BBA"/>
<circle cx="211.399" cy="250.733" r="14.7313" fill="#F18BBA"/>
<circle cx="250.731" cy="250.733" r="14.7313" fill="#F18BBA"/>
<circle cx="290.067" cy="250.733" r="14.7313" fill="#F18BBA"/>
</g>
</svg>
