<svg width="150" height="150" viewBox="0 0 150 150" fill="none" xmlns="http://www.w3.org/2000/svg">
<rect width="150" height="150" fill="white"/>
<path d="M56.5391 82.7827C56.5391 84.4273 57.1925 86.0046 58.3555 87.1676C59.5184 88.3307 61.0957 88.984 62.7403 88.984H112.351C113.995 88.984 115.573 88.3307 116.735 87.1676C117.898 86.0046 118.552 84.4273 118.552 82.7827V51.7764H56.5391V82.7827Z" fill="#C7C7C7"/>
<path d="M112.347 36.2734H62.7363C60.8948 36.4992 59.2149 37.4368 58.056 38.8855C56.897 40.3342 56.3511 42.1789 56.535 44.025V51.7766H118.548V44.025C118.724 42.1805 118.175 40.34 117.017 38.8931C115.86 37.4463 114.185 36.5068 112.347 36.2734Z" fill="#7A7979"/>
<path d="M111.5 41.5L106.5 46.5" stroke="white" stroke-width="1.66667" stroke-linecap="round" stroke-linejoin="round"/>
<path d="M106.5 41.5L111.5 46.5" stroke="white" stroke-width="1.66667" stroke-linecap="round" stroke-linejoin="round"/>
<path d="M31.5391 107.783C31.5391 109.427 32.1925 111.005 33.3555 112.168C34.5184 113.331 36.0957 113.984 37.7403 113.984H87.3505C88.9951 113.984 90.5727 113.331 91.7354 112.168C92.8985 111.005 93.5518 109.427 93.5518 107.783V76.7764H31.5391V107.783Z" fill="#ECEAEA"/>
<path d="M87.3465 61.2734H37.7363C35.8948 61.4992 34.2149 62.4368 33.056 63.8855C31.897 65.3342 31.3511 67.1789 31.535 69.025V76.7766H93.5478V69.025C93.7236 67.1805 93.1748 65.34 92.0173 63.8931C90.8599 62.4463 89.1846 61.5068 87.3465 61.2734Z" fill="#7A7979"/>
<path d="M53.5181 65.9243H50.4175C49.5614 65.9243 48.8672 66.6184 48.8672 67.4746V70.5753C48.8672 71.4315 49.5614 72.1256 50.4175 72.1256H53.5181C54.3742 72.1256 55.0685 71.4315 55.0685 70.5753V67.4746C55.0685 66.6184 54.3742 65.9243 53.5181 65.9243Z" fill="#FF9F19"/>
<path d="M42.651 65.9243H39.5503C38.6942 65.9243 38 66.6184 38 67.4746V70.5753C38 71.4315 38.6942 72.1256 39.5503 72.1256H42.651C43.507 72.1256 44.2013 71.4315 44.2013 70.5753V67.4746C44.2013 66.6184 43.507 65.9243 42.651 65.9243Z" fill="#46CE7A"/>
<path d="M64.358 65.9243H61.2573C60.4013 65.9243 59.707 66.6184 59.707 67.4746V70.5753C59.707 71.4315 60.4013 72.1256 61.2573 72.1256H64.358C65.2141 72.1256 65.9083 71.4315 65.9083 70.5753V67.4746C65.9083 66.6184 65.2141 65.9243 64.358 65.9243Z" fill="#EC6456"/>
</svg>
