<svg width="150" height="150" viewBox="0 0 150 150" fill="none" xmlns="http://www.w3.org/2000/svg">
<rect width="150" height="150" fill="white"/>
<path d="M86.2383 67.501H97.4883C101.467 67.501 105.282 69.0812 108.095 71.8945C110.908 74.7074 112.488 78.5226 112.488 82.501V105.001C112.488 105.995 112.093 106.949 111.39 107.653C110.687 108.356 109.733 108.751 108.738 108.751H74.9883C73.9938 108.751 73.0398 108.356 72.3367 107.653C71.6335 106.949 71.2383 105.995 71.2383 105.001V82.501C71.2383 78.5226 72.8185 74.7074 75.6318 71.8945C78.4447 69.0812 82.2599 67.501 86.2383 67.501Z" fill="#C7C7C7"/>
<path d="M52.4883 67.501H63.7383C67.7167 67.501 71.5319 69.0812 74.3448 71.8945C77.158 74.7074 78.7383 78.5226 78.7383 82.501V105.001C78.7383 105.995 78.343 106.949 77.6399 107.653C76.9368 108.356 75.9828 108.751 74.9883 108.751H41.2383C40.2437 108.751 39.2899 108.356 38.5866 107.653C37.8834 106.949 37.4883 105.995 37.4883 105.001V82.501C37.4883 78.5226 39.0686 74.7074 41.8817 71.8945C44.6947 69.0812 48.51 67.501 52.4883 67.501Z" fill="#9574BA"/>
<path d="M58.125 63.75C64.3382 63.75 69.375 58.7132 69.375 52.5C69.375 46.2868 64.3382 41.25 58.125 41.25C51.9118 41.25 46.875 46.2868 46.875 52.5C46.875 58.7132 51.9118 63.75 58.125 63.75Z" fill="#9574BA"/>
<path d="M91.875 63.75C98.0884 63.75 103.125 58.7132 103.125 52.5C103.125 46.2868 98.0884 41.25 91.875 41.25C85.6616 41.25 80.625 46.2868 80.625 52.5C80.625 58.7132 85.6616 63.75 91.875 63.75Z" fill="#C7C7C7"/>
</svg>
