<svg width="150" height="150" viewBox="0 0 150 150" fill="none" xmlns="http://www.w3.org/2000/svg">
<rect width="150" height="150" fill="white"/>
<path d="M69.2267 67.5005H80.4767C85.4492 67.5005 90.2185 69.476 93.7348 72.992C97.2512 76.5084 99.2267 81.2776 99.2267 86.2505V108.75C99.2267 110.739 98.4362 112.647 97.03 114.054C95.6233 115.46 93.7157 116.25 91.7267 116.25H57.9766C55.9874 116.25 54.0798 115.46 52.6733 114.054C51.2667 112.647 50.4766 110.739 50.4766 108.75V86.2505C50.4766 81.2776 52.452 76.5084 55.9683 72.992C59.4846 69.476 64.2538 67.5005 69.2267 67.5005Z" fill="#C7C7C7"/>
<path d="M74.9922 63.7505C83.2763 63.7505 89.9922 57.0348 89.9922 48.7505C89.9922 40.4662 83.2763 33.7505 74.9922 33.7505C66.7079 33.7505 59.9922 40.4662 59.9922 48.7505C59.9922 57.0348 66.7079 63.7505 74.9922 63.7505Z" fill="#C7C7C7"/>
<path d="M95.6172 112.5C102.866 112.5 108.742 106.624 108.742 99.375C108.742 92.1263 102.866 86.25 95.6172 86.25C88.3684 86.25 82.4922 92.1263 82.4922 99.375C82.4922 106.624 88.3684 112.5 95.6172 112.5Z" fill="#63A7EF"/>
<path d="M95.6328 105C98.7393 105 101.258 102.481 101.258 99.3745C101.258 96.268 98.7393 93.7495 95.6328 93.7495C92.5263 93.7495 90.0078 96.268 90.0078 99.3745C90.0078 102.481 92.5263 105 95.6328 105Z" fill="white"/>
<path d="M100.391 82.5366H91.0156V90.0366H100.391V82.5366Z" fill="#63A7EF"/>
<path d="M83.4688 86.8584L78.7812 94.9772L85.2763 98.7272L89.9638 90.6084L83.4688 86.8584Z" fill="#63A7EF"/>
<path d="M78.6914 103.704L83.3789 111.823L89.8743 108.073L85.1868 99.9541L78.6914 103.704Z" fill="#63A7EF"/>
<path d="M90.8633 116.213H100.238V108.713H90.8633V116.213Z" fill="#63A7EF"/>
<path d="M107.82 111.94L112.507 103.821L106.012 100.071L101.324 108.19L107.82 111.94Z" fill="#63A7EF"/>
<path d="M112.573 95.0787L107.886 86.96L101.391 90.71L106.078 98.8287L112.573 95.0787Z" fill="#63A7EF"/>
</svg>
