<svg width="150" height="150" viewBox="0 0 150 150" fill="none" xmlns="http://www.w3.org/2000/svg">
<rect width="150" height="150" fill="white"/>
<path d="M101.258 67.688C101.258 67.688 101.258 67.5755 101.258 67.5005C101.258 55.088 91.1703 45.0005 78.7578 45.0005C68.8578 45.0005 60.4953 51.3755 57.4578 60.263C56.4453 60.113 55.4328 60.0005 54.3828 60.0005C42.9828 60.0005 33.7578 69.2255 33.7578 80.6255C33.7578 92.0255 42.9828 101.25 54.3828 101.25H99.3828C108.72 101.25 116.258 93.6755 116.258 84.3755C116.258 75.713 109.695 68.6255 101.258 67.688Z" fill="#C7C7C7"/>
<path d="M111.667 88.333H88.3333C86.4924 88.333 85 89.8254 85 91.6663V108.333C85 110.174 86.4924 111.666 88.3333 111.666H111.667C113.508 111.666 115 110.174 115 108.333V91.6663C115 89.8254 113.508 88.333 111.667 88.333Z" fill="#FF9F19"/>
<path d="M91.6719 88.333V86.6663C91.6719 84.4562 92.5498 82.3366 94.1126 80.7738C95.6754 79.211 97.795 78.333 100.005 78.333C102.215 78.333 104.335 79.211 105.898 80.7738C107.461 82.3366 108.339 84.4562 108.339 86.6663V88.333" stroke="#7A7979" stroke-width="4.16667" stroke-miterlimit="10"/>
<path d="M100.422 96.667H99.5885C98.668 96.667 97.9219 97.4132 97.9219 98.3337V101.667C97.9219 102.587 98.668 103.334 99.5885 103.334H100.422C101.342 103.334 102.089 102.587 102.089 101.667V98.3337C102.089 97.4132 101.342 96.667 100.422 96.667Z" fill="#7A7979"/>
</svg>
