<svg width="150" height="150" viewBox="0 0 150 150" fill="none" xmlns="http://www.w3.org/2000/svg">
<rect width="150" height="150" fill="white"/>
<g clip-path="url(#clip0_1910_1261)">
<path d="M89.5 35H44.5C40.3579 35 37 38.3579 37 42.5V102.5C37 106.642 40.3579 110 44.5 110H89.5C93.6423 110 97 106.642 97 102.5V42.5C97 38.3579 93.6423 35 89.5 35Z" fill="#ECEAEA"/>
<path d="M83.875 53.751H50.125C49.0895 53.751 48.25 54.5905 48.25 55.626V59.376C48.25 60.4115 49.0895 61.251 50.125 61.251H83.875C84.9104 61.251 85.75 60.4115 85.75 59.376V55.626C85.75 54.5905 84.9104 53.751 83.875 53.751Z" fill="#7A7979"/>
<path d="M83.875 68.75H50.125C49.0895 68.75 48.25 69.5896 48.25 70.625V74.375C48.25 75.4104 49.0895 76.25 50.125 76.25H83.875C84.9104 76.25 85.75 75.4104 85.75 74.375V70.625C85.75 69.5896 84.9104 68.75 83.875 68.75Z" fill="#7A7979"/>
<path d="M83.875 83.7505H50.125C49.0895 83.7505 48.25 84.5901 48.25 85.6255V89.3755C48.25 90.4109 49.0895 91.2505 50.125 91.2505H83.875C84.9104 91.2505 85.75 90.4109 85.75 89.3755V85.6255C85.75 84.5901 84.9104 83.7505 83.875 83.7505Z" fill="#7A7979"/>
<rect x="64" y="77.4736" width="44.3315" height="44.3315" rx="7" transform="rotate(-15 64 77.4736)" fill="#FF7CC0"/>
<path d="M97.7862 89.1692C99.2734 89.5677 99.7715 91.4266 98.6828 92.5153L90.3086 100.889C89.2199 101.978 87.361 101.48 86.9625 99.9929L83.8973 88.5535C83.4988 87.0664 84.8597 85.7055 86.3468 86.104L97.7862 89.1692Z" fill="white"/>
</g>
<defs>
<clipPath id="clip0_1910_1261">
<rect width="90" height="90" fill="white" transform="translate(30 30)"/>
</clipPath>
</defs>
</svg>
