<svg width="150" height="150" viewBox="0 0 150 150" fill="none" xmlns="http://www.w3.org/2000/svg">
<rect width="150" height="150" fill="white"/>
<path d="M72.8889 94.5373C86.786 94.5373 98.0518 83.2719 98.0518 69.3748C98.0518 55.4781 86.786 44.2124 72.8889 44.2124C58.9922 44.2124 47.7266 55.4781 47.7266 69.3748C47.7266 83.2719 58.9922 94.5373 72.8889 94.5373Z" fill="#ECEAEA"/>
<path d="M72.875 46.8745C78.8424 46.8745 84.5653 49.245 88.7848 53.4646C93.0043 57.6842 95.375 63.4071 95.375 69.3745C95.375 75.3419 93.0043 81.0648 88.7848 85.2843C84.5653 89.5041 78.8424 91.8745 72.875 91.8745C66.9076 91.8745 61.1846 89.5041 56.9651 85.2843C52.7455 81.0648 50.375 75.3419 50.375 69.3745C50.375 63.4071 52.7455 57.6842 56.9651 53.4646C61.1846 49.245 66.9076 46.8745 72.875 46.8745ZM72.875 37.4995C64.4243 37.5094 56.3225 40.8709 50.3469 46.8465C44.3713 52.8221 41.0099 60.9238 41 69.3745C41 73.5603 41.8244 77.7051 43.4263 81.5725C45.0282 85.4399 47.3761 88.9536 50.336 91.9135C53.2958 94.8734 56.8097 97.2213 60.677 98.8233C64.5442 100.425 68.6891 101.25 72.875 101.25C77.0623 101.254 81.2094 100.434 85.079 98.8334C88.9483 97.2333 92.4643 94.8854 95.4249 91.9244C98.3859 88.9638 100.734 85.4478 102.334 81.5785C103.934 77.7089 104.755 73.5618 104.75 69.3745C104.75 60.9207 101.392 52.8132 95.414 46.8355C89.4361 40.8578 81.3286 37.4995 72.875 37.4995Z" fill="#7A7979"/>
<path fill-rule="evenodd" clip-rule="evenodd" d="M95.3149 85.1499L115.565 105.437L108.93 112.06L88.6797 91.7728L95.3149 85.1499Z" fill="#7A7979"/>
<path d="M34 74.5H50.2979C50.7192 74.5 51.0954 74.2359 51.2385 73.8396L56.597 59.0006C56.9105 58.1324 58.1325 58.1163 58.4688 58.9758L65.5924 77.1806C65.9209 78.0201 67.1051 78.0305 67.4483 77.1969L72.7302 64.3694C73.0455 63.6038 74.1015 63.5311 74.5187 64.2463L80.2106 74.0039C80.3898 74.3111 80.7187 74.5 81.0744 74.5H84.5" stroke="#FF9F19" stroke-width="6" stroke-linecap="round"/>
</svg>
