<svg width="150" height="150" viewBox="0 0 150 150" fill="none" xmlns="http://www.w3.org/2000/svg">
<rect width="150" height="150" fill="white"/>
<path d="M75 107.5C92.9493 107.5 107.5 92.9493 107.5 75C107.5 57.0507 92.9493 42.5 75 42.5C57.0507 42.5 42.5 57.0507 42.5 75C42.5 92.9493 57.0507 107.5 75 107.5Z" fill="#ECEAEA" stroke="#C7C7C7" stroke-width="6.5" stroke-linecap="round" stroke-linejoin="round"/>
<path d="M42.5 75H107.5" stroke="#C7C7C7" stroke-width="6.5" stroke-linecap="round" stroke-linejoin="round"/>
<path d="M75 42.5C83.1292 51.3996 87.7489 62.9491 88 75C87.7489 87.0509 83.1292 98.6004 75 107.5C66.8708 98.6004 62.2511 87.0509 62 75C62.2511 62.9491 66.8708 51.3996 75 42.5Z" stroke="#C7C7C7" stroke-width="6.5" stroke-linecap="round" stroke-linejoin="round"/>
<rect x="80" y="80" width="40" height="40" rx="20" fill="#FF7CC0"/>
<path d="M87.1193 107.5H83.6388L89.0314 91.9453H93.1779L98.5489 107.5H95.09L93.9298 103.912H88.3009L87.1193 107.5ZM89.1173 101.398H93.1134L91.1583 95.4473H91.0509L89.1173 101.398ZM99.4307 107.5V91.9453H105.532C109.077 91.9453 111.097 94.1152 111.097 97.1875C111.097 100.303 109.034 102.43 105.446 102.43H102.653V107.5H99.4307ZM102.653 99.8301H104.931C106.843 99.8301 107.767 98.7559 107.767 97.1875C107.767 95.6406 106.843 94.5879 104.931 94.5879H102.653V99.8301ZM115.48 91.9453V107.5H112.258V91.9453H115.48Z" fill="white"/>
</svg>
