<svg width="498" height="516" viewBox="0 0 498 516" fill="none" xmlns="http://www.w3.org/2000/svg">
<path d="M249.5 24C483.627 24 485.974 64.8062 485.997 115.457C490.056 116.73 493 120.521 493 125V133C493 138.523 488.523 143 483 143H15C9.47715 143 5 138.523 5 133V125C5 120.161 8.43646 116.125 13.002 115.199C13.034 64.6678 15.7701 24 249.5 24Z" fill="#222222"/>
<path d="M262.141 217.527L299.332 221.968L294.891 259.159L257.7 254.718L262.141 217.527Z" fill="white"/>
<path d="M294.885 260.354C295.153 260.354 295.409 260.265 295.623 260.099C295.873 259.902 296.034 259.617 296.069 259.307L299.687 228.992C299.764 228.337 299.3 227.748 298.646 227.671L261.458 223.232C261.143 223.197 260.827 223.286 260.583 223.476C260.334 223.673 260.173 223.958 260.137 224.268L256.52 254.583C256.442 255.237 256.906 255.826 257.561 255.904L294.748 260.342C294.796 260.342 294.844 260.348 294.891 260.348L294.885 260.354ZM297.182 229.89L293.844 257.838L259.019 253.678L262.357 225.731L297.182 229.89Z" fill="#222222"/>
<path d="M343.789 272.254C343.789 272.254 301.74 243.355 203.155 249.043L206.362 284.749L235.273 290.658H300.396L328.105 279.525L343.783 272.254H343.789Z" fill="#FF7CC0"/>
<path d="M272.109 236.93C253.423 233.813 240.801 216.138 243.918 197.452C247.035 178.766 264.71 166.145 283.396 169.262C302.082 172.378 314.704 190.053 311.587 208.74C308.47 227.426 290.795 240.047 272.109 236.93Z" fill="white"/>
<path d="M277.779 238.577C278.76 238.577 279.736 238.535 280.712 238.458C281.367 238.405 281.854 237.827 281.801 237.173C281.747 236.518 281.188 236.025 280.516 236.084C278.868 236.221 277.19 236.233 275.53 236.12C266.706 235.525 258.638 231.532 252.818 224.874C246.999 218.216 244.12 209.69 244.709 200.86C245.934 182.641 261.743 168.813 279.968 170.039C289.322 170.67 298.015 175.263 303.81 182.641C304.215 183.159 304.964 183.248 305.482 182.843C306 182.439 306.089 181.689 305.684 181.172C299.472 173.258 290.161 168.337 280.135 167.659C260.613 166.35 243.655 181.172 242.34 200.699C241.704 210.16 244.792 219.299 251.033 226.439C257.275 233.579 265.92 237.857 275.381 238.494C276.184 238.547 276.987 238.577 277.791 238.577H277.779Z" fill="#222222"/>
<path d="M259.892 210.439C260.1 210.439 260.314 210.386 260.511 210.267C263.843 208.244 265.991 204.721 266.246 200.836C266.687 194.261 261.695 188.549 255.12 188.109C249.497 187.728 244.297 191.405 242.797 196.85C242.625 197.48 242.994 198.141 243.63 198.313C244.267 198.486 244.922 198.117 245.094 197.48C246.296 193.119 250.449 190.174 254.965 190.483C260.231 190.834 264.229 195.41 263.878 200.675C263.67 203.787 261.95 206.608 259.279 208.226C258.72 208.565 258.535 209.297 258.88 209.862C259.106 210.231 259.499 210.433 259.898 210.433L259.892 210.439Z" fill="#222222"/>
<path d="M253.611 198.034C253.504 199.658 254.729 201.068 256.36 201.175C257.99 201.282 259.394 200.057 259.501 198.426C259.608 196.802 258.383 195.392 256.752 195.285C255.128 195.178 253.718 196.403 253.611 198.034Z" fill="#222222"/>
<path d="M269.224 197.909C269.117 199.533 270.343 200.943 271.973 201.05C273.597 201.157 275.007 199.932 275.115 198.301C275.222 196.671 273.996 195.267 272.366 195.16C270.741 195.053 269.331 196.278 269.224 197.909Z" fill="#222222"/>
<path d="M262.007 221.744C264.535 221.744 267.064 220.923 269.046 219.263C269.551 218.841 269.617 218.091 269.194 217.585C268.772 217.08 268.022 217.014 267.516 217.437C264.327 220.114 259.073 219.947 256.057 217.08C255.581 216.627 254.825 216.645 254.373 217.121C253.921 217.597 253.939 218.353 254.415 218.805C256.467 220.751 259.234 221.738 262.007 221.738V221.744Z" fill="#222222"/>
<path d="M196.403 276.419L332.5 285.554L325.543 389.202L189.446 380.067L196.403 276.419Z" fill="#FF7CC0"/>
<path d="M177.478 281.482C174.13 267.295 182.916 253.079 197.104 249.731C211.291 246.382 225.506 255.169 228.855 269.356C232.203 283.543 223.417 297.759 209.23 301.107C195.042 304.456 180.827 295.669 177.478 281.482Z" fill="#FF7CC0"/>
<path d="M188.141 253.774L216.727 290.893L155.17 338.298L126.584 301.179L188.141 253.774Z" fill="#FF7CC0"/>
<path d="M323.966 320.7C309.871 316.978 301.463 302.536 305.184 288.442C308.905 274.348 323.347 265.939 337.441 269.66C351.535 273.381 359.944 287.824 356.223 301.918C352.502 316.012 338.06 324.421 323.966 320.7Z" fill="#FF7CC0"/>
<path d="M131.364 225.673L165.395 312.285L121.789 329.418L87.7589 242.805L131.364 225.673Z" fill="#FF7CC0"/>
<path d="M142.63 341.905C129.637 341.905 119.104 331.372 119.104 318.378C119.104 305.385 129.637 294.852 142.63 294.852C155.623 294.852 166.156 305.385 166.156 318.378C166.156 331.372 155.623 341.905 142.63 341.905Z" fill="#FF7CC0"/>
<path d="M89.3024 247.33C84.8458 236.536 81.2223 225.101 76.6467 212.927C76.0339 211.297 74.3441 206.781 74.3441 206.781C84.59 202.848 100.363 197.32 110.609 193.393C112.495 192.667 116 191.406 116 191.406C120.611 202.205 127.674 217.818 132.285 228.617L89.3024 247.33Z" fill="white"/>
<path d="M106.997 199.182L98.2328 176.941C97.1856 174.168 98.5838 171.068 101.357 170.015L101.755 169.86C104.528 168.813 107.628 170.211 108.681 172.984L117.445 195.225L106.997 199.176V199.182Z" fill="white"/>
<path d="M123.156 188.342L113.721 204.777L123.411 210.34L132.844 193.91C134.319 191.341 133.429 188.051 130.859 186.576L130.488 186.363C127.918 184.887 124.628 185.777 123.153 188.347L123.156 188.342Z" fill="white"/>
<path d="M97.0245 204.115L85.8623 174.811C84.8151 172.038 86.2133 168.938 88.986 167.885L89.3847 167.73C92.1574 166.683 95.2573 168.082 96.3105 170.854L107.473 200.158L97.0245 204.109V204.115Z" fill="white"/>
<path d="M87.0479 209.047L76.2605 179.612C75.2133 176.84 76.6116 173.74 79.3843 172.686L79.7829 172.532C82.5556 171.485 85.6556 172.883 86.7087 175.655L97.4961 205.09L87.0479 209.041V209.047Z" fill="white"/>
<path d="M74.5817 208.209L65.6091 194.851C63.7408 192.548 64.0918 189.163 66.3945 187.294L66.7277 187.027C69.0303 185.158 72.4159 185.509 74.2842 187.812L89.0938 206.566L74.5817 208.203V208.209Z" fill="white"/>
<path d="M116.002 191.405C116.002 191.405 117.4 196.481 120.363 193.226L120.113 197.784L118.382 199.497L116.293 196.302L114.169 191.149L116.008 191.399L116.002 191.405Z" fill="white"/>
<path d="M120.36 327.173C120.503 327.173 120.652 327.149 120.794 327.089C121.407 326.851 121.711 326.161 121.467 325.548L92.1451 250.733L77.4724 210.553C77.4426 210.47 77.401 210.392 77.3534 210.315L66.5066 193.506C66.5066 193.506 65.2571 191.525 65.6914 189.71C65.9116 188.806 66.5125 188.074 67.5299 187.479C69.7195 186.199 72.0579 187.752 72.9861 188.752C77.758 193.863 83.6544 202.122 83.7139 202.205C84.059 202.693 84.7135 202.842 85.2371 202.568C85.7667 202.288 86.0047 201.664 85.7964 201.104L77.5914 178.911C77.4605 178.572 76.4609 175.668 79.311 173.859C82.2027 172.027 84.3922 173.883 84.6362 174.103C84.6421 174.109 84.7671 174.222 84.9396 174.43C85.3561 175.448 85.9511 176.275 86.1415 176.525C86.4986 176.995 87.1471 177.132 87.6588 176.852C88.1764 176.572 88.4085 175.954 88.2062 175.4C87.867 174.478 87.4208 173.752 87.04 173.24C86.921 172.889 86.8615 172.574 86.921 172.354L86.9984 172.05C87.3375 170.646 87.7243 169.058 90.8361 168.349C93.9242 167.647 95.3819 170.914 95.4414 171.051L97.0003 175.144C97.2085 175.692 97.7916 176.007 98.3628 175.882C98.94 175.757 99.3386 175.234 99.3029 174.651C99.3029 174.549 99.2256 171.949 102.028 170.837C102.052 170.825 102.076 170.813 102.099 170.807C102.195 170.765 104.604 169.682 106.699 171.509C106.699 171.509 107.472 172.294 108.174 174.067L115.106 191.525C115.297 192.108 116.153 194.476 117.938 195.077C118.533 195.273 119.45 195.351 120.491 194.619C120.782 194.428 121.413 193.893 122.228 192.477L124.418 188.663C124.418 188.663 124.442 188.615 124.454 188.591C124.483 188.532 125.376 186.836 127.613 186.586C129.892 186.33 131.534 188.175 131.552 188.199C131.57 188.217 131.588 188.24 131.605 188.258C131.671 188.324 133.307 190.073 132.349 192.382C132.349 192.382 132.087 192.959 131.653 193.72L123.097 208.619C122.907 208.946 122.889 209.345 123.037 209.69L131.415 228.819L151.764 281.376C151.901 281.727 152.192 281.988 152.555 282.09C152.918 282.191 153.305 282.113 153.603 281.887L186.363 256.659C186.887 256.261 186.982 255.511 186.578 254.993C186.179 254.47 185.429 254.375 184.906 254.779L153.406 279.037L133.617 227.915L125.459 209.285L133.718 194.904C134.229 194.012 134.527 193.345 134.539 193.316C136.05 189.668 133.652 186.955 133.331 186.616C133.045 186.295 130.737 183.843 127.351 184.224C123.995 184.599 122.55 187.104 122.341 187.503L120.164 191.293C119.658 192.179 119.295 192.53 119.194 192.62C119.164 192.637 119.182 192.625 119.128 192.667C118.843 192.875 118.73 192.834 118.688 192.822C118.236 192.673 117.623 191.62 117.355 190.775C117.349 190.745 117.337 190.716 117.325 190.692L110.382 173.199C109.471 170.89 108.406 169.855 108.287 169.748C105.128 166.987 101.582 168.439 101.118 168.647C99.648 169.236 98.6544 170.146 98.0118 171.116L97.6489 170.164C96.8397 168.308 94.3049 165.131 90.3065 166.041C85.8976 167.046 85.1062 169.783 84.7195 171.354C83.0832 170.587 80.6378 170.218 78.0436 171.866C74.3844 174.186 74.6997 178.054 75.378 179.773L80.7449 194.291C78.8825 191.911 76.7287 189.288 74.7295 187.146C72.8076 185.087 69.3626 183.671 66.334 185.438C64.7394 186.366 63.7458 187.627 63.3769 189.186C62.7104 192.007 64.436 194.702 64.5133 194.815L75.2828 211.511L89.9198 251.596L119.253 326.441C119.438 326.911 119.884 327.197 120.36 327.197V327.173Z" fill="#222222"/>
<path d="M97.3036 204.394C97.4405 204.394 97.5833 204.37 97.7201 204.317C98.3389 204.085 98.6483 203.4 98.4222 202.788L88.212 175.382C87.9799 174.763 87.2957 174.454 86.6828 174.68C86.064 174.912 85.7546 175.596 85.9807 176.209L96.191 203.615C96.3695 204.091 96.8217 204.388 97.3036 204.388V204.394Z" fill="#222222"/>
<path d="M107.223 200.075C107.36 200.075 107.503 200.051 107.645 199.997C108.258 199.765 108.574 199.081 108.342 198.462L99.2322 174.281C99.0001 173.668 98.3159 173.353 97.6971 173.585C97.0842 173.817 96.7689 174.501 97.0009 175.12L106.11 199.301C106.289 199.777 106.741 200.075 107.223 200.075Z" fill="#222222"/>
<path d="M89.9466 209.136C93.5404 204.835 99.2821 202.246 104.786 203.317C110.29 204.388 115.067 208.619 116.793 213.956L89.9466 209.136Z" fill="white"/>
<path d="M325.535 389.202L324.601 404.785H187.061L189.435 380.068L325.535 389.202Z" fill="#A1A1A1"/>
<path d="M190.518 365.134C191.136 365.134 191.66 364.652 191.702 364.021L195.873 301.903C195.914 301.249 195.42 300.677 194.766 300.636C194.117 300.594 193.54 301.088 193.498 301.742L189.328 363.86C189.286 364.515 189.78 365.086 190.434 365.128C190.458 365.128 190.488 365.128 190.518 365.128V365.134Z" fill="#222222"/>
<path d="M332.067 270.1C346.644 270.1 358.461 281.917 358.461 296.494C358.461 311.072 346.644 322.888 332.067 322.888V270.1Z" fill="#FF7CC0"/>
<path d="M347.084 275.172L408.641 322.577L380.055 359.696L318.498 312.291L347.084 275.172Z" fill="#FF7CC0"/>
<path d="M403.86 247.078L447.465 264.211L413.435 350.823L369.829 333.691L403.86 247.078Z" fill="#FF7CC0"/>
<path d="M370.854 348.783C365.882 336.779 371.582 323.017 383.586 318.045C395.591 313.073 409.353 318.773 414.325 330.777C419.297 342.781 413.597 356.544 401.593 361.516C389.588 366.488 375.826 360.788 370.854 348.783Z" fill="#FF7CC0"/>
<path d="M445.925 268.726C450.381 257.932 454.005 246.497 458.58 234.323C459.193 232.693 460.883 228.177 460.883 228.177C450.637 224.244 434.863 218.716 424.618 214.789C422.731 214.063 419.227 212.802 419.227 212.802C414.616 223.601 407.553 239.214 402.942 250.013L445.925 268.726Z" fill="white"/>
<path d="M428.224 220.584L436.988 198.343C438.035 195.57 436.637 192.471 433.865 191.417L433.466 191.263C430.693 190.215 427.593 191.614 426.54 194.386L417.776 216.628L428.224 220.578V220.584Z" fill="white"/>
<path d="M402.367 215.306L411.803 231.741L421.493 226.177L412.061 209.748C410.586 207.178 407.296 206.288 404.726 207.763L404.355 207.976C401.785 209.452 400.895 212.741 402.37 215.311L402.367 215.306Z" fill="white"/>
<path d="M438.197 225.517L449.359 196.213C450.407 193.441 449.008 190.341 446.236 189.288L445.837 189.133C443.064 188.086 439.964 189.484 438.911 192.257L427.749 221.56L438.197 225.511V225.517Z" fill="white"/>
<path d="M448.174 230.449L458.961 201.015C460.008 198.242 458.61 195.142 455.837 194.089L455.439 193.934C452.666 192.887 449.566 194.285 448.513 197.058L437.725 226.492L448.174 230.443V230.449Z" fill="white"/>
<path d="M460.64 229.605L469.612 216.247C471.48 213.944 471.129 210.559 468.827 208.69L468.494 208.423C466.191 206.554 462.805 206.905 460.937 209.208L446.128 227.962L460.64 229.599V229.605Z" fill="white"/>
<path d="M419.222 212.808C419.222 212.808 417.824 217.883 414.861 214.628L415.111 219.186L416.842 220.9L418.931 217.704L421.055 212.552L419.216 212.802L419.222 212.808Z" fill="white"/>
<path d="M414.868 348.569C415.344 348.569 415.79 348.284 415.975 347.813L445.296 272.998L459.945 232.889L470.721 216.188C470.792 216.081 472.518 213.379 471.851 210.565C471.482 209.006 470.489 207.751 468.894 206.816C465.865 205.049 462.42 206.465 460.499 208.524C458.499 210.666 456.345 213.29 454.483 215.67L459.856 201.128C460.522 199.432 460.838 195.565 457.178 193.244C454.59 191.602 452.145 191.965 450.503 192.739C450.116 191.162 449.324 188.425 444.916 187.419C440.917 186.509 438.382 189.686 437.597 191.495L437.216 192.501C436.568 191.531 435.58 190.62 434.11 190.031C433.646 189.823 430.1 188.371 426.964 191.108C426.822 191.239 425.757 192.275 424.846 194.583L417.903 212.07C417.903 212.07 417.879 212.13 417.873 212.154C417.605 212.998 416.992 214.052 416.54 214.2C416.504 214.212 416.385 214.254 416.1 214.046C416.04 214.004 416.064 214.01 416.034 213.998C415.933 213.909 415.576 213.558 415.064 212.671L412.887 208.881C412.678 208.482 411.233 205.977 407.877 205.603C404.485 205.228 402.183 207.673 401.897 207.994C401.576 208.334 399.178 211.047 400.677 214.67C400.701 214.724 400.999 215.39 401.51 216.283L409.769 230.664L401.635 249.246L381.822 300.416L350.322 276.158C349.799 275.759 349.055 275.854 348.65 276.372C348.252 276.895 348.347 277.639 348.865 278.038L381.625 303.266C381.923 303.498 382.31 303.569 382.673 303.468C383.036 303.367 383.327 303.099 383.464 302.754L403.831 250.15L412.185 231.069C412.333 230.723 412.315 230.325 412.125 229.998L403.569 215.099C403.123 214.325 402.867 213.742 402.861 213.736C401.915 211.445 403.551 209.702 403.623 209.631C403.64 209.613 403.658 209.589 403.676 209.577C403.688 209.565 405.336 207.715 407.609 207.971C409.846 208.221 410.739 209.916 410.774 209.988C410.78 210.006 410.798 210.035 410.81 210.047L413 213.861C413.815 215.277 414.446 215.819 414.737 216.003C415.778 216.741 416.701 216.658 417.29 216.461C419.075 215.866 419.937 213.498 420.122 212.909L427.054 195.458C427.768 193.655 428.559 192.87 428.565 192.864C430.618 191.073 433.033 192.15 433.135 192.197C433.152 192.209 433.182 192.221 433.2 192.227C435.996 193.34 435.925 195.94 435.925 196.047C435.901 196.63 436.306 197.148 436.877 197.267C437.454 197.386 438.019 197.076 438.228 196.529L439.793 192.423C439.941 192.108 441.435 189.062 444.392 189.74C447.504 190.448 447.891 192.037 448.23 193.441L448.307 193.744C448.361 193.964 448.307 194.28 448.188 194.631C447.807 195.142 447.355 195.868 447.016 196.791C446.814 197.344 447.046 197.963 447.563 198.242C448.081 198.528 448.724 198.385 449.081 197.915C449.271 197.665 449.866 196.838 450.282 195.821C450.455 195.618 450.574 195.505 450.574 195.505C450.824 195.273 453.019 193.417 455.911 195.25C458.755 197.058 457.762 199.956 457.637 200.283L449.426 222.495C449.217 223.054 449.455 223.679 449.985 223.958C450.509 224.238 451.163 224.083 451.508 223.595C451.568 223.512 457.464 215.259 462.236 210.142C463.17 209.143 465.508 207.596 467.692 208.869C468.716 209.464 469.316 210.196 469.531 211.106C469.959 212.915 468.733 214.867 468.721 214.891L457.875 231.705C457.827 231.777 457.785 231.86 457.756 231.943L443.071 272.153L413.755 346.945C413.517 347.558 413.815 348.248 414.428 348.486C414.571 348.539 414.719 348.569 414.862 348.569H414.868Z" fill="#222222"/>
<path d="M437.917 225.796C438.399 225.796 438.851 225.499 439.03 225.023L449.24 197.617C449.472 196.998 449.157 196.314 448.538 196.088C447.919 195.856 447.235 196.171 447.009 196.79L436.799 224.196C436.567 224.815 436.882 225.499 437.501 225.725C437.638 225.778 437.78 225.802 437.917 225.802V225.796Z" fill="#222222"/>
<path d="M428.002 221.477C428.484 221.477 428.936 221.186 429.114 220.704L438.224 196.523C438.456 195.91 438.146 195.22 437.528 194.988C436.909 194.756 436.225 195.065 435.992 195.684L426.883 219.865C426.651 220.477 426.96 221.168 427.579 221.4C427.716 221.453 427.859 221.477 427.996 221.477H428.002Z" fill="#222222"/>
<path d="M401.401 238.369L454.57 224.243L440.618 173.127L387.55 187.615L401.401 238.369Z" fill="#9574BA"/>
<path d="M401.402 239.559C401.503 239.559 401.605 239.547 401.706 239.517L454.875 225.386C455.178 225.303 455.44 225.106 455.601 224.827C455.761 224.553 455.803 224.226 455.72 223.922L441.767 172.806C441.684 172.502 441.481 172.241 441.208 172.086C440.934 171.931 440.607 171.889 440.303 171.973L387.229 186.461C386.926 186.544 386.664 186.747 386.509 187.02C386.355 187.294 386.313 187.621 386.396 187.925L400.254 238.684C400.397 239.214 400.879 239.559 401.402 239.559ZM453.108 223.399L402.241 236.917L389.008 188.448L439.786 174.591L453.108 223.405V223.399Z" fill="#222222"/>
<path d="M445.27 231.729C445.627 231.729 445.984 231.568 446.216 231.259L449.87 226.463C450.268 225.939 450.167 225.195 449.644 224.797C449.12 224.398 448.376 224.499 447.978 225.023L444.324 229.819C443.926 230.342 444.027 231.086 444.55 231.485C444.765 231.651 445.02 231.729 445.27 231.729Z" fill="#222222"/>
<path d="M445.273 230.539C441.68 226.237 435.938 223.649 430.434 224.72C424.93 225.791 420.153 230.021 418.427 235.358L445.273 230.539Z" fill="white"/>
<path d="M418.426 236.548C418.926 236.548 419.396 236.227 419.556 235.721C421.139 230.818 425.602 226.867 430.659 225.886C435.455 224.957 440.834 227.082 444.356 231.3C444.778 231.806 445.528 231.871 446.034 231.449C446.54 231.026 446.605 230.277 446.183 229.771C442.107 224.898 435.836 222.452 430.201 223.547C424.227 224.708 419.158 229.2 417.289 234.989C417.087 235.614 417.432 236.286 418.057 236.489C418.182 236.53 418.301 236.548 418.426 236.548Z" fill="#222222"/>
<path d="M295.887 216.616C293.779 207.687 299.309 198.74 308.239 196.632C317.168 194.525 326.115 200.055 328.223 208.984C330.331 217.914 324.8 226.861 315.871 228.968C306.941 231.076 297.994 225.546 295.887 216.616Z" fill="#222222"/>
<path d="M295.2 201.582C285.172 197.428 280.41 185.932 284.564 175.904C288.718 165.877 300.214 161.115 310.242 165.268C320.269 169.422 325.031 180.918 320.878 190.946C316.724 200.974 305.228 205.736 295.2 201.582Z" fill="#222222"/>
<path d="M274.161 183.426C262.781 183.426 253.556 174.201 253.556 162.822C253.556 151.442 262.781 142.217 274.161 142.217C285.541 142.217 294.766 151.442 294.766 162.822C294.766 174.201 285.541 183.426 274.161 183.426Z" fill="#222222"/>
<path d="M248.389 187.425C239.956 187.425 233.121 180.589 233.121 172.157C233.121 163.725 239.956 156.89 248.389 156.89C256.821 156.89 263.656 163.725 263.656 172.157C263.656 180.589 256.821 187.425 248.389 187.425Z" fill="#222222"/>
<path d="M271.415 185.805C270.097 180.221 273.556 174.626 279.14 173.308C284.724 171.99 290.319 175.448 291.637 181.032C292.955 186.616 289.497 192.211 283.913 193.529C278.328 194.847 272.733 191.389 271.415 185.805Z" fill="#222222"/>
<path d="M289.839 240.592C284.581 235.334 284.581 226.809 289.839 221.55C295.097 216.292 303.623 216.292 308.881 221.55C314.14 226.809 314.14 235.334 308.881 240.592C303.623 245.851 295.097 245.851 289.839 240.592Z" fill="#222222"/>
<path d="M285.144 215.543C281.662 210.822 282.667 204.173 287.387 200.692C292.108 197.21 298.757 198.214 302.239 202.935C305.721 207.656 304.716 214.305 299.995 217.786C295.275 221.268 288.626 220.264 285.144 215.543Z" fill="white"/>
<path d="M291.393 213.944C295.231 213.944 299.074 211.523 300.467 207.899C300.705 207.286 300.395 206.596 299.782 206.358C299.169 206.12 298.479 206.43 298.241 207.042C297.004 210.255 293.005 212.261 289.691 211.338C289.06 211.16 288.4 211.535 288.227 212.165C288.049 212.796 288.424 213.456 289.054 213.629C289.822 213.843 290.607 213.944 291.393 213.944Z" fill="#222222"/>
<path d="M424.02 197.165L419.914 192.292C418.563 190.691 415.969 191.334 415.517 193.375L414.149 199.599C413.97 200.408 413.405 201.08 412.631 201.395L406.723 203.793C404.783 204.579 404.593 207.25 406.396 208.309L411.894 211.54C412.608 211.963 413.072 212.706 413.131 213.533L413.589 219.894C413.738 221.982 416.219 222.988 417.784 221.602L422.55 217.371C423.169 216.818 424.026 216.61 424.829 216.806L431.017 218.335C433.046 218.835 434.771 216.794 433.938 214.872L431.386 209.029C431.053 208.268 431.118 207.393 431.558 206.685L434.926 201.271C436.033 199.491 434.617 197.219 432.534 197.427L426.191 198.046C425.364 198.129 424.549 197.796 424.014 197.159L424.02 197.165Z" fill="white"/>
<path d="M416.116 223.434C417.009 223.434 417.877 223.113 418.574 222.494L423.345 218.264C423.673 217.972 424.125 217.859 424.553 217.966L430.741 219.495C432.122 219.835 433.55 219.37 434.472 218.288C435.388 217.199 435.608 215.711 435.037 214.408L432.485 208.565C432.312 208.161 432.342 207.703 432.574 207.328L435.942 201.913C436.691 200.705 436.691 199.2 435.942 197.992C435.192 196.784 433.841 196.118 432.425 196.255L426.082 196.874C425.642 196.915 425.214 196.743 424.934 196.404L420.829 191.53C419.912 190.442 418.478 189.978 417.098 190.317C415.718 190.656 414.664 191.733 414.361 193.125L412.992 199.349C412.897 199.777 412.6 200.134 412.189 200.301L406.281 202.699C404.96 203.234 404.079 204.448 403.972 205.87C403.871 207.292 404.567 208.619 405.799 209.345L411.297 212.57C411.678 212.79 411.921 213.188 411.951 213.623L412.409 219.983C412.511 221.405 413.397 222.619 414.712 223.155C415.17 223.339 415.646 223.434 416.122 223.434H416.116ZM424.226 215.545C423.328 215.545 422.447 215.872 421.763 216.479L416.997 220.709C416.61 221.054 416.092 221.144 415.61 220.947C415.129 220.751 414.819 220.322 414.783 219.805L414.325 213.444C414.236 212.225 413.558 211.13 412.499 210.505L407.001 207.28C406.555 207.018 406.305 206.548 406.346 206.031C406.382 205.513 406.691 205.085 407.173 204.888L413.082 202.49C414.212 202.032 415.051 201.039 415.313 199.849L416.681 193.625C416.795 193.119 417.163 192.738 417.663 192.613C418.169 192.488 418.669 192.649 419.002 193.048L423.107 197.921C423.893 198.855 425.089 199.343 426.309 199.224L432.651 198.605C433.175 198.551 433.639 198.789 433.913 199.23C434.186 199.67 434.186 200.2 433.913 200.64L430.545 206.054C429.896 207.096 429.807 208.381 430.295 209.505L432.848 215.348C433.056 215.824 432.979 216.348 432.645 216.741C432.312 217.139 431.812 217.3 431.307 217.175L425.119 215.646C424.821 215.574 424.524 215.539 424.226 215.539V215.545Z" fill="#222222"/>
<path d="M266.9 75.2735L327.37 89.7464C329.198 90.1839 330.325 92.0205 329.887 93.8485L319.932 135.442C319.495 137.27 317.658 138.398 315.83 137.96L255.361 123.487C253.533 123.05 252.405 121.213 252.843 119.385L262.798 77.7913C263.236 75.9632 265.072 74.836 266.9 75.2735Z" fill="white"/>
<path d="M316.634 139.254C317.473 139.254 318.294 139.022 319.026 138.575C320.073 137.933 320.805 136.921 321.091 135.731L331.045 94.1348C331.634 91.6715 330.111 89.1903 327.648 88.6013L267.172 74.1249C265.976 73.8393 264.744 74.0357 263.703 74.6783C262.656 75.3209 261.924 76.3324 261.639 77.5224L251.684 119.119C251.095 121.582 252.618 124.063 255.082 124.652L315.557 139.123C315.914 139.206 316.277 139.248 316.634 139.248V139.254ZM266.095 76.38C266.268 76.38 266.44 76.3978 266.613 76.4395L327.089 90.9099C328.273 91.1955 329.01 92.3914 328.725 93.5755L318.77 135.172C318.634 135.749 318.283 136.231 317.777 136.54C317.277 136.85 316.682 136.945 316.105 136.808L255.629 122.338C254.445 122.052 253.707 120.856 253.993 119.672L263.947 78.0757C264.084 77.4986 264.435 77.0166 264.941 76.7072C265.292 76.493 265.691 76.38 266.095 76.38Z" fill="#222222"/>
<path d="M258.833 124.331L279.997 104.702L284.989 118.244L301.786 102.667L314.703 137.695L274.41 128.056L258.833 124.331Z" fill="#C7C7C7"/>
<path d="M314.705 138.885C315.038 138.885 315.365 138.742 315.597 138.486C315.889 138.159 315.978 137.695 315.823 137.284L302.906 102.25C302.769 101.876 302.454 101.596 302.067 101.507C301.68 101.417 301.27 101.519 300.978 101.792L285.49 116.156L281.111 104.291C280.974 103.916 280.659 103.637 280.272 103.548C279.885 103.458 279.475 103.559 279.183 103.833L258.019 123.462C257.698 123.76 257.567 124.212 257.68 124.634C257.793 125.057 258.126 125.39 258.555 125.491L314.425 138.861C314.52 138.885 314.61 138.891 314.705 138.891V138.885ZM301.288 104.749L312.819 136.023L261.274 123.688L279.499 106.784L283.878 118.649C284.015 119.024 284.33 119.303 284.717 119.392C285.104 119.482 285.514 119.381 285.806 119.107L301.294 104.744L301.288 104.749Z" fill="#222222"/>
<path d="M269.587 88.2502C268.802 91.5287 270.825 94.825 274.103 95.6104C277.382 96.3958 280.678 94.3728 281.464 91.0943C282.249 87.8159 280.226 84.5196 276.948 83.7342C273.669 82.9488 270.373 84.9718 269.587 88.2502Z" fill="#9574BA"/>
<path d="M275.537 96.9727C276.87 96.9727 278.179 96.6038 279.339 95.8898C280.999 94.8724 282.165 93.2659 282.618 91.3678C283.07 89.4698 282.76 87.5122 281.737 85.8522C280.714 84.1921 279.113 83.0259 277.215 82.5737C275.323 82.1215 273.359 82.4309 271.699 83.4543C270.039 84.4718 268.873 86.0783 268.421 87.9763C267.487 91.8914 269.908 95.8363 273.818 96.7704C274.389 96.9073 274.96 96.9727 275.531 96.9727H275.537ZM275.525 84.7514C275.9 84.7514 276.287 84.7931 276.668 84.8883C279.304 85.519 280.94 88.1786 280.309 90.8145C279.678 93.4503 277.013 95.0866 274.383 94.4499C271.747 93.8192 270.117 91.1596 270.747 88.5237C271.289 86.2687 273.306 84.7514 275.531 84.7514H275.525Z" fill="#222222"/>
<path d="M421.699 167.689C421.955 167.689 422.217 167.605 422.431 167.433C422.949 167.028 423.038 166.279 422.633 165.761C418.962 161.078 414.863 156.61 410.46 152.486C409.978 152.04 409.228 152.064 408.776 152.54C408.33 153.022 408.353 153.772 408.829 154.224C413.149 158.27 417.165 162.643 420.759 167.231C420.991 167.528 421.342 167.689 421.693 167.689H421.699ZM395.757 143.359C396.132 143.359 396.507 143.181 396.739 142.847C397.114 142.306 396.977 141.568 396.436 141.193C391.509 137.79 386.291 134.72 380.918 132.06C380.329 131.769 379.615 132.013 379.323 132.602C379.032 133.191 379.276 133.905 379.865 134.196C385.137 136.802 390.259 139.813 395.085 143.151C395.293 143.294 395.525 143.359 395.757 143.359ZM363.865 127.598C364.365 127.598 364.835 127.276 364.996 126.777C365.198 126.152 364.853 125.479 364.228 125.277C358.492 123.421 352.602 121.993 346.723 121.023C346.069 120.916 345.462 121.356 345.355 122.005C345.248 122.653 345.688 123.266 346.337 123.373C352.096 124.319 357.868 125.723 363.49 127.538C363.609 127.58 363.734 127.598 363.859 127.598H363.865Z" fill="#222222"/>
<path d="M98.1368 120.428C98.3867 120.428 98.6307 120.351 98.8449 120.19C100.231 119.155 101.665 118.149 103.093 117.191C103.641 116.828 103.789 116.084 103.42 115.543C103.057 114.996 102.314 114.847 101.772 115.216C100.309 116.192 98.8449 117.227 97.4229 118.28C96.8933 118.673 96.7862 119.416 97.1789 119.946C97.4109 120.261 97.7739 120.428 98.1368 120.428ZM118.051 108.814C118.212 108.814 118.379 108.778 118.533 108.712C123.454 106.517 128.88 104.518 135.128 102.596C135.759 102.405 136.11 101.739 135.913 101.108C135.723 100.478 135.057 100.127 134.426 100.323C128.089 102.269 122.568 104.303 117.558 106.541C116.957 106.808 116.689 107.511 116.957 108.111C117.153 108.552 117.587 108.82 118.046 108.82L118.051 108.814ZM239.836 98.9247C240.354 98.9247 240.83 98.5796 240.978 98.056C241.157 97.4253 240.788 96.7648 240.157 96.5863C233.934 94.8311 228.234 93.4328 222.742 92.3142C222.093 92.1833 221.468 92.5998 221.338 93.2424C221.207 93.885 221.623 94.5157 222.266 94.6466C227.698 95.7533 233.339 97.1337 239.509 98.8771C239.616 98.9068 239.723 98.9247 239.83 98.9247H239.836ZM151.99 97.9132C152.085 97.9132 152.187 97.9013 152.288 97.8775L155.757 96.9909C157.78 96.4733 159.832 95.9497 161.915 95.4142C164.461 94.7537 167.038 94.1706 169.561 93.6768C170.209 93.5518 170.626 92.9271 170.501 92.2785C170.376 91.6359 169.751 91.2135 169.108 91.3384C166.532 91.8382 163.914 92.4332 161.32 93.1056C159.243 93.6411 157.191 94.1647 155.168 94.6823L151.699 95.5689C151.062 95.7295 150.675 96.3781 150.842 97.0147C150.979 97.5502 151.461 97.9072 151.996 97.9072L151.99 97.9132ZM204.868 92.0227C205.475 92.0227 205.992 91.5586 206.052 90.9398C206.111 90.2853 205.63 89.7081 204.975 89.6427C200.816 89.2559 196.675 89.0596 192.67 89.0596H192.659C190.76 89.0596 188.851 89.1012 186.976 89.1905C186.322 89.2202 185.81 89.7795 185.84 90.434C185.87 91.0885 186.423 91.5943 187.083 91.5705C188.922 91.4872 190.796 91.4455 192.653 91.4455H192.659C196.591 91.4455 200.655 91.6359 204.743 92.0167C204.779 92.0167 204.814 92.0167 204.856 92.0167L204.868 92.0227Z" fill="#222222"/>
<rect x="22.217" y="117.217" width="131.565" height="77.5753" rx="5.28785" fill="white"/>
<rect x="22.217" y="117.217" width="131.565" height="77.5753" rx="5.28785" stroke="#222222" stroke-width="2.43393"/>
<rect x="34.0156" y="126.408" width="107.98" height="13.0096" rx="2.60193" fill="#222222"/>
<rect x="34.0156" y="142.019" width="52.689" height="44.2327" rx="2.60193" fill="#222222"/>
<rect x="89.3047" y="142.019" width="52.689" height="13.0096" rx="2.60193" fill="#222222"/>
<rect x="89.3047" y="157.631" width="52.689" height="13.0096" rx="2.60193" fill="#222222"/>
<rect x="89.3047" y="173.243" width="52.689" height="13.0096" rx="2.60193" fill="#222222"/>
<path d="M117.748 194.394C113.84 193.659 109.529 194.83 106.997 197.899C104.466 200.967 103.757 205.439 105.219 209.14L117.748 194.394Z" fill="white"/>
<path d="M106.159 211.281C106.041 211.378 105.911 211.458 105.761 211.516C105.003 211.817 104.143 211.443 103.845 210.682C102.176 206.458 102.962 201.463 105.857 197.959C108.595 194.644 113.368 193.07 118.019 193.943C118.82 194.093 119.348 194.866 119.198 195.668C119.045 196.471 118.275 196.996 117.473 196.847C113.863 196.167 110.195 197.344 108.133 199.841C105.949 202.487 105.326 206.406 106.592 209.596C106.832 210.207 106.641 210.884 106.159 211.281Z" fill="#222222"/>
<path d="M248.5 499C14.7701 499 12.035 458.332 12.0029 407.801C7.43695 406.875 4 402.839 4 398V390C4 384.477 8.47714 380 14 380H482C487.523 380 492 384.477 492 390V398C492 402.478 489.056 406.269 484.998 407.543C484.974 458.194 482.627 499 248.5 499Z" fill="#222222"/>
</svg>
